<?xml version="1.0" standalone="no"?>
<!DOCTYPE svg PUBLIC "-//W3C//DTD SVG 1.1//EN" "http://www.w3.org/Graphics/SVG/1.1/DTD/svg11.dtd" >
<svg xmlns="http://www.w3.org/2000/svg" xmlns:xlink="http://www.w3.org/1999/xlink" version="1.1">
<metadata>
Created by FontForge 20170731 at Tue Dec 17 19:40:56 2013
 By Aleksey,,,
</metadata>
<defs>
<font id="BernardoModaBold" horiz-adv-x="1024" >
  <font-face 
    font-family="Bernardo Moda Bold"
    font-weight="700"
    font-stretch="normal"
    units-per-em="2048"
    panose-1="4 3 2 5 2 11 2 2 5 2"
    ascent="1638"
    descent="-410"
    x-height="598"
    cap-height="1616"
    bbox="-356 -623 2674 2026"
    underline-thickness="33"
    underline-position="-243"
    unicode-range="U+000D-1F427"
  />
<missing-glyph horiz-adv-x="916" 
d="M106 -299q-12 0 -20.5 8.5t-8.5 19.5v1368q0 10 8.5 19t20.5 9h637q12 0 21 -9t9 -19v-1368q0 -11 -9 -19.5t-21 -8.5h-637zM246 -132h358v1088h-358v-1088z" />
    <glyph glyph-name=".notdef" horiz-adv-x="916" 
d="M106 -299q-12 0 -20.5 8.5t-8.5 19.5v1368q0 10 8.5 19t20.5 9h637q12 0 21 -9t9 -19v-1368q0 -11 -9 -19.5t-21 -8.5h-637zM246 -132h358v1088h-358v-1088z" />
    <glyph glyph-name=".null" horiz-adv-x="0" 
 />
    <glyph glyph-name="nonmarkingreturn" unicode="&#xd;" horiz-adv-x="516" 
 />
    <glyph glyph-name="NULL" horiz-adv-x="0" 
 />
    <glyph glyph-name="space" unicode=" " horiz-adv-x="516" 
 />
    <glyph glyph-name="exclam" unicode="!" horiz-adv-x="739" 
d="M368 264q-20 0 -33.5 15t-14.5 29l-2 312q-1 90 -2 188.5t-1.5 198.5t-1 198t-0.5 188q0 23 17 33t33 10q30 0 40 -11.5t10 -41.5l-8 -1074q0 -15 -8 -23.5t-17 -16.5zM365 141q31 0 53 -22.5t22 -53.5q0 -15 -6 -29t-16.5 -25.5t-24 -18t-28.5 -6.5t-29 7t-25.5 18
t-18.5 25.5t-7 28.5q0 15 7 28.5t18.5 24t26 17t28.5 6.5z" />
    <glyph glyph-name="quotedbl" unicode="&#x22;" horiz-adv-x="530" 
d="M339 1409q0 13 9 20.5t21 7.5h40q12 0 20.5 -7.5t8.5 -20.5v-515q0 -11 -8.5 -19.5t-20.5 -8.5h-40q-12 0 -21 8.5t-9 19.5v515zM89 1409q0 13 8 20.5t20 7.5h40q10 0 19 -7.5t9 -20.5v-515q0 -11 -9 -19.5t-19 -8.5h-40q-12 0 -20 8.5t-8 19.5v515z" />
    <glyph glyph-name="numbersign" unicode="#" horiz-adv-x="1575" 
d="M805 1434q3 8 11 14t17 6h42q17 0 25 -13t3 -27v1l-163 -462h263q23 63 44.5 127t44.5 128l80 226q3 8 10.5 14t16.5 6h42q17 0 25.5 -13t2.5 -27v1l-163 -462h281q14 0 22.5 -9.5t6.5 -24.5q-2 -11 -5 -21.5t-7 -19.5q-3 -8 -11 -13t-15 -5h-308l-50 -139l-46 -130h315
q16 0 24 -11t4 -25l-11 -36q-3 -8 -11 -13.5t-16 -5.5h-334l-170 -479q-3 -8 -11 -13.5t-17 -5.5h-41q-16 0 -24 12t-3 26l163 460h-261l-173 -479q-3 -8 -11 -13.5t-17 -5.5h-42q-17 0 -25 12.5t-2 27.5v-1l163 459h-297q-16 0 -24 11t-3 26l4 17q0 3 3 9l2 4q2 10 10.5 17
t19.5 7h318l99 269h-333q-13 0 -22 9t-6 22q1 5 3 9q3 8 5 15l-1 -2l5 21q2 8 10 13.5t18 5.5h351zM706 860l-24 -71l-68 -198h259q14 41 26.5 79t26.5 76q11 32 20 57t20 57h-260z" />
    <glyph glyph-name="dollar" unicode="$" horiz-adv-x="1034" 
d="M527 81q23 0 48 5t46 16.5t34.5 29t13.5 42.5q0 22 -16.5 39t-44 31t-63.5 26t-75 24t-79 25.5t-77 30t-69.5 37.5t-56.5 49t-38 63t-14 80q0 71 30 125.5t78.5 92t109 59.5t122.5 29v275q0 18 14 34t32 16q26 0 36 -17t10 -35v-273q43 -3 90 -13t91.5 -29.5t83.5 -48
t66 -68.5v1q6 -8 10 -16t4 -21q0 -20 -17 -32t-37 -12q-22 10 -31 21h1q-38 36 -69.5 60t-65 39t-72.5 21t-91 6q-51 0 -104 -12t-96 -38t-70.5 -67t-27.5 -99q0 -43 23.5 -73t58.5 -51t77 -35t79 -25q22 -7 52.5 -17t63.5 -24t64.5 -32t56.5 -40t40.5 -48t15.5 -56
q0 -44 -16.5 -77t-44 -55.5t-63 -36t-72.5 -18.5q0 -2 0.5 -2.5t0.5 -1.5q0 -5 0.5 -8.5t0.5 -8.5q1 -14 1.5 -33t0.5 -34q0 -24 -2 -46t-8 -39t-15.5 -27t-24.5 -10q-25 0 -35.5 13.5t-10.5 35.5v164q-26 6 -62.5 17.5t-70 28t-57 38t-23.5 46.5q0 16 15 30.5t31 14.5
q8 0 15.5 -4.5t15.5 -9.5q11 -8 29 -20t42 -23.5t53.5 -20t62.5 -8.5z" />
    <glyph glyph-name="percent" unicode="%" horiz-adv-x="1227" 
d="M745 248q0 -32 12 -59.5t33 -48t49 -32.5t59 -12t58.5 12t48.5 32.5t33 48t12 59.5t-12 60t-32.5 49t-48 33.5t-59.5 12.5t-60 -12t-48.5 -33t-32.5 -49.5t-12 -60.5zM649 246q0 52 19.5 97t53 79t79 53.5t97.5 19.5t97 -19.5t78 -53.5t51.5 -79t18.5 -97q0 -51 -19 -96
t-52.5 -78.5t-78 -52.5t-95.5 -19t-96.5 19.5t-79 52.5t-53.5 78t-20 96zM328 -47q-15 0 -32 14t-17 35q3 7 24.5 42.5t54 90t74.5 122.5t87 141.5t90.5 147t85.5 137.5l57 92l72 114q8 11 19.5 17.5t24.5 6.5q18 0 31.5 -14t13.5 -31q0 -5 -25 -48.5t-66.5 -111.5
t-93.5 -153.5t-106.5 -172.5t-106 -169.5t-90.5 -144.5q-14 -23 -29 -46t-29 -46q-3 -5 -17 -14t-22 -9zM157 639q0 -31 11.5 -59t31.5 -49.5t47.5 -34t59.5 -12.5q31 0 59 12.5t49 34t33 49.5t12 59q0 32 -12 60t-33 49t-49 33t-59 12q-32 0 -59.5 -12t-47.5 -33t-31.5 -49
t-11.5 -60zM59 637q0 52 19.5 97t53 79t78.5 53.5t97 19.5t97 -19.5t78 -53t52 -79t19 -97.5q0 -51 -19 -95.5t-52.5 -78t-78.5 -52.5t-96 -19t-96 19.5t-79 52.5t-53.5 77.5t-19.5 95.5z" />
    <glyph glyph-name="ampersand" unicode="&#x26;" horiz-adv-x="2216" 
d="M88 350q0 93 28 176.5t78.5 153t120 122.5t153.5 86q-54 21 -101 52.5t-81 74.5t-53.5 97t-19.5 119q0 90 38 162.5t100 123.5t141.5 78t162.5 27q86 0 171 -28t148 -91q6 -6 14.5 -19.5t8.5 -24.5q0 -19 -13.5 -32.5t-30.5 -13.5q-15 0 -26.5 9t-16.5 14l2 -1
q-51 50 -120.5 71.5t-140.5 21.5q-64 0 -125.5 -20.5t-109.5 -58.5t-77.5 -92.5t-29.5 -123.5q0 -83 38 -139.5t98 -91t134.5 -50t146.5 -15.5q9 0 19 -0.5t19 -5t14.5 -14t5.5 -27.5q0 -20 -8.5 -30.5t-22 -16t-29 -6.5t-28.5 -1q-2 0 -3.5 -0.5t-3.5 -0.5h-3
q-35 -3 -72 -9t-72.5 -15.5t-69 -23t-61.5 -31.5q-51 -33 -93.5 -78t-73 -98t-47 -112t-16.5 -120q0 -104 42 -194t113 -156.5t164 -104.5t194 -38t190.5 34t158 95t112 145t53.5 184h-200q-55 0 -109 0.5t-108 0.5q-23 0 -37 13.5t-14 34.5q0 30 14 37.5t37 7.5l418 1
q-3 26 -9.5 50t-15.5 50l1 -3q-3 5 -6.5 16t-3.5 17q0 23 14.5 35t34.5 12q16 0 29.5 -20t24 -47.5t17.5 -58t10 -51.5q62 0 122 -0.5t122 -0.5h255q25 0 58.5 3.5t63.5 13.5t50.5 28.5t20.5 48.5q0 14 -4.5 25.5t-9.5 20.5q-1 1 -1 2q-4 8 -6.5 14.5t-2.5 17.5
q0 15 8.5 28.5t30.5 13.5q11 0 21 -2.5t18 -10.5l4 -8q17 -20 24.5 -49.5t7.5 -51.5q0 -45 -27 -79.5t-60 -58.5q49 -34 72.5 -89.5t23.5 -114.5q0 -9 -2 -19t-7.5 -18.5t-14.5 -14t-23 -5.5q-17 0 -26 8t-13.5 19.5t-5 25t-0.5 24.5v7q0 34 -14 58t-36.5 39.5t-52.5 23
t-61 7.5h-535q-11 -120 -62.5 -221t-133 -174.5t-188 -115t-227.5 -41.5q-122 0 -231.5 45.5t-193 125t-132.5 186.5t-49 231z" />
    <glyph glyph-name="quotesingle" unicode="'" horiz-adv-x="274" 
d="M86 1409q0 13 8.5 20.5t20.5 7.5h41q12 0 21 -7.5t9 -20.5v-515q0 -11 -9 -19.5t-21 -8.5h-41q-12 0 -20.5 8.5t-8.5 19.5v515z" />
    <glyph glyph-name="parenleft" unicode="(" horiz-adv-x="680" 
d="M635 -368q0 -18 -12 -31t-31 -13q-16 0 -36.5 17t-41 40.5t-38 47.5t-27.5 38l-4 8q-128 192 -196 414t-68 453q0 112 18 225t51.5 222.5t81.5 213.5t109 199l27 39t39.5 52t44 45.5t40.5 19.5q21 0 32 -10t11 -33q0 -15 -8.5 -28t-16.5 -22q-75 -97 -136.5 -207
t-105 -227.5t-67 -241t-23.5 -247.5q0 -122 20.5 -248t61.5 -246.5t103.5 -230t146.5 -199.5v1l7 -10q7 -8 12.5 -17.5t5.5 -23.5z" />
    <glyph glyph-name="parenright" unicode=")" horiz-adv-x="680" 
d="M31 1579q0 23 14 33t31 10q15 0 34.5 -16.5t39 -39t36.5 -46.5t27 -39l-1 2l5 -5q138 -201 203.5 -417.5t65.5 -454.5q0 -235 -64 -451t-198 -412q-2 -5 -5 -7q-1 -2 -2 -3t-1 -3q-11 -15 -28.5 -39.5t-37.5 -47t-39.5 -39t-34.5 -16.5q-20 0 -32.5 12t-12.5 32
q0 14 10.5 29t18.5 22q82 89 144 199t103.5 231t62 247t20.5 246q0 124 -23 247.5t-66 241.5t-105 228t-139 206q-6 8 -16 23.5t-10 26.5z" />
    <glyph glyph-name="asterisk" unicode="*" 
d="M502 1612q16 0 25.5 -5t14 -12.5t5.5 -17t1 -18.5l-13 -181q1 0 2 1q23 14 52 32t56.5 33.5t49.5 26t32 10.5q17 0 31.5 -12.5t14.5 -32.5q0 -11 -18.5 -27.5t-45.5 -34t-58 -35t-57 -30.5l152 -87l-1 1q28 -11 28 -43q0 -21 -13.5 -31.5t-32.5 -10.5q-8 0 -25 5
q-23 18 -60 38.5t-73 38.5l-21 12v-177q0 -7 -3 -16t-8.5 -16.5t-14 -13t-20.5 -5.5q-26 0 -35 17.5t-9 33.5v172q-23 -14 -50.5 -30t-53.5 -29.5t-47 -22.5t-31 -9q-20 0 -32 11.5t-12 30.5q0 32 29 43l-1 -1l155 90l-21 11q-33 18 -68 38.5t-68 38.5q-11 6 -18.5 14.5
t-7.5 25.5q0 20 15 32.5t32 12.5q8 0 28.5 -9.5t46 -24t53.5 -31.5t51 -31v176q0 20 10 34.5t34 14.5z" />
    <glyph glyph-name="plus" unicode="+" horiz-adv-x="1205" 
d="M519 1202q0 10 8.5 19t20.5 9h31q11 0 20 -9t9 -19v-383h373q12 0 21 -9t9 -21v-29q0 -12 -9 -21t-21 -9h-373v-381q0 -12 -9 -21t-20 -9h-31q-12 0 -20.5 9t-8.5 21v381h-374q-12 0 -21 9t-9 21v29q0 12 9 21t21 9h374v383z" />
    <glyph glyph-name="comma" unicode="," horiz-adv-x="516" 
d="M277 147q15 0 29.5 -14t14.5 -31q0 -3 -12 -24t-30.5 -51t-41 -64t-43.5 -63.5t-37.5 -48.5t-23.5 -19q-17 0 -30.5 14t-13.5 31q0 8 12.5 32.5t31 55.5t39.5 63.5t37 57.5l16 24l8 11q8 11 20 18.5t24 7.5z" />
    <glyph glyph-name="hyphen" unicode="-" horiz-adv-x="393" 
d="M293 364q18 0 34 -12.5t16 -34.5q0 -29 -15.5 -36.5t-36.5 -7.5h-199q-19 0 -33.5 14t-14.5 32q0 27 13.5 36t34.5 9h201z" />
    <glyph glyph-name="period" unicode="." horiz-adv-x="516" 
d="M254 141q31 0 53 -22.5t22 -53.5t-22 -55t-53 -24q-15 0 -29 7t-24.5 18t-17 25.5t-6.5 28.5q0 13 6.5 27t17.5 24.5t25 17.5t28 7z" />
    <glyph glyph-name="slash" unicode="/" horiz-adv-x="696" 
d="M707 1611q11 -4 22 -14.5t11 -25.5q0 -3 -15 -41.5t-41 -104.5t-61 -154.5t-76.5 -191.5t-87 -215.5t-91.5 -226.5t-90.5 -224t-84.5 -208.5t-73.5 -181t-56.5 -139.5v1l-39 -100q-5 -13 -17 -21t-26 -8q-18 0 -32 8t-14 32q0 3 20.5 56.5t56 142.5t83 206.5t100.5 248
t108.5 268t107.5 266.5l157 389q20 50 42 103t42 104q5 12 18.5 21t26.5 11z" />
    <glyph glyph-name="zero" unicode="0" horiz-adv-x="1034" 
d="M153 436q0 -73 27.5 -137.5t75.5 -113t112.5 -76.5t137.5 -28q75 0 140 27.5t113 75.5t75.5 113t27.5 139q0 75 -27 140t-75 113.5t-113 76t-141 27.5q-75 0 -139.5 -28t-112 -76t-74.5 -113t-27 -140zM58 436q0 93 35 175t96 143t142.5 96.5t174.5 35.5q96 0 178 -34.5
t142.5 -95.5t95 -143t34.5 -177q0 -93 -35 -175t-96 -143t-143 -96.5t-176 -35.5q-92 0 -173.5 35.5t-142.5 97t-96.5 143.5t-35.5 174z" />
    <glyph glyph-name="one" unicode="1" horiz-adv-x="498" 
d="M292 44q0 -21 -13.5 -34.5t-34.5 -13.5q-48 0 -48 48v783q0 21 16.5 35t35.5 14q14 0 23 -4.5t13.5 -12t6 -16.5t1.5 -18v-781z" />
    <glyph glyph-name="two" unicode="2" horiz-adv-x="805" 
d="M330 94h234q23 0 35.5 -9t12.5 -37q0 -21 -13.5 -34.5t-34.5 -13.5h-330q-19 0 -36 11.5t-17 38.5l2 7q4 10 7.5 17.5t7.5 11.5l261 306q19 23 40 51.5t39 59t29.5 61.5t11.5 60q0 43 -19.5 74.5t-50 52.5t-69.5 31.5t-78 10.5q-44 0 -85.5 -10.5t-76 -32.5t-58.5 -55
t-33 -79q-3 -17 -12.5 -30.5t-35.5 -13.5q-16 0 -31 15.5t-15 35.5q13 64 45 113t78.5 83t103.5 51.5t120 17.5q57 0 113 -16t100 -48t71.5 -80.5t27.5 -114.5q0 -44 -12.5 -83.5t-33 -75.5t-46 -69t-51.5 -63h1z" />
    <glyph glyph-name="three" unicode="3" horiz-adv-x="813" 
d="M247 510q0 10 14 31t35.5 48t47.5 56.5t50 56t43.5 47t28.5 29.5h-331q-48 0 -48 47q0 26 11 36.5t37 10.5h426q24 0 38.5 -9t14.5 -36q0 -11 -12 -30.5t-31 -43.5t-42 -50.5t-44.5 -50.5t-39.5 -42.5t-26 -27.5q63 0 120 -17t100 -50.5t68.5 -85t25.5 -120.5
q0 -77 -31.5 -137.5t-84 -101.5t-120 -62.5t-138.5 -21.5q-93 0 -170.5 34.5t-152.5 114.5q-5 10 -5 20q0 21 13 34.5t34 13.5q18 0 29.5 -9t20.5 -24l-1 1q19 -25 46.5 -42t59 -27.5t64 -15.5t62.5 -5q51 0 100.5 14.5t89 43t64 71t24.5 99.5q0 47 -19 81t-50.5 55.5
t-71.5 32t-82 10.5q-31 0 -62 -8.5t-63 -8.5q-23 0 -32.5 6.5t-9.5 32.5z" />
    <glyph glyph-name="four" unicode="4" horiz-adv-x="940" 
d="M601 238v450q0 19 14 35.5t35 16.5q12 0 21 -5.5t15 -13.5t9 -17.5t3 -17.5v-448h169q25 0 37.5 -9.5t12.5 -37.5t-12 -37.5t-38 -9.5h-169v-237q0 -23 -16.5 -35.5t-34.5 -12.5q-26 0 -36 12.5t-10 35.5v237h-490q-10 0 -19.5 1t-17 5.5t-12 13.5t-4.5 25q0 10 4.5 23.5
t9.5 22.5l334 612q8 11 18.5 19.5t16.5 11.5q9 0 18.5 -4t18 -10.5t13.5 -14.5t5 -15q0 -4 -15.5 -35t-40.5 -79t-57 -108t-65.5 -121.5t-64.5 -119t-55 -100.5l-14 -25l-5 -8h422z" />
    <glyph glyph-name="five" unicode="5" horiz-adv-x="842" 
d="M652 872q48 0 48 -47q0 -26 -13.5 -36.5t-34.5 -10.5h-440q0 -30 -0.5 -55t-1.5 -49t-1.5 -49.5t-0.5 -55.5q94 52 208 52q67 0 127 -20.5t105.5 -59.5t72 -95t26.5 -127q0 -75 -29 -136t-78.5 -104.5t-114 -67t-134.5 -23.5q-32 0 -71.5 6.5t-79 19t-74.5 30t-57 40.5
l-4 4q-8 6 -13 14.5t-5 21.5q0 6 4 14.5t10 16t14 13t17 5.5q7 0 17 -4.5t22 -11.5q15 -9 37.5 -22t51 -25t60.5 -20.5t67 -8.5q52 0 99.5 16t84 46t58.5 73.5t22 98.5q0 50 -19.5 90t-52 67.5t-76 42t-91.5 14.5q-26 0 -57.5 -6t-63 -17.5t-59 -28t-46.5 -37.5
q-4 -2 -13.5 -6t-14.5 -4q-26 0 -35.5 12t-9.5 35l6 344q1 17 11 34t36 17h486z" />
    <glyph glyph-name="six" unicode="6" horiz-adv-x="1034" 
d="M153 436q0 -73 27.5 -137.5t75.5 -113t112.5 -76.5t137.5 -28q75 0 140 27.5t113 75.5t75.5 113t27.5 139q0 75 -27 140t-75 113.5t-113 76t-141 27.5q-75 0 -139.5 -28t-112 -76t-74.5 -113t-27 -140zM688 1229q0 -6 -13.5 -26t-36.5 -49.5t-52.5 -65t-60.5 -73
t-62.5 -74.5t-57.5 -68q25 6 50 9.5t51 3.5q95 0 177 -35t143 -96t95.5 -143t34.5 -176q0 -93 -35 -175t-96 -143t-143 -96.5t-176 -35.5q-92 0 -173.5 35.5t-142.5 97t-96.5 143.5t-35.5 174q0 96 37 175t94 148l103 125l310 373q7 8 18 12t19 6q16 -2 32.5 -13.5
t16.5 -32.5z" />
    <glyph glyph-name="seven" unicode="7" horiz-adv-x="729" 
d="M174 -156q-21 0 -33.5 11.5t-12.5 33.5q0 3 13.5 36t36 85.5t52.5 120.5t63 142t66.5 149.5t64 143t55.5 123t40 89.5h-404q-21 0 -35 9t-14 38q0 28 12.5 37.5t36.5 9.5h467q20 0 38 -8t18 -37q0 -5 -14 -39t-37.5 -89t-54.5 -125.5t-65 -147t-69 -155t-66.5 -149
t-57.5 -128t-42 -93.5l-12 -26q-2 -5 -7.5 -10t-12 -10t-13.5 -8t-13 -3z" />
    <glyph glyph-name="eight" unicode="8" horiz-adv-x="1034" 
d="M728 887q0 43 -19.5 74t-51 50t-70.5 28t-79 9t-79.5 -8.5t-71 -27.5t-51 -50t-19.5 -75t19.5 -75.5t50.5 -52t70 -30t79 -9.5q39 0 79 9.5t71.5 30t51.5 52t20 75.5zM161 357q0 -71 30 -123t78.5 -86t110.5 -50.5t126 -16.5t126.5 16.5t112 50.5t79.5 86t30 123
t-30.5 122t-80 84t-111.5 48.5t-126 15.5q-63 0 -125 -16t-110.5 -49t-79 -84t-30.5 -121zM67 357q0 60 18 111.5t49.5 92.5t75 72t95.5 50q-52 33 -84 82t-32 120q0 67 28.5 115.5t74 79.5t102.5 45.5t114 14.5q58 0 114.5 -14.5t100.5 -45t71.5 -79t27.5 -116.5
q0 -70 -31.5 -119t-82.5 -83q52 -19 96.5 -49t76 -71.5t49.5 -93t18 -112.5q0 -94 -38 -163.5t-100.5 -115t-142 -68t-161.5 -22.5q-83 0 -162 22.5t-140.5 68t-99 115t-37.5 163.5z" />
    <glyph glyph-name="nine" unicode="9" horiz-adv-x="1034" 
d="M862 436q0 73 -28 137.5t-76.5 113t-113.5 76.5t-138 28q-74 0 -138.5 -28t-112 -76t-75 -112.5t-27.5 -138.5q0 -75 27 -140.5t74.5 -113.5t112 -76t139.5 -28t140 28t113 76.5t75.5 114t27.5 139.5zM476 -311l-28 -13q-19 0 -36.5 13t-17.5 33q0 10 21.5 40t53.5 70
t69.5 84.5t70.5 83.5q-53 -14 -103 -14q-95 0 -177 34.5t-142 95.5t-94.5 143t-34.5 177q0 93 35 175t95.5 143t142.5 96.5t175 35.5t174.5 -35.5t143 -97t97 -143.5t35.5 -174q0 -87 -30 -163t-84 -140z" />
    <glyph glyph-name="colon" unicode=":" horiz-adv-x="516" 
d="M254 528q31 0 53 -22.5t22 -53.5q0 -32 -22 -54.5t-53 -22.5q-14 0 -28 6.5t-25 17.5t-17.5 25t-6.5 28q0 15 6.5 28.5t17 24t24.5 17t29 6.5zM254 141q31 0 53 -22.5t22 -53.5t-22 -55t-53 -24q-15 0 -29 7t-24.5 18t-17 25.5t-6.5 28.5q0 13 6.5 27t17.5 24.5t25 17.5
t28 7z" />
    <glyph glyph-name="semicolon" unicode=";" horiz-adv-x="516" 
d="M252 528q32 0 54.5 -22.5t22.5 -53.5q0 -32 -22.5 -54.5t-54.5 -22.5q-14 0 -27.5 6.5t-24 17.5t-17.5 25t-7 28q0 15 6.5 28.5t17 24t24 17t28.5 6.5zM109 -101q0 20 6 30t15.5 13.5t21.5 2.5t23 -3h1q19 0 24.5 20.5t5.5 46.5q0 5 -0.5 9t-0.5 8v41q0 32 8.5 53
t38.5 21q29 0 38 -12t9 -36v-77q0 -28 -4 -56.5t-16.5 -51.5t-35 -37.5t-59.5 -14.5q-6 0 -18 1t-25 5.5t-22.5 13t-9.5 23.5z" />
    <glyph glyph-name="less" unicode="&#x3c;" horiz-adv-x="1706" 
d="M1392 1110q17 5 31 -2t14 -23v-35q0 -6 -5.5 -14.5t-11.5 -12.5l-1008 -408l649 -264l359 -146q6 -4 11.5 -12t5.5 -15v-32q0 -16 -12.5 -24.5t-27.5 -2.5l-315 127q-204 83 -406 165.5t-406 167.5q-7 4 -12.5 12t-5.5 16v16q0 6 5.5 14.5t12.5 12.5z" />
    <glyph glyph-name="equal" unicode="=" horiz-adv-x="1706" 
d="M242 458q0 10 9 19t21 9h1146q11 0 20 -9t9 -19v-35q0 -13 -9 -20.5t-20 -7.5h-1146q-12 0 -21 7.5t-9 20.5v35zM242 804q0 12 9 21t21 9h1146q11 0 20 -9t9 -21v-31q0 -12 -9 -21t-20 -9h-1146q-12 0 -21 9t-9 21v31z" />
    <glyph glyph-name="greater" unicode="&#x3e;" horiz-adv-x="1706" 
d="M252 1084q0 16 14 23t31 2q193 -80 381.5 -157t381.5 -155h-1l55 -22l306 -125q6 -4 11.5 -12.5t5.5 -14.5v-16q0 -8 -5.5 -16t-11.5 -12q-276 -113 -563.5 -230.5t-564.5 -229.5q-15 -6 -27.5 2.5t-12.5 24.5v32q0 7 5.5 15t12.5 12q254 103 502.5 205t503.5 205
q-63 25 -125.5 50.5t-125.5 51.5l-218 88q-134 54 -268.5 108.5t-268.5 109.5q-7 4 -12.5 12.5t-5.5 14.5v34z" />
    <glyph glyph-name="question" unicode="?" horiz-adv-x="1143" 
d="M463 141q31 0 54 -22.5t23 -53.5t-23 -55t-54 -24q-15 0 -28.5 7t-24 18t-17 25.5t-6.5 28.5q0 13 7 27t17.5 24.5t24 17.5t27.5 7zM461 264q-29 0 -36.5 14t-7.5 35v184q0 29 2.5 59t13.5 61q16 44 54.5 80.5t82.5 71.5h-1q32 26 65.5 56t61 66.5t45 80t17.5 97.5
q0 63 -20.5 113.5t-58 86t-89 55t-113.5 19.5q-43 0 -78 -13.5t-64.5 -36.5t-53.5 -53.5t-45 -63.5q-8 -12 -17 -22.5t-29 -10.5q-18 0 -30 14.5t-12 30.5q0 11 3.5 21t8.5 20q50 98 131.5 152.5t194.5 54.5q80 0 147.5 -27t116.5 -75t76.5 -115t27.5 -148q0 -63 -22 -120
t-57.5 -107t-80.5 -93t-90 -78l-5 -4q-23 -17 -44.5 -37t-32.5 -43q-8 -17 -10 -43.5t-2 -57.5v-29t1 -29q0 -8 0.5 -14t0.5 -12v-25q0 -51 -9.5 -83t-41.5 -32z" />
    <glyph glyph-name="at" unicode="@" horiz-adv-x="1079" 
d="M680 71q-31 0 -58.5 7t-42.5 30q-25 -20 -55 -28.5t-65 -8.5q-90 0 -133 48.5t-43 135.5q0 51 17 102.5t48.5 92.5t77 66.5t102.5 25.5q35 0 63.5 -9t53.5 -30l1 2l24 17l27 1q17 0 30.5 -12.5t7.5 -35.5v2q-2 -4 -2 -8l-18 -65q-9 -29 -18.5 -63t-17 -66t-12.5 -58
t-5 -39q0 -7 9.5 -9t19.5 -2q43 0 76 23t55 58t33.5 77.5t11.5 81.5q0 65 -27 112t-71 78t-100.5 45.5t-114.5 14.5q-66 0 -131 -21.5t-116 -59.5q-63 -54 -103 -128t-40 -159q0 -76 28.5 -134.5t77.5 -98.5t113 -60.5t136 -20.5q73 0 136.5 22t128.5 54l1 1q7 7 14.5 8
t11.5 1q6 0 14 -6t15 -14t12 -16.5t5 -13.5q0 -10 -1.5 -16t-11.5 -16q-29 -26 -69 -44.5t-83.5 -30t-87.5 -17t-81 -5.5q-92 0 -175 26t-145.5 77t-99.5 127t-37 177q0 103 39 188.5t106 146.5t156 94.5t189 33.5q75 0 148 -22.5t131 -66.5t93.5 -108.5t35.5 -148.5
q0 -59 -19.5 -119t-56 -108t-89.5 -78t-119 -30zM459 167q36 0 60.5 18.5t41 47.5t27 63t17.5 66q1 5 2.5 9t2.5 9q-9 30 -30.5 48t-52.5 18q-34 0 -61.5 -17.5t-46.5 -45.5t-29 -61.5t-10 -65.5q0 -38 20.5 -63.5t58.5 -25.5z" />
    <glyph glyph-name="A" unicode="A" horiz-adv-x="1976" 
d="M432 405h1076q-68 136 -134.5 268t-132.5 264t-133 264.5t-135 268.5zM384 312l-264 -520q-2 -3 -7.5 -8.5t-11.5 -10t-12 -8t-10 -3.5q-20 0 -34.5 13.5t-14.5 35.5q0 2 10.5 25t28.5 59.5t41 82t47.5 94t48.5 95.5t44 86l30 59h-132q-22 0 -35.5 13.5t-13.5 34.5
q0 28 13.5 36.5t35.5 8.5h180l600 1175q3 8 13.5 22t29.5 14q22 0 34 -11.5t18 -24.5l-1 1q9 -18 39.5 -78.5t76 -151t103 -204.5t120.5 -238.5t128.5 -254t126.5 -251t114.5 -229t94 -187.5t63.5 -127t23 -48q0 -18 -16 -34.5t-41 -16.5q-9 4 -27.5 31.5t-43 70t-52 95.5
t-54.5 106.5t-52 104.5t-44 89q-12 26 -16 36t-9 18h-1172z" />
    <glyph glyph-name="B" unicode="B" horiz-adv-x="1280" 
d="M256 -225q-20 0 -33.5 2.5t-21.5 9.5t-11 20t-3 34v758h-157q-21 0 -34.5 13t-13.5 35q0 15 9.5 24t26 14.5t38 7.5t45.5 2q17 0 35.5 -0.5t34.5 -1.5q2 0 6.5 -0.5t7.5 -0.5h2v865q0 16 7.5 26.5t18 15.5t22.5 7t21 2h377q122 0 230.5 -32t189.5 -96.5t128.5 -162.5
t47.5 -231q0 -78 -24 -147.5t-67 -128t-101 -103t-127 -72.5q50 -30 89.5 -71.5t66.5 -92t41.5 -107.5t14.5 -118q0 -125 -39.5 -214t-110 -146t-168 -84t-212.5 -27h-336zM283 599v-731h260q45 0 92 2t95 11q70 13 125 45t93 79t58 107.5t20 131.5q0 82 -24.5 148t-71 112
t-112.5 70.5t-148 24.5h-387zM283 1512v-821h356q51 0 103 2t97 15q65 17 119 52.5t93 85t60.5 110t21.5 128.5q0 103 -37.5 182.5t-102.5 134t-151.5 83t-185.5 28.5h-373z" />
    <glyph glyph-name="C" unicode="C" horiz-adv-x="1741" 
d="M1646 1348q0 -16 -11.5 -30.5t-31.5 -14.5q-11 0 -20.5 5t-16.5 10q-32 22 -69 47.5t-76 49.5t-77.5 44.5t-72.5 32.5q-59 18 -127.5 30t-131.5 12q-116 0 -222.5 -30t-199.5 -84.5t-169 -130.5t-130.5 -169.5t-84 -200.5t-29.5 -223q0 -113 30.5 -219t85.5 -199
t131.5 -169.5t169.5 -131.5t199 -85.5t219 -30.5q304 0 536 193l10 7.5t13 9t14 8t13 3.5q23 0 34 -13.5t11 -31.5q0 -16 -6.5 -25t-14.5 -17q-52 -52 -127 -94.5t-158.5 -72.5t-168 -46t-156.5 -16q-126 0 -243.5 34t-220.5 95t-188.5 147t-147 189t-95.5 221t-34 244
q0 128 33.5 247t94 222t145.5 188t188 145.5t221.5 94t246.5 33.5q81 0 162.5 -15.5t159 -45t149 -72t133.5 -96.5l-1 1q19 -16 31 -40v-10z" />
    <glyph glyph-name="D" unicode="D" horiz-adv-x="1839" 
d="M290 -132h421q78 0 159.5 7t160.5 27v-1q133 37 243 114t188.5 183t121.5 233.5t43 264.5q0 150 -49.5 282t-138 236t-211 175.5t-267.5 99.5q-87 15 -174.5 20t-172.5 5h-324v-1646zM193 1557q0 16 7.5 26.5t18.5 15.5t23 7t20 2h379q66 0 138 -4t145 -13.5t142.5 -26.5
t131.5 -44q121 -56 218 -142t164.5 -193.5t104 -231.5t36.5 -257q0 -148 -44 -286.5t-126 -255t-198 -203t-261 -129.5q-49 -15 -102 -24t-107 -14t-107.5 -7t-103.5 -2h-410q-20 0 -33.5 2.5t-21.5 9.5t-11 20t-3 34v1716z" />
    <glyph glyph-name="E" unicode="E" horiz-adv-x="1612" 
d="M189 312h-157q-21 0 -34.5 13.5t-13.5 34.5q0 28 13.5 36.5t34.5 8.5h157v1152q0 16 7.5 26.5t18.5 15.5t22.5 7t20.5 2h1148q19 0 33.5 -14.5t14.5 -34.5q0 -25 -14.5 -35t-33.5 -10h-1120v-1109h1153q20 0 34 -14t14 -34q0 -25 -14 -35t-34 -10h-1153v-444h1120
q16 0 32 -12t16 -32q0 -27 -11 -38t-37 -11h-1148q-20 0 -33.5 2.5t-21.5 9.5t-11 20t-3 34v471z" />
    <glyph glyph-name="F" unicode="F" horiz-adv-x="1554" 
d="M189 312h-157q-21 0 -34.5 13.5t-13.5 34.5q0 28 13.5 36.5t34.5 8.5h157v1152q0 16 7 26.5t17 15.5t22 7t21 2h1150q19 0 33.5 -14.5t14.5 -34.5q0 -25 -14.5 -35t-33.5 -10h-1120v-1109h1153q20 0 34 -14t14 -34q0 -25 -14 -35t-34 -10h-1153v-496q0 -22 -14 -36
t-36 -14q-26 0 -36.5 14t-10.5 36v496z" />
    <glyph glyph-name="G" unicode="G" horiz-adv-x="1931" 
d="M772 320q-20 0 -34.5 13t-14.5 33q0 29 12 37.5t37 8.5h1039q21 0 36.5 -9.5t15.5 -38.5q0 -16 -11 -40t-22 -44q-1 -2 -2 -3.5t-2 -3.5q-1 -3 -2 -5l1 1l-7 -13q-62 -113 -146.5 -203.5t-187.5 -154t-221.5 -98t-248.5 -34.5q-126 0 -243.5 34t-220.5 95t-188.5 147
t-147 189t-95.5 221t-34 244q0 128 33.5 247t94 222t145.5 188t188 145.5t221.5 94t246.5 33.5q69 0 146.5 -13.5t153 -39t144.5 -63.5t122 -86q8 -8 15.5 -20.5t12.5 -26.5q0 -17 -12 -32t-35 -17q-17 8 -22.5 12t-10.5 7q-62 45 -120 79.5t-119.5 58.5t-128.5 36.5
t-146 12.5q-116 0 -222.5 -30t-199.5 -84.5t-169 -130.5t-130.5 -169.5t-84 -200.5t-29.5 -223q0 -113 30.5 -219t85.5 -199t132 -170t169.5 -132.5t198.5 -86t219 -30.5q124 0 234 31.5t202.5 90.5t167 145t128.5 194h-974z" />
    <glyph glyph-name="H" unicode="H" horiz-adv-x="1731" 
d="M239 1616q23 0 35 -14t12 -35v-1162h1125v1162q0 21 13 35t35 14t34.5 -14t12.5 -35v-1751q0 -22 -13 -36t-36 -14q-28 0 -37 14t-9 36v496h-1125v-496q0 -22 -13.5 -36t-35.5 -14q-26 0 -36 14t-10 36v496h-101q-23 0 -37 13.5t-14 34.5q0 30 14 37.5t37 7.5h101v1162
q0 19 14 34t34 15z" />
    <glyph glyph-name="I" unicode="I" horiz-adv-x="512" 
d="M205 1567q0 21 13 35t36 14q29 0 36.5 -14t7.5 -35v-1751q0 -22 -13.5 -36t-34.5 -14q-30 0 -37.5 14t-7.5 36v1751z" />
    <glyph glyph-name="J" unicode="J" horiz-adv-x="1788" 
d="M1491 645q0 -63 -3.5 -135t-15 -145t-32 -142t-53.5 -125q-51 -81 -121 -143.5t-152 -105t-173 -65t-185 -22.5q-119 0 -231.5 37t-206.5 105.5t-162.5 164t-98.5 212.5q-1 1 -1 2q-2 5 -3 12.5t-1 10.5q0 18 13.5 31.5t31.5 13.5q21 0 32.5 -15t16.5 -30
q30 -102 88.5 -185t140 -141.5t183.5 -90.5t219 -32q31 0 66.5 5t71.5 13.5t71 20t65 23.5h-1q114 59 182.5 142t104.5 182t47.5 211.5t11.5 231.5v883q0 21 13.5 35t35.5 14q30 0 38 -14t8 -35v-924z" />
    <glyph glyph-name="K" unicode="K" horiz-adv-x="1714" 
d="M289 -184q0 -22 -13.5 -36t-36.5 -14q-25 0 -35.5 14t-10.5 36v1751q0 19 14.5 34t33.5 15q23 0 35.5 -14t12.5 -35v-939q74 57 168.5 129.5t199 152t213.5 162.5t212 161.5t195 147.5t161.5 121t111.5 83t46 33q12 0 22 -5.5t16.5 -14.5t10.5 -19.5t4 -19.5l-1315 -1013
l1305 -689q8 -5 15.5 -16.5t10.5 -19.5q0 -19 -12.5 -36t-32.5 -17q-6 0 -52.5 22.5t-120.5 61t-170.5 89.5t-203 108t-218 116.5t-215.5 114.5t-194.5 102.5t-156.5 81.5v-648z" />
    <glyph glyph-name="L" unicode="L" horiz-adv-x="1554" 
d="M287 -132h1120q17 0 33 -12t16 -32q0 -27 -11 -38t-38 -11h-1147q-20 0 -33.5 2.5t-21.5 9.5t-11 20t-3 34v1726q0 19 14.5 34t33.5 15q23 0 35.5 -14t12.5 -35v-1699z" />
    <glyph glyph-name="M" unicode="M" horiz-adv-x="1896" 
d="M1576 1433l-599 -779q-7 -9 -18.5 -18t-28.5 -9q-21 0 -29 6.5t-14 17.5l-2 4q-150 196 -297 387.5t-299 389.5v-1616q0 -22 -13.5 -36t-36.5 -14q-26 0 -35 15t-9 35v1749q0 9 1 18.5t5.5 17t13.5 12.5t24 5q20 0 30 -9t17 -19l644 -841q162 211 321.5 418.5
t321.5 418.5q8 11 19.5 21.5t31.5 10.5q27 0 36 -17.5t9 -35.5v-1749q0 -22 -13.5 -36t-35.5 -14q-29 0 -36.5 14t-7.5 36v1617z" />
    <glyph glyph-name="N" unicode="N" horiz-adv-x="1911" 
d="M289 1435v-1619q0 -22 -13.5 -36t-36.5 -14q-26 0 -35 15t-9 35v1749q0 9 1 18.5t5.5 17t13.5 12.5t24 5q6 0 15.5 -2.5t20.5 -10.5l14 -20v1l1300 -1637v1618q0 15 11 33t34 18q27 0 38.5 -13t11.5 -38v-1747q0 -9 -1.5 -19t-6.5 -17.5t-14.5 -12.5t-24.5 -5
q-17 0 -26.5 8t-18.5 19l-6 8l1 -2z" />
    <glyph glyph-name="O" unicode="O" horiz-adv-x="2066" 
d="M180 696q0 -114 30 -220t85 -199t131.5 -169.5t169.5 -131.5t199 -85t221 -30t222 30t199.5 84t168.5 130.5t130 169t83.5 199.5t29.5 222q0 117 -29 224.5t-82.5 200.5t-129 169.5t-168 130.5t-200 83.5t-224.5 29.5q-116 0 -223 -30t-199.5 -85t-169 -131.5
t-130.5 -169.5t-84 -200t-30 -222zM86 696q0 129 33 248.5t93.5 222.5t145 188t188 145t222.5 93t248 33q130 0 249 -33t222 -93t187.5 -144.5t144.5 -188t92.5 -223t32.5 -248.5q0 -128 -33 -246.5t-93.5 -222t-145.5 -188.5t-188 -145.5t-221.5 -94t-246.5 -33.5
q-127 0 -245.5 33.5t-222 95t-188.5 146.5t-146 188.5t-94.5 221.5t-33.5 245z" />
    <glyph glyph-name="P" unicode="P" horiz-adv-x="1597" 
d="M619 1608q57 0 119.5 -1.5t125 -7.5t124 -17t117.5 -30q100 -39 177 -99t129 -138.5t78.5 -172.5t26.5 -200q0 -41 -6 -85t-16.5 -87.5t-25 -85.5t-32.5 -79q-63 -113 -155.5 -179t-201 -100t-227 -43.5t-233.5 -9.5h-331v-457q0 -22 -14 -36t-35 -14q-24 0 -36 15
t-12 35v1741q0 16 7.5 26.5t18.5 15.5t23 7t20 2h359zM288 1514v-1148h355q98 0 199.5 9t195 37t173.5 80t136 139v-1q39 69 57 149t18 161q0 116 -27.5 204t-77.5 152t-119.5 106t-153.5 67t-180 35t-198 10h-378z" />
    <glyph glyph-name="Q" unicode="Q" horiz-adv-x="2066" 
d="M1283 -72v-1q-30 36 -66.5 79t-77.5 87.5t-85 86t-87.5 73.5t-86 51.5t-79.5 19.5q-22 0 -44 -6.5t-42.5 -16.5t-37.5 -21t-30 -21q-16 -12 -30 -19.5t-25 -7.5q-18 0 -32 10t-14 32q0 18 15.5 35.5t40 33.5t54.5 29.5t59 23t53.5 15t38.5 5.5q48 0 99 -21t101.5 -56
t99.5 -80.5t94.5 -93.5t85.5 -96t72 -87v1l13 -14q3 -5 8 -11t8 -9q109 53 194.5 131t144.5 174.5t90.5 208.5t31.5 233q0 117 -29 225t-82.5 201t-129 169t-168 130t-200 83.5t-224.5 29.5q-116 0 -222.5 -30t-199.5 -85t-169.5 -131.5t-130.5 -169.5t-84 -200t-30 -222
q0 -114 30 -220t85 -199t131.5 -169.5t169.5 -131.5t199 -85t221 -30q142 0 283 50zM1740 -369q-59 0 -111 17.5t-98 46.5t-87 66t-79 75q-83 -32 -171 -51t-178 -19q-127 0 -245.5 33.5t-222 95t-188.5 146.5t-146 188.5t-94.5 221.5t-33.5 245q0 129 33 248t93.5 222
t145 188t188 145.5t222.5 93.5t248 33q130 0 249 -33t222.5 -93t188 -144.5t144 -188t92.5 -222.5t33 -249q0 -133 -33 -254t-96 -225t-154 -189.5t-206 -147.5q31 -31 63.5 -59.5t67.5 -50t74.5 -34.5t84.5 -13q43 0 78 16.5t59 28.5q14 8 25 13t19 5q20 0 32 -14t12 -35
q-9 -26 -38.5 -46t-65.5 -33.5t-71 -20t-56 -6.5z" />
    <glyph glyph-name="R" unicode="R" horiz-adv-x="1694" 
d="M803 450q-11 0 -18 -0.5t-12 -0.5l52 -36q52 -35 116.5 -77.5t134 -89.5t141.5 -95t139 -93.5t126.5 -86.5t104 -73t71.5 -52.5t29 -25.5q0 -22 -16.5 -39t-36.5 -17q-2 0 -29.5 18t-74 48.5t-108.5 72t-132.5 88.5t-146 97.5t-149.5 100t-142.5 95.5t-125.5 84l-143 95
q-12 8 -20 16.5t-8 28.5q0 27 28 36t65 9q14 0 30.5 -1t30.5 -2q5 0 10 -0.5t9 -0.5q7 -1 10.5 -1h5.5q30 0 64 1t69 2.5t69.5 4.5t64.5 8h-1q92 18 166 57.5t126 99t80 138t28 173.5q0 82 -24.5 157t-70 135.5t-110.5 104t-146 63.5q-59 13 -121 16.5t-119 3.5h-530v-1696
q0 -22 -13.5 -36t-35.5 -14q-23 0 -35 15t-12 35v1741q0 16 7.5 26.5t18 15.5t22.5 7t21 2h582q139 0 259.5 -33t209 -103t139.5 -179t51 -261q0 -109 -26.5 -194t-74 -149.5t-113 -110t-143.5 -74t-165 -41.5t-178 -13z" />
    <glyph glyph-name="S" unicode="S" horiz-adv-x="1679" 
d="M1569 1276q0 -19 -16.5 -33.5t-39.5 -14.5q-17 8 -24 14t-13 14q-56 69 -134.5 120t-167.5 85t-183 50.5t-180 16.5q-67 0 -138 -10t-139.5 -31t-129.5 -54.5t-107 -81t-73 -109.5t-27 -141q0 -64 20.5 -114t55.5 -89t82 -68t100.5 -50t110 -35t110.5 -23
q24 -4 50.5 -7.5t52.5 -6.5h-1l34 -4q72 -8 148.5 -19.5t150 -31t139.5 -50t115.5 -78t78.5 -114.5t29 -158q0 -85 -26 -154.5t-71.5 -124t-107 -94.5t-131.5 -66t-145 -39t-148 -13q-149 0 -282 39.5t-253 128.5l1 -1l-18 13.5t-29 24.5t-27 30t-12 30q0 20 13.5 32.5
t32.5 12.5q18 0 28 -6.5t18 -14.5h-1q52 -51 114 -88t130 -61t140 -35.5t143 -11.5q60 0 123.5 10t123 31t112 53t92 76t62.5 100.5t23 126.5q0 73 -25.5 126.5t-69 91t-101.5 61.5t-122 39.5t-131 24.5t-129 16l-116 14q-69 10 -138.5 25.5t-134 40t-121 59.5t-98 84.5
t-65.5 115t-24 150.5q0 99 31.5 176t85.5 135t126 98.5t153 65.5t166.5 36t166.5 11q87 0 173 -13t168 -40.5t157.5 -70t141.5 -100.5l8 -7h-1q26 -22 50.5 -46.5t38.5 -57.5z" />
    <glyph glyph-name="T" unicode="T" horiz-adv-x="1421" 
d="M697 -234q-29 0 -38 14t-9 36v1698h-562q-23 0 -36 13.5t-13 35.5q0 27 13 36t36 9h1222q27 0 37.5 -11.5t10.5 -37.5q0 -20 -15.5 -32.5t-32.5 -12.5h-565v-1698q0 -22 -13.5 -36t-34.5 -14z" />
    <glyph glyph-name="U" unicode="U" horiz-adv-x="1878" 
d="M1677 520q0 -69 -8.5 -144.5t-30.5 -143.5q-26 -71 -69 -133.5t-98.5 -114.5t-121.5 -93.5t-137 -70t-145 -43.5t-146 -15q-111 0 -222 32.5t-208 93.5t-172.5 148t-113.5 196q-23 69 -31.5 143.5t-8.5 144.5v1047q0 21 13.5 35t36.5 14q27 0 36.5 -14t9.5 -35v-1041
q0 -65 8 -135.5t26 -133.5v1q33 -95 98.5 -170t150.5 -126.5t182 -79t195 -27.5q97 0 195.5 26.5t183.5 77.5t150.5 126t97.5 172q21 64 28 132.5t7 136.5v1041q0 21 13 35t35 14q29 0 37.5 -13.5t8.5 -35.5v-1047z" />
    <glyph glyph-name="V" unicode="V" horiz-adv-x="1976" 
d="M965 -90q214 418 427.5 838t427.5 839q2 3 7.5 8t11.5 9.5t12 8t11 3.5q20 0 34.5 -13t14.5 -34q0 -2 -22 -47t-60.5 -121.5t-90 -178.5t-110.5 -218.5t-123 -242t-126.5 -248t-121 -237t-107.5 -209.5q-33 -67 -69 -134.5t-69 -133.5q-5 -9 -13.5 -19t-22.5 -18
q-26 0 -38 11.5t-19 25.5l-130 254q-47 94 -105 208t-120 237.5t-126 250.5t-123 245t-111 221.5t-90.5 181t-61 123t-22.5 47.5q0 8 4 17t10.5 16.5t15.5 12.5t19 5q13 0 26 -11.5t15 -19.5l-2 3z" />
    <glyph glyph-name="W" unicode="W" horiz-adv-x="2370" 
d="M899 -238q-20 0 -31.5 11.5t-17.5 27.5v-2q-9 18 -38.5 79t-73 151t-98.5 203.5t-115 238.5t-122.5 254t-120.5 250.5t-109.5 228.5t-90 188t-60.5 128.5t-22 50.5q0 20 13.5 33.5t33.5 13.5q4 0 10.5 -3.5t13.5 -8.5t12.5 -10t7.5 -8l806 -1672l214 443q-14 28 -46 94.5
t-75 156.5t-94 195.5t-102 211.5t-98.5 205t-84 176t-58.5 124t-22 49q0 20 14.5 33.5t35.5 13.5q1 -1 2 -1h5q8 -3 19 -12.5t18 -20.5l539 -1120q78 159 156 316t156 315l243 496q1 3 6.5 7.5t11.5 9t12.5 7.5t10.5 3q9 0 17 -4.5t15 -11t11 -15t4 -16.5q0 -2 -14.5 -33.5
t-40 -85t-60 -124.5t-73.5 -151.5t-81.5 -167.5t-84.5 -172t-81 -164t-71 -144l-85 -171q29 -63 56.5 -119t55.5 -113q28 -56 50.5 -105.5t50.5 -106.5q137 280 272 555t271 555l280 572q5 5 17.5 13.5t19.5 8.5q23 0 36.5 -14t13.5 -35q0 -2 -16 -35t-43.5 -91t-66 -136.5
t-84 -171t-95.5 -195.5t-102 -209t-103.5 -211.5t-99.5 -203.5q-49 -99 -91.5 -186.5t-75.5 -155.5t-54.5 -113t-28.5 -60q-6 -13 -15.5 -26t-33.5 -13q-20 0 -32.5 12t-19.5 26l-212 449l-220 -449l1 1q-5 -13 -14.5 -26t-33.5 -13z" />
    <glyph glyph-name="X" unicode="X" horiz-adv-x="1698" 
d="M116 -234q-17 0 -32 15t-15 31q0 7 2 16t7 16v-1l687 846l-7 10v-1q-2 2 -2.5 3.5t-5.5 6.5q-27 33 -70.5 86t-96.5 118.5t-111.5 138t-115.5 143.5t-109 137t-91.5 117.5t-63 84t-23.5 38.5q0 17 13 31t32 14q3 0 7.5 -1t9.5 -2.5t9 -2.5t5 -2l683 -843l689 838l27 13
q19 0 31.5 -10.5t20.5 -20.5q1 -2 2 -6t1 -6q-2 -9 -30 -48.5t-74.5 -98.5t-105.5 -132t-122.5 -150.5t-127 -153.5t-116.5 -141v1q-26 -32 -49.5 -59.5t-42.5 -50.5l-42 -50l67 -80q36 -44 83 -100.5t99 -119.5t106 -128.5t105 -128t96 -118.5t79 -99t53.5 -69.5
t20.5 -30.5q0 -10 -5 -19t-13.5 -16t-18 -11t-18.5 -4q-6 3 -29 27.5t-58.5 65t-80.5 94t-95 113.5t-103 124t-103.5 125.5t-96 117.5t-82.5 100v-1q-24 29 -39.5 49.5t-26.5 34.5l-2 2q-1 1 -1 2l-6 -10q-11 -15 -22.5 -30t-22.5 -28v1q-35 -45 -81 -102.5t-97.5 -121.5
t-105.5 -130.5t-105.5 -129t-98 -117.5t-82.5 -96.5t-59.5 -65.5t-29.5 -24z" />
    <glyph glyph-name="Y" unicode="Y" horiz-adv-x="1593" 
d="M781 -234q-28 0 -37 14t-9 36v864l-171 213l-67 83q-50 62 -104 129.5t-105.5 132t-98 123t-81 104t-55 73.5t-20.5 33q0 17 18 31t36 14l25 -11l671 -834q168 209 331.5 413.5t331.5 412.5v-1q2 3 7.5 6.5t11.5 6.5t11.5 5t8.5 2q17 0 32 -14t15 -31q0 -5 -30 -46
t-79 -104t-112.5 -142.5t-130 -162.5t-131.5 -163.5t-117 -144.5l-103 -129v-863q0 -22 -13.5 -36t-34.5 -14z" />
    <glyph glyph-name="Z" unicode="Z" horiz-adv-x="1708" 
d="M1405 1514h-1256q-23 0 -35.5 13.5t-12.5 35.5q0 25 12.5 35t35.5 10h1343q23 0 37.5 -11t14.5 -38q0 -13 -5.5 -23.5t-12.5 -19.5l-1319 -1648h1289q16 0 32 -10.5t16 -33.5q0 -27 -11 -38t-37 -11h-1379q-23 0 -37 8.5t-14 38.5q0 14 9 28.5t14 19.5l-1 -2z" />
    <glyph glyph-name="bracketleft" unicode="[" horiz-adv-x="680" 
d="M334 -410q-20 0 -33 2t-20.5 8.5t-10.5 18.5t-3 33v1905q0 16 6.5 26.5t16.5 15.5t22 7t22 2h178q20 0 35 -14.5t15 -34.5q0 -25 -15 -35t-35 -10h-152v-1832h152q20 0 35 -10t15 -36q0 -21 -16 -33.5t-34 -12.5h-178z" />
    <glyph glyph-name="backslash" unicode="\" horiz-adv-x="696" 
d="M742 -204q0 -24 -14 -32t-31 -8t-27.5 8t-15.5 21l-709 1757q-9 13 -10 18t2 10v1q0 3 2.5 10.5t5.5 9.5l12 13q3 3 11 5.5t11 2.5q11 0 27.5 -10t21.5 -21l128 -317l96 -239q52 -130 109 -270.5t111.5 -275.5t103.5 -257.5t86 -215.5t58.5 -149.5t21.5 -60.5z" />
    <glyph glyph-name="bracketright" unicode="]" horiz-adv-x="680" 
d="M334 1608q20 0 33 -2.5t20.5 -9.5t10.5 -19.5t3 -33.5v-1905q0 -17 -7 -26.5t-17.5 -14.5t-22 -6t-20.5 -1h-179q-20 0 -35 11.5t-15 34.5q0 28 13.5 37t36.5 9h152v1832h-152q-22 0 -36 8t-14 37q0 22 14 35.5t36 13.5h179z" />
    <glyph glyph-name="asciicircum" unicode="^" horiz-adv-x="2048" 
d="M955 1450l-2 -4q2 5 10.5 8.5t11.5 3.5h82q3 0 11 -2.5t11 -5.5l502 -507q7 -8 8 -17t-2 -16.5t-10 -13t-17 -5.5h-52q-3 0 -11 2.5t-11 5.5l-468 465l-470 -465q-4 -3 -11 -5.5t-10 -2.5h-55q-10 0 -17.5 5.5t-10.5 13t-2 16.5t8 17z" />
    <glyph glyph-name="underscore" unicode="_" 
d="M-15 -395q0 13 9 21t20 8h982q12 0 21 -8t9 -21v-45q0 -12 -9 -20.5t-21 -8.5h-982q-11 0 -20 8.5t-9 20.5v45z" />
    <glyph glyph-name="grave" unicode="`" 
d="M596 676q0 -17 -13 -30t-30 -13q-12 0 -22 6.5t-13 10.5l-1 1q-5 7 -15 15l-35.5 35.5l-45.5 45.5t-48 49.5t-43 47.5t-31 39t-12 24q0 20 13.5 31t29.5 11q8 0 18.5 -3.5t18.5 -10.5l32 -33l60 -60t64.5 -67.5t51.5 -60.5t21 -38z" />
    <glyph glyph-name="a" unicode="a" horiz-adv-x="870" 
d="M723 44q0 -21 -9 -34.5t-36 -13.5q-21 0 -35 13.5t-14 34.5v246q-30 -56 -70.5 -110.5t-90 -97.5t-106.5 -69.5t-120 -26.5q-91 0 -146 49t-55 143q0 66 27.5 124.5t73 107t105 86.5t124 64t129 40t121.5 14h9q13 0 29.5 -0.5t30.5 -5.5t23.5 -16.5t9.5 -32.5v-515z
M242 77q50 0 94 20t82.5 54t71 78.5t58 93.5t44 100t29.5 97q-47 -1 -101.5 -11.5t-108.5 -30.5t-104 -49.5t-88.5 -67t-61.5 -83.5t-23 -100q0 -48 30 -74.5t78 -26.5z" />
    <glyph glyph-name="b" unicode="b" horiz-adv-x="811" 
d="M213 165q-1 -20 18 -36t48.5 -27.5t64 -18t64.5 -6.5q49 0 92.5 17t76 47.5t51 72t18.5 91.5t-17.5 90t-48 67.5t-72 42.5t-90.5 15q-55 0 -107.5 -21t-97.5 -50v-284zM213 554q48 26 101.5 42t109.5 16q71 0 129.5 -21.5t100 -61.5t64.5 -97.5t23 -130.5q0 -68 -26 -126
t-71 -100t-104.5 -65.5t-125.5 -23.5q-21 0 -51 4t-62.5 12.5t-64.5 21.5t-57.5 31.5t-41.5 43t-16 54.5v1377q0 22 11.5 35.5t34.5 13.5q27 0 36.5 -16t9.5 -33v-976z" />
    <glyph glyph-name="c" unicode="c" horiz-adv-x="711" 
d="M611 150q21 0 31.5 -16t10.5 -30q0 -16 -15.5 -30.5t-40 -28t-54.5 -24.5t-58 -18.5t-51.5 -12t-34.5 -4.5q-70 0 -133.5 21t-111.5 61t-76 98.5t-28 134.5q0 67 27 124.5t73 98.5t105 64.5t124 23.5q11 0 35.5 -3.5t55 -10t63 -16t59 -22t44 -28t17.5 -32.5
q0 -15 -11.5 -29.5t-34.5 -14.5q-2 1 -5 2l-9 3h1q-9 4 -31 14t-51 20t-62 17.5t-65 7.5q-48 0 -92 -15.5t-77.5 -44t-53.5 -69t-20 -90.5q0 -53 21.5 -94t57.5 -69.5t82.5 -43.5t95.5 -15q31 0 58.5 6.5t51 16t41.5 20l30 17.5h3q8 5 14.5 8t13.5 3z" />
    <glyph glyph-name="d" unicode="d" horiz-adv-x="870" 
d="M677 1579q25 0 35.5 -16.5t10.5 -32.5v-1486q0 -21 -9 -34.5t-36 -13.5q-21 0 -35 13.5t-14 34.5v246q-30 -56 -70.5 -110.5t-90 -97.5t-106.5 -69.5t-120 -26.5q-91 0 -146 49t-55 143q0 48 15 91.5t40.5 81.5t58.5 70.5t69 59.5q89 63 193 95.5t212 35.5v918
q0 22 13 35.5t35 13.5zM242 77q50 0 94 20t82.5 54t71 78.5t58 93.5t44 100t29.5 97q-47 -1 -101.5 -11.5t-108.5 -30.5t-104 -49.5t-88.5 -67t-61.5 -83.5t-23 -100q0 -48 30 -74.5t78 -26.5z" />
    <glyph glyph-name="e" unicode="e" horiz-adv-x="731" 
d="M565 358q-17 75 -73 119.5t-135 44.5q-39 0 -73.5 -11.5t-61.5 -33t-46 -51.5t-27 -67zM145 267q8 -90 67.5 -139t153.5 -49q33 0 61.5 8t51.5 19.5t41 24.5t31 24q14 12 25.5 20t25.5 8q18 0 30.5 -13t12.5 -31q0 -14 -5 -24.5t-13 -18.5q-59 -59 -122 -84.5t-146 -25.5
q-72 0 -129.5 23t-97 64t-61 99t-21.5 129q0 68 23.5 125.5t65 99t99 65t125.5 23.5q59 0 113 -23.5t95 -63t65.5 -93t24.5 -113.5q0 -29 -14 -41.5t-41 -12.5h-461z" />
    <glyph glyph-name="f" unicode="f" horiz-adv-x="694" 
d="M291 598h342q19 0 34 -13t15 -34q0 -26 -15 -35t-34 -9h-342v-827q0 -47 -48 -47q-25 0 -35 14t-10 33v825h-2q-10 -1 -22.5 -1.5t-23.5 -0.5q-19 0 -36.5 2.5t-31 8.5t-22 16t-8.5 25t8 24t21 14t30.5 6.5t35.5 1.5q13 0 26 -0.5t25 -1.5q0 63 -0.5 124t-1.5 124
q0 53 -0.5 104.5t-0.5 103.5v207q0 62 11.5 119.5t40.5 101.5t77 70t122 26q52 0 98.5 -16t81.5 -46.5t55.5 -74t20.5 -98.5l-2 -4q0 -18 -9 -34.5t-37 -16.5q-25 0 -33.5 16t-11.5 31q-8 31 -21 58.5t-32 48t-46 32t-63 11.5q-50 0 -81.5 -19t-49 -50.5t-23.5 -72.5t-6 -86
z" />
    <glyph glyph-name="g" unicode="g" horiz-adv-x="870" 
d="M629 290q-30 -56 -70.5 -110.5t-90 -97.5t-106.5 -69.5t-120 -26.5q-91 0 -146 49t-55 143q0 66 27.5 124.5t73 107t105 86.5t124 64t129 40t121.5 14h9q13 0 29.5 -0.5t30.5 -5.5t23.5 -16.5t9.5 -32.5v-573q0 -75 -20.5 -137t-60.5 -106t-100 -68.5t-138 -24.5
q-91 0 -162 36.5t-116 116.5l1 -2q-10 14 -10 31q0 7 3 15.5t8.5 15.5t14 12t19.5 5q15 0 28 -11.5t26 -27.5q10 -14 26 -31t39.5 -32t57 -25t79.5 -10q56 0 96 19.5t65.5 53.5t37.5 79.5t12 98.5v296zM242 77q50 0 94 20t82.5 54t71 78.5t58 93.5t44 100t29.5 97
q-47 -1 -101.5 -11.5t-108.5 -30.5t-104 -49.5t-88.5 -67t-61.5 -83.5t-23 -100q0 -48 30 -74.5t78 -26.5z" />
    <glyph glyph-name="h" unicode="h" horiz-adv-x="782" 
d="M162 -4q-25 0 -34.5 13.5t-9.5 34.5v353q-8 -3 -16.5 -5.5t-13.5 -2.5q-19 0 -29.5 11t-10.5 29q0 12 7 22.5t17.5 19.5t22.5 16.5t23 13.5v1029q0 22 13.5 35.5t34.5 13.5q27 0 35.5 -17t8.5 -36v-972q45 24 94.5 41t101.5 17q74 0 120.5 -22.5t73 -62t36 -94
t9.5 -118.5v-271q0 -20 -13.5 -34t-33.5 -14q-23 0 -34.5 13.5t-12.5 33.5q0 31 -0.5 65.5t-1 70t-0.5 70v66.5q0 39 -4.5 76t-18.5 65.5t-40.5 46t-71.5 17.5q-54 0 -105 -20t-99 -47v-409q0 -21 -12.5 -34.5t-35.5 -13.5z" />
    <glyph glyph-name="i" unicode="i" horiz-adv-x="356" 
d="M173 1038q29 0 51 -22t22 -52q0 -29 -22 -51t-51 -22t-51 22t-22 51q0 15 6 28t16 23.5t23 16.5t28 6zM219 44q0 -20 -14 -34t-33 -14q-27 0 -36 13.5t-9 34.5v519q0 20 13 34.5t34 14.5q26 0 35.5 -17t9.5 -34v-517z" />
    <glyph glyph-name="j" unicode="j" horiz-adv-x="346" 
d="M160 1038q15 0 28 -6t23 -16.5t16 -23.5t6 -28q0 -29 -22 -51t-51 -22t-51 22t-22 51q0 15 6 28t16 23.5t23 16.5t28 6zM206 -14q0 -65 -15 -125.5t-48 -107.5t-85.5 -75t-127.5 -28q-9 0 -20 1.5t-20 6.5t-15.5 14.5t-6.5 24.5q0 18 5.5 27.5t13.5 14t18.5 5t20.5 0.5
q54 0 90.5 21.5t58 57.5t30.5 82t9 94v564q0 23 13 36t35 13q14 0 23 -5t13.5 -13t6 -17t1.5 -16v-575z" />
    <glyph glyph-name="k" unicode="k" horiz-adv-x="764" 
d="M121 1530q0 22 13.5 35.5t35.5 13.5q26 0 34.5 -17t8.5 -36v-1192l237 164q35 26 73 51t73 51l21 12q22 -2 38.5 -13t16.5 -34q0 -6 -15 -20.5t-40 -34.5t-58 -44t-68 -49t-70.5 -49.5t-65.5 -44.5h28q72 0 115 -10t66.5 -30t31 -52t7.5 -75q0 -14 -0.5 -30.5t-1.5 -33.5
q0 -5 -0.5 -11.5t-0.5 -11.5q-1 -16 -1.5 -33.5t-0.5 -34.5q0 -26 13.5 -42.5t39.5 -16.5q14 0 23.5 8t17.5 18v1q11 14 23.5 24.5t34.5 10.5q11 -8 21.5 -20.5t10.5 -26.5q0 -20 -15 -39.5t-36.5 -34.5t-44.5 -24t-39 -9q-45 0 -73 14.5t-43.5 39.5t-21 56.5t-5.5 66.5
q0 17 0.5 35t2.5 33q0 4 0.5 9t0.5 9q1 8 1.5 17t0.5 17q0 30 -7 47t-20.5 25.5t-35 10.5t-49.5 2q-36 0 -71.5 -1.5t-71.5 -3.5l-37 -2h-5v-181q0 -21 -13 -34.5t-34 -13.5q-25 0 -35 13.5t-10 34.5v1486z" />
    <glyph glyph-name="l" unicode="l" horiz-adv-x="356" 
d="M127 1530q0 20 13 34.5t34 14.5q26 0 35.5 -17t9.5 -36v-1482q0 -20 -14 -34t-33 -14q-27 0 -36 13.5t-9 34.5v1486z" />
    <glyph glyph-name="m" unicode="m" horiz-adv-x="1171" 
d="M220 515q0 -4 -0.5 -7.5t-0.5 -7.5q25 20 54 39.5t59 35.5t60 25.5t59 9.5q66 0 106 -23.5t53 -78.5q27 20 57.5 38.5t62.5 33t65.5 23.5t67.5 9q45 0 75 -11t48 -32.5t25 -53t7 -73.5v-398q0 -21 -13.5 -34.5t-34.5 -13.5q-29 0 -37 12.5t-8 35.5v352q0 22 -1 44t-7 40
t-19 29t-37 11q-29 0 -62 -11.5t-65.5 -29t-63 -39t-55.5 -40.5v-356q0 -21 -13 -34.5t-34 -13.5q-29 0 -37 12.5t-8 35.5v331q0 24 -1 49.5t-7.5 46.5t-21.5 35t-42 14q-25 0 -56.5 -14t-63.5 -35t-62 -45t-52 -43v-339q0 -21 -13 -34.5t-34 -13.5q-29 0 -37 12.5t-8 35.5
v519q0 23 13 36t35 13q14 0 23 -8t14.5 -21.5t7.5 -31t2 -36.5z" />
    <glyph glyph-name="n" unicode="n" horiz-adv-x="797" 
d="M164 -4q-27 0 -36 12.5t-9 35.5v519q0 23 14 36t35 13q14 0 23 -8t14.5 -21t7.5 -30.5t2 -35.5v-5q53 42 113 71t131 29q59 0 98 -19t62 -52t32 -77.5t9 -95.5v-324q0 -21 -13 -34.5t-34 -13.5q-47 0 -47 48v333q0 31 -5.5 57.5t-18.5 45.5t-35 29.5t-55 10.5t-65.5 -12
t-63.5 -30.5t-59 -42t-52 -46.5v-345q0 -21 -13.5 -34.5t-34.5 -13.5z" />
    <glyph glyph-name="o" unicode="o" horiz-adv-x="743" 
d="M363 520q-46 0 -86.5 -17t-70.5 -47t-47 -70.5t-17 -86.5q0 -45 17.5 -85t47.5 -70t70.5 -47.5t85.5 -17.5q46 0 86 17t69 47t46 70t17 86q0 47 -17 87.5t-46 70t-69 46.5t-86 17zM363 612q66 0 123 -24t99 -66.5t66.5 -99.5t24.5 -123q0 -65 -24.5 -121.5t-67 -99.5
t-99.5 -67.5t-122 -24.5q-64 0 -121 25t-99.5 67.5t-67.5 99.5t-25 121q0 65 24.5 122t67 99.5t99.5 67t122 24.5z" />
    <glyph glyph-name="p" unicode="p" horiz-adv-x="729" 
d="M209 119q24 -17 54.5 -27.5t62.5 -10.5q52 0 96.5 20.5t77 55.5t50.5 81t18 98q0 83 -44.5 133.5t-127.5 50.5q-48 0 -96 -16t-91 -41v-344zM161 -367q-28 0 -36 12t-8 35v724q-20 -11 -31 -11q-23 0 -32.5 13t-9.5 30q0 12 7 23.5t17.5 21t23 18t23.5 14.5v26
q0 29 9.5 51t38.5 22q25 0 34.5 -14t11.5 -33q45 22 92 34.5t98 12.5q61 0 109.5 -20.5t82.5 -56.5t52 -86t18 -109q0 -71 -24 -134.5t-68 -111.5t-105 -76t-134 -28q-29 0 -61.5 7.5t-59.5 18.5v-336q0 -21 -13 -34t-35 -13z" />
    <glyph glyph-name="q" unicode="q" horiz-adv-x="870" 
d="M723 -320q0 -21 -9 -34t-36 -13q-19 0 -34 13t-15 34v610q-30 -56 -70.5 -110.5t-90 -97.5t-106.5 -69.5t-120 -26.5q-91 0 -146 49t-55 143q0 66 27.5 124.5t73 107t105 86.5t124 64t129 40t121.5 14h9q13 0 29.5 -0.5t30.5 -5.5t23.5 -16.5t9.5 -32.5v-879zM242 77
q50 0 94 20t82.5 54t71 78.5t58 93.5t44 100t29.5 97q-47 -1 -101.5 -11.5t-108.5 -30.5t-104 -49.5t-88.5 -67t-61.5 -83.5t-23 -100q0 -48 30 -74.5t78 -26.5z" />
    <glyph glyph-name="r" unicode="r" horiz-adv-x="741" 
d="M176 520q-12 0 -25 -4.5t-26.5 -12t-26 -16t-22.5 -16.5q-17 -12 -30.5 -19t-22.5 -7q-15 0 -26.5 10t-16.5 21q0 21 24.5 44.5t58.5 44t67.5 34t51.5 13.5q37 0 60 -12t36.5 -31.5t19 -45t7.5 -51.5q26 24 55.5 49t61.5 45.5t65.5 33t68.5 12.5q74 0 117.5 -45.5
t43.5 -118.5q0 -25 -10 -56t-28.5 -58.5t-44 -46t-56.5 -18.5q-20 0 -30 12.5t-10 29.5t7 23t18 13l10 7l-1 -1q8 5 17.5 12t18 17t14 24t5.5 32q0 38 -20 60t-58 22q-26 0 -59.5 -18.5t-67 -45.5t-64.5 -56t-52 -50v-306q0 -21 -14.5 -34.5t-33.5 -13.5q-30 0 -37 13.5
t-7 34.5v388q0 14 -0.5 29.5t-4 28.5t-11.5 21.5t-22 8.5z" />
    <glyph glyph-name="s" unicode="s" horiz-adv-x="569" 
d="M193 94q19 -7 38 -11t39 -4q15 0 30 3t27 10.5t19.5 18.5t7.5 28q0 16 -8.5 27.5t-22.5 20.5t-32.5 16.5t-37.5 14.5q-30 11 -59.5 24t-53 31.5t-37.5 46t-14 67.5q0 55 22 97.5t58 70.5t82.5 42.5t96.5 14.5q11 0 37.5 -4t54.5 -13.5t49 -24.5t21 -37q0 -20 -12.5 -32
t-32.5 -12q-5 0 -16 3t-20 7h1q-18 8 -43.5 15.5t-47.5 7.5q-30 0 -59 -8.5t-51.5 -25.5t-36 -41.5t-13.5 -55.5q0 -20 9.5 -34t25.5 -24.5t36.5 -19t41.5 -15.5q29 -11 57.5 -22t50.5 -28t35.5 -41.5t13.5 -61.5q0 -39 -15 -69t-40.5 -50t-58 -30t-67.5 -10q-11 0 -37 4
t-52 12.5t-46 22t-20 33.5q0 17 5 26.5t13 14t18 5t20 0.5q2 0 10 -2.5t11 -5.5z" />
    <glyph glyph-name="t" unicode="t" horiz-adv-x="692" 
d="M277 235q0 -35 4 -64t17 -50t35.5 -32.5t60.5 -11.5q25 0 46.5 7.5t39.5 19t31.5 24t22.5 23.5q11 11 22.5 20.5t22.5 9.5q17 0 31.5 -12t14.5 -32q0 -8 -4.5 -18.5t-12.5 -18.5l1 2q-37 -54 -93 -85t-122 -31q-64 0 -105 17.5t-64.5 50t-32 78.5t-7.5 103l5 272h-147
q-21 0 -34 13t-13 35q0 29 13 36t34 7h149l13 412q1 17 13.5 33t31.5 16q26 0 36 -13.5t10 -35.5l-10 -412h230q20 0 33.5 -14t13.5 -33q0 -26 -13.5 -35t-33.5 -9h-233v-15t-1 -15q0 -8 -0.5 -21t-0.5 -21q-2 -51 -3 -100t-1 -100z" />
    <glyph glyph-name="u" unicode="u" horiz-adv-x="782" 
d="M109 563q0 23 14 36t35 13q14 0 23 -5t13.5 -13t6 -17t1.5 -16v-265q0 -47 9 -86.5t29.5 -68.5t54.5 -45.5t85 -16.5t85 16.5t54 45.5t28.5 68.5t8.5 86.5v267q0 23 16.5 36t34.5 13q14 0 23 -5t13.5 -13t6 -17t1.5 -16v-281q0 -66 -16.5 -120t-50 -92.5t-84.5 -60
t-120 -21.5t-120 21.5t-84.5 60t-50 92.5t-16.5 120v283z" />
    <glyph glyph-name="v" unicode="v" horiz-adv-x="711" 
d="M340 -12q-18 0 -28 11t-16 22l-32 61q-19 35 -45 83t-53.5 100t-54 103.5t-48 94t-34.5 71.5t-13 35q0 18 13 30.5t30 12.5q28 0 44 -25l239 -457q59 113 120 233t120 233l22 12q8 4 17 4q7 0 15 -3t15 -8.5t12 -13.5t5 -18q0 -5 -12 -31t-31.5 -65t-45 -88t-52 -99.5
t-52 -99.5t-46.5 -88l-42 -77q-7 -12 -17.5 -22.5t-29.5 -10.5z" />
    <glyph glyph-name="w" unicode="w" horiz-adv-x="977" 
d="M469 170l-78 -150q-6 -9 -17 -20.5t-28 -11.5q-21 0 -29.5 11t-14.5 22l-32 61q-19 35 -45 83t-53.5 100t-54.5 103.5t-48.5 94t-34.5 71.5t-13 35q0 18 13.5 30.5t30.5 12.5q3 0 9 -2.5t12 -6t11 -7.5t8 -7l241 -460l32 59q11 21 21 38t22 40q-7 14 -14.5 26.5
t-14.5 26.5q-17 32 -37.5 70.5t-38.5 74t-31 63t-16 37.5q0 18 14 33t30 15q13 0 26 -6.5t18 -19.5l-1 1q11 -23 22 -44l22 -42l71 -135q27 54 58.5 115t58.5 115q2 2 8 5.5t14 6.5q8 4 20 4q14 -2 27 -12.5t13 -30.5q0 -8 -15 -41.5t-36.5 -76t-45 -87t-40.5 -74.5l-8 -16
v1l-3 -6l73 -141l239 459q5 9 16 17t23 8q14 0 29.5 -12.5t15.5 -30.5q0 -8 -11.5 -34t-30.5 -64.5t-43 -85t-50 -95t-51.5 -95.5t-46.5 -85l-48 -89l1 1q-5 -11 -17 -22.5t-32 -11.5q-14 6 -29 24t-30 42.5t-29.5 52.5t-26.5 52z" />
    <glyph glyph-name="x" unicode="x" horiz-adv-x="670" 
d="M98 -4q-7 0 -15.5 3.5t-15.5 9.5t-12 14t-5 17t18 34.5t45 59t58 70t57 66.5l-1 -1l22 26l14 16q-22 25 -57.5 65t-69 80t-58 71.5t-24.5 39.5q0 19 17.5 32t34.5 13q15 -6 40.5 -30t55 -57t59.5 -68.5t53 -63.5l6 -10l2 -2l10 12l2 3l-1 -2q22 27 51.5 62.5t59 68t56 57
t43.5 30.5q15 -2 32 -14t17 -31q0 -6 -11.5 -23t-30 -40.5t-41.5 -50l-46 -53t-43.5 -49.5t-34.5 -38l-1 -1l11 -14l-1 1q16 -19 37.5 -43.5t44 -51t45 -53.5t40 -50.5t29 -42t12.5 -27.5q-8 -13 -22 -24t-28 -11q-8 0 -23 12t-34.5 32t-42.5 45t-45 51t-43 51t-36 44l-6 7
l-10 -14l-14 -16q-25 -31 -54.5 -68t-58 -69t-52 -53.5t-35.5 -21.5z" />
    <glyph glyph-name="y" unicode="y" horiz-adv-x="748" 
d="M502 40q-39 -22 -84 -38t-92 -16q-69 0 -111 25.5t-65.5 67.5t-31.5 95t-8 108v281q0 23 13.5 36t34.5 13q29 0 36.5 -13t7.5 -36v-283q0 -35 4.5 -71t18 -65t38 -48t63.5 -19q47 0 91 19t85 45v422q0 20 14 34.5t34 14.5q28 0 36.5 -13t8.5 -36v-364q8 4 15.5 7.5
t15.5 5.5q2 1 6 0t6 -2q10 -6 19 -17.5t9 -25.5q0 -9 -7 -19t-18 -19.5t-23.5 -18t-22.5 -14.5v-290q0 -81 -46.5 -127t-126.5 -46q-20 0 -32.5 8.5t-12.5 34.5q0 15 5.5 24t14.5 13.5t19.5 5.5t19.5 0h3q23 0 35.5 12.5t18.5 32t7.5 43t1.5 44.5v189z" />
    <glyph glyph-name="z" unicode="z" horiz-adv-x="676" 
d="M266 92h253q48 0 48 -46q0 -25 -12.5 -35.5t-35.5 -10.5h-326q-18 0 -34.5 10t-16.5 34q0 9 15 37.5t38.5 68.5t53.5 88t61 95t59.5 90.5t48.5 74.5l6 9h-162q-23 0 -50.5 -1.5t-54 -7.5t-49.5 -18.5t-36 -34.5l-27 -14q-17 0 -34 13.5t-17 30.5q0 8 4 15t8 12q1 3 1 5
q16 28 44 46t61 28t66 13.5t60 3.5h262q20 0 34 -8t17 -40q-1 -3 -2.5 -6.5t-2.5 -5.5q-4 -9 -7 -17t-5 -13z" />
    <glyph glyph-name="braceleft" unicode="{" 
d="M844 1420q0 -11 -9 -20t-19 -9q-76 0 -123 -13.5t-73.5 -44.5t-36 -81t-9.5 -123v-239q0 -63 -2.5 -116.5t-15.5 -98t-41.5 -80t-80.5 -63.5q51 -28 79 -63.5t41.5 -79.5t16.5 -97t3 -114v-27t-1 -33q0 -5 -0.5 -12t-0.5 -12q-1 -21 -1.5 -44t-0.5 -46q0 -38 3 -79
t9 -78.5t15.5 -69t23.5 -50.5q16 -16 40 -25.5t50.5 -14.5t54 -6.5t50.5 -1.5q10 0 19 -9t9 -21v-29q0 -11 -9 -19.5t-19 -8.5h-10q-28 0 -63.5 3t-71 11.5t-68 23.5t-54.5 39q-21 26 -35 70t-22 96.5t-11 108.5t-3 107q0 32 0.5 59.5t1.5 50.5q1 17 1 29.5v21.5
q0 76 -14.5 129t-47 86.5t-85 48.5t-128.5 14q-12 0 -20.5 8.5t-8.5 19.5v30q0 12 9 20.5t21 8.5q78 0 130.5 14.5t84.5 47t45.5 85.5t13.5 131v24.5t-1 30.5q-1 25 -1.5 55t-0.5 62q0 50 2.5 104.5t10.5 105t22 93.5t37 70q24 25 57 41t69 24t72.5 11t67.5 3q10 0 19 -9
t9 -21v-29z" />
    <glyph glyph-name="bar" unicode="|" 
d="M463 1537q0 11 9 20t21 9h33q12 0 20.5 -9t8.5 -20v-1985q0 -11 -8.5 -20t-20.5 -9h-33q-12 0 -21 9t-9 20v1985z" />
    <glyph glyph-name="braceright" unicode="}" 
d="M177 1449q0 12 8.5 21t20.5 9h10q30 0 65 -3t69.5 -11t66 -24t54.5 -41q24 -26 38 -68.5t22 -93.5t10.5 -105.5t2.5 -105.5q0 -32 -0.5 -62t-1.5 -55q-1 -17 -1 -30.5v-24.5q0 -78 13.5 -131t45.5 -85.5t84.5 -47t130.5 -14.5q10 0 19 -8.5t9 -20.5l1 -13q0 -16 -5 -26v2
q-3 -11 -12 -17t-18 -4q-5 1 -8 1h-6q-72 0 -121 -17.5t-78.5 -52.5t-42 -87t-12.5 -122v-21.5t1 -29.5q1 -23 1.5 -50.5t0.5 -59.5q0 -51 -3.5 -107.5t-11.5 -109t-22 -96.5t-35 -70q-24 -23 -58 -37.5t-70.5 -23t-73 -12t-64.5 -3.5q-12 0 -20.5 8.5t-8.5 19.5v29
q0 12 8.5 21t20.5 9q23 0 50 1.5t53 6.5t49.5 14.5t40.5 25.5q14 19 23.5 50.5t15.5 69t9 78.5t3 79q0 23 -0.5 45t-1.5 42q0 7 -0.5 14t-0.5 13q-1 14 -1 32.5v27.5q0 61 3 114t16.5 97t42 79.5t79.5 63.5q-53 28 -81 63.5t-41.5 80t-16 98t-2.5 116.5v239q0 73 -9.5 123
t-36 81t-73 44.5t-121.5 13.5q-12 0 -20.5 9t-8.5 20v29z" />
    <glyph glyph-name="asciitilde" unicode="~" horiz-adv-x="1706" 
d="M1524 666q0 -7 -4.5 -14t-9.5 -10h1q-42 -29 -88 -55.5t-94.5 -46t-99.5 -31t-103 -11.5q-78 0 -153.5 22.5t-146.5 48.5q-66 25 -132.5 45.5t-132.5 20.5q-47 0 -93 -12.5t-90 -32.5t-86.5 -46t-81.5 -53q-17 -11 -31 -3t-14 27v50q0 4 4 11t9 11h-1q42 31 87 57.5
t93.5 46t99.5 31t104 11.5q50 0 101 -11.5t99 -28.5l62 -21q37 -14 75.5 -28t77.5 -25t77 -18t73 -7q47 0 94 12.5t92 33t87.5 46.5t81.5 52q15 8 29 0.5t14 -25.5v-47z" />
    <glyph glyph-name="uni00A0" unicode="&#xa0;" horiz-adv-x="0" 
 />
    <glyph glyph-name="exclamdown" unicode="&#xa1;" horiz-adv-x="739" 
d="M363 1157q17 0 28.5 -14t13.5 -31l3 -310q1 -90 2 -188.5t1.5 -198t1 -198t0.5 -188.5q0 -11 -5 -19t-12.5 -13t-15.5 -8t-15 -3q-16 0 -26 2t-16 7t-8 15t-2 27l7 1075q0 18 11.5 31.5t31.5 13.5zM363 1281q-16 0 -30.5 6t-25 16.5t-16.5 24.5t-6 30q0 31 22.5 54.5
t55.5 23.5q14 0 27.5 -7t24.5 -18t18 -25t7 -28t-7 -27.5t-18 -24.5t-25 -18t-27 -7z" />
    <glyph glyph-name="cent" unicode="&#xa2;" horiz-adv-x="1034" 
d="M385 538q-41 -8 -75.5 -27.5t-60 -48t-40 -65.5t-14.5 -80q0 -44 14.5 -80t40 -63.5t60.5 -46t75 -26.5v437zM385 4q-55 13 -106.5 41.5t-91 69.5t-63 93t-23.5 113q0 62 23 114t62 92.5t90.5 67t108.5 37.5v275q0 18 12.5 33.5t34.5 15.5q30 0 36.5 -16t6.5 -35v-268
q26 -2 51.5 -6.5t52.5 -12.5q10 -3 33 -12t47 -22t42 -29t18 -33q0 -18 -13.5 -30t-31.5 -12q-9 0 -15.5 2t-14.5 6l-18 9q-24 11 -65 26t-86 21v-451q26 2 50.5 9t46.5 16t39.5 18.5t29.5 15.5h-1q23 13 34 13q10 0 18.5 -5t14.5 -12t9 -15t3 -15q0 -17 -9 -26.5t-20 -15.5
q-97 -64 -215 -76v-3l1 -4q1 -16 1.5 -37.5t0.5 -40.5q0 -24 -2 -46t-7 -39t-14 -27t-23 -10q-26 0 -36.5 13t-10.5 35v163z" />
    <glyph glyph-name="sterling" unicode="&#xa3;" horiz-adv-x="1034" 
d="M366 312v-218h243q14 0 31.5 0.5t35 1.5t33.5 3.5t28 6.5q8 2 25 15t32 24q29 26 46 26q13 0 20.5 -5t12 -12t6 -15t1.5 -15q0 -14 -5.5 -24.5t-12.5 -17.5v1q-23 -26 -50 -42t-56.5 -25t-60.5 -12.5t-62 -3.5h-463q-23 0 -37 13.5t-14 34.5q0 15 8.5 24.5t22.5 15.5
t32 8t37 2q11 0 24 -0.5t24 -1.5h3q0 56 -1 106t-1 107h-24q-16 0 -31 2t-26.5 8t-18.5 16t-7 25q0 29 25 38.5t57 9.5q12 0 15.5 0.5t11.5 -0.5v34q0 8 -0.5 16t-0.5 17v35q0 49 3 95.5t13.5 88.5t29.5 77t51.5 60.5t80 40t114.5 14.5q54 0 104.5 -15t90 -45t63 -75.5
t23.5 -105.5q0 -5 -0.5 -7.5t-2.5 -6.5q-2 -14 -11.5 -27.5t-32.5 -13.5q-14 0 -23 4.5t-14 12t-7 16.5t-3 17q-3 39 -19.5 67.5t-42 47t-59 27.5t-70.5 9q-58 0 -95 -16t-58.5 -46t-29.5 -73t-8 -97v-154h329q19 0 33.5 -14t14.5 -34q0 -25 -14.5 -35t-33.5 -10h-329z" />
    <glyph glyph-name="currency" unicode="&#xa4;" horiz-adv-x="1241" 
d="M619 1203q-67 0 -125 -24.5t-100.5 -67t-67 -100.5t-24.5 -125q0 -68 24.5 -126.5t67 -101t100.5 -67t125 -24.5t125 24.5t101 67.5t67 101t24 126q0 64 -22.5 121t-69.5 102q-47 48 -103 71t-122 23zM131 1394q9 11 21.5 11.5t22.5 -9.5l183 -183q59 43 121.5 66
t137.5 23t138.5 -23t122.5 -66l182 183q8 8 21 7t21 -9q6 -7 14.5 -14.5t14.5 -14.5q8 -9 8 -21.5t-8 -20.5l-184 -181q42 -58 65 -122t23 -136q0 -73 -22.5 -136.5t-64.5 -121.5l185 -184q8 -8 9 -20t-7 -20l-15 -15l-17 -16q-9 -10 -20.5 -9.5t-21.5 9.5l-183 184
q-59 -42 -123 -65t-138 -23q-72 0 -136 24t-121 65q-18 -20 -39 -40t-40 -39h1l-22 -20l-13 -12q-17 -17 -36.5 -36t-34.5 -36q-9 -9 -21.5 -9.5t-22.5 8.5l-9 10l-19 19q-9 8 -9 21t9 22l183 182q-42 57 -64.5 120.5t-22.5 137.5q0 73 23 136.5t65 121.5l-183 181
q-9 9 -9 21t8 21z" />
    <glyph glyph-name="yen" unicode="&#xa5;" horiz-adv-x="844" 
d="M463 371v-327q0 -21 -16 -34.5t-35 -13.5q-25 0 -35 13.5t-10 34.5v327h-273q-17 0 -32.5 12t-15.5 32q0 23 15 34.5t33 11.5h220l-18 22l-53 70h-149q-17 0 -32.5 10t-15.5 33q0 21 14.5 33.5t33.5 12.5h81q-19 24 -41.5 54t-42 56.5t-33 46.5t-14.5 25q0 25 17.5 38.5
t37.5 13.5l26 -12l289 -381l285 375q8 11 19.5 14.5t19.5 3.5q17 0 28 -12.5t16 -22.5q0 -13 -12.5 -36.5t-31.5 -51.5t-41.5 -57.5t-41.5 -53.5h79q18 0 33 -13.5t15 -32.5q0 -30 -14.5 -36.5t-35.5 -6.5h-144q-11 -14 -19 -24.5t-16.5 -20.5t-17 -21t-19.5 -26h218
q17 0 32.5 -12.5t15.5 -33.5q0 -29 -14.5 -36.5t-35.5 -7.5h-269z" />
    <glyph glyph-name="brokenbar" unicode="&#xa6;" 
d="M459 398q0 12 9 20t21 8h39q12 0 20.5 -8t8.5 -20v-713q0 -12 -8.5 -21t-20.5 -9h-39q-12 0 -21 9t-9 21v713zM459 1406q0 13 9 20.5t21 7.5h39q12 0 20.5 -7.5t8.5 -20.5v-714q0 -12 -8.5 -20.5t-20.5 -8.5h-39q-12 0 -21 8.5t-9 20.5v714z" />
    <glyph glyph-name="section" unicode="&#xa7;" 
d="M475 -147q46 0 79 17.5t54 47t31 68t10 81.5q0 58 -22 121.5t-57.5 130.5t-81 136t-92.5 138q-52 76 -104 157t-94 163.5t-68.5 164t-26.5 159.5q0 96 33 167.5t91 119.5t135.5 72t166.5 24q48 0 98 -9t96.5 -27.5t87.5 -47t71 -67.5l5 -6q5 -8 10.5 -17.5t5.5 -20.5
q0 -8 -4.5 -15.5t-11 -13t-13.5 -10t-11 -6.5q-22 3 -34 12t-25 23l-5 5h1q-16 15 -38 34.5t-55 36.5t-78.5 29t-108.5 12q-48 0 -91 -10t-75.5 -32t-51.5 -58t-19 -88q0 -53 20.5 -113t54.5 -123.5t78 -130t90 -132.5q53 -77 107 -159t97 -167t70 -170.5t27 -170.5
q0 -78 -22.5 -152.5t-67.5 -132.5t-111 -93.5t-153 -35.5q-37 0 -78.5 10.5t-80.5 29.5t-72 46t-54 59q-3 6 -6 15.5t-3 13.5q0 20 12 31.5t32 11.5q11 0 21 -7.5t21 -17.5l2.5 -2.5t2.5 -1.5q14 -13 34 -30t46 -32.5t57.5 -26t67.5 -10.5zM445 810q-44 65 -86 127.5
t-75.5 123.5t-56.5 119.5t-30 115.5q-3 -27 -3 -55q0 -69 24.5 -144t64.5 -151.5t89 -152.5t99 -148q46 -67 91 -136.5t82 -138.5t61.5 -136t28.5 -128q2 15 3 30.5t1 32.5q0 82 -25.5 163.5t-67 162t-94 159.5t-106.5 156z" />
    <glyph glyph-name="dieresis" unicode="&#xa8;" 
d="M658 851q32 0 54.5 -22t22.5 -53q0 -32 -22.5 -54.5t-54.5 -22.5q-14 0 -27.5 6.5t-24.5 17t-18 24.5t-7 29t7 28.5t18 24t24.5 16.5t27.5 6zM348 851q32 0 54.5 -22t22.5 -53q0 -32 -22.5 -54.5t-54.5 -22.5q-14 0 -27.5 6.5t-25 17.5t-18.5 25t-7 28q0 13 7 26.5
t18.5 24.5t25 17.5t27.5 6.5z" />
    <glyph glyph-name="copyright" unicode="&#xa9;" horiz-adv-x="1706" 
d="M595 414q-19 0 -28 10.5t-20 27.5q-5 7 -11.5 16t-15.5 16.5t-22.5 13t-31.5 5.5q-30 0 -49.5 -12.5t-31 -33t-16.5 -46.5t-5 -53q0 -26 5 -52t17 -46t31.5 -32.5t48.5 -12.5q21 0 35 5t23.5 13t15.5 17.5t11 18.5l5 8q10 15 20 26.5t30 11.5q43 0 43 -44
q0 -36 -18.5 -64.5t-46 -48.5t-60.5 -30.5t-62 -10.5q-54 0 -92 20.5t-62 54t-35.5 77t-11.5 89.5q0 45 11.5 91.5t43.5 81.5l-1 -1q29 36 69 53.5t85 17.5q26 0 57 -10t57.5 -29t44.5 -45t18 -59q0 -24 -17.5 -34t-33.5 -10zM465 627q-56 0 -105 -21t-86 -57t-58 -85
t-21 -105q0 -55 21.5 -104.5t58 -86.5t85.5 -58.5t105 -21.5t105 21t86 58t58 86.5t21 105.5q0 57 -21 106t-57.5 85t-85.5 56.5t-106 20.5zM465 726q76 0 143.5 -28.5t117 -78t78.5 -116.5t29 -144t-29 -144t-79 -117t-117 -79t-143 -29t-143 29.5t-117 80t-79 117.5
t-29 142q0 76 29 143t79 116.5t117 78.5t143 29z" />
    <glyph glyph-name="ordfeminine" unicode="&#xaa;" horiz-adv-x="653" 
d="M558 1205q0 -18 -10 -31.5t-32 -13.5q-19 0 -31.5 12.5t-12.5 32.5v147q-24 -40 -55 -76t-68 -63.5t-79.5 -43.5t-89.5 -16q-34 0 -63 9t-50.5 27t-33.5 45.5t-12 64.5q0 50 22 93t58.5 79t84 63.5t97.5 46.5t99.5 29t90.5 10h6q10 0 23.5 -0.5t26 -4.5t21 -14.5
t8.5 -29.5v-366zM180 1235q53 0 98.5 28t81.5 71.5t61.5 96t40.5 102.5q-51 -2 -112.5 -18t-115.5 -45.5t-90 -72t-36 -98.5q0 -32 20.5 -48t51.5 -16z" />
    <glyph glyph-name="guillemotleft" unicode="&#xab;" horiz-adv-x="623" 
d="M44 302q0 16 7.5 28t15.5 20l196 194q6 5 15.5 11.5t20.5 6.5q17 0 31.5 -14.5t14.5 -30.5q0 -12 -19.5 -37.5t-47.5 -55t-59 -60t-55 -52.5l-9 -8h-1l24 -22q24 -24 53.5 -53t55 -56.5t43 -49t17.5 -30.5q0 -18 -13.5 -32t-32.5 -14q-7 0 -28.5 17.5t-50 44.5t-60 59
t-58 60.5t-43.5 49t-17 24.5zM261 302q0 16 7.5 28t15.5 20l195 193q6 5 18 12t19 7q17 0 31.5 -13.5t14.5 -31.5q0 -10 -3 -20t-10 -18l-177 -175l15 -13h-1q23 -22 52 -50t55.5 -55.5t46 -50.5t24.5 -35q0 -20 -13.5 -36.5t-32.5 -16.5q-4 0 -24.5 17.5t-49 44t-61 58
t-59.5 59.5t-45 49t-18 27z" />
    <glyph glyph-name="logicalnot" unicode="&#xac;" horiz-adv-x="1706" 
d="M238 842q0 12 9 21t21 9h1150q11 0 20 -9t9 -21v-470q0 -13 -9 -20.5t-20 -7.5h-39q-11 0 -20 7.5t-9 20.5v400h-1082q-12 0 -21 8.5t-9 20.5v41z" />
    <glyph glyph-name="uni00AD" unicode="&#xad;" horiz-adv-x="393" 
d="M293 364q18 0 34 -12.5t16 -34.5q0 -29 -15.5 -36.5t-36.5 -7.5h-199q-19 0 -33.5 14t-14.5 32q0 27 13.5 36t34.5 9h201z" />
    <glyph glyph-name="registered" unicode="&#xae;" horiz-adv-x="699" 
d="M337 1525q67 0 125.5 -25t101.5 -68t68 -101.5t25 -124.5t-25.5 -124.5t-69 -102t-101.5 -68.5t-124 -25q-65 0 -122.5 25.5t-101 69.5t-69 102t-25.5 123t25 123t68.5 101.5t101 69t123.5 25.5zM119 1206q0 -47 20.5 -89.5t55.5 -73.5v5v320q-35 -30 -55.5 -72
t-20.5 -90zM337 987q49 0 95 22l-25 18l-61 132h-44q1 -14 1.5 -30.5t0.5 -28.5q0 -18 -1.5 -34.5t-6 -29t-13 -20t-22.5 -7.5h-16q44 -22 92 -22zM556 1206q0 38 -12 71.5t-34 61.5q5 -11 7.5 -24.5t2.5 -30.5q0 -38 -18 -65t-48 -42q6 -12 12.5 -26.5t13.5 -30t13 -30
t11 -24.5q24 29 38 64.5t14 75.5zM299 1311v-43h39q9 0 21.5 0.5t23.5 2.5t18.5 6.5t7.5 13.5q0 7 -8 11t-19 6t-23 2.5t-20 0.5h-40zM337 1423q-18 0 -35.5 -3.5t-34.5 -8.5h83q20 0 40 -1.5t38 -6.5q-43 20 -91 20z" />
    <glyph glyph-name="glyph114" unicode="&#xaf;" 
d="M693 808q16 0 32 -12t16 -32q0 -30 -17 -38t-35 -8h-376q-17 0 -32.5 12.5t-15.5 33.5q0 22 15.5 33t32.5 11h380z" />
    <glyph glyph-name="degree" unicode="&#xb0;" horiz-adv-x="557" 
d="M275 1534q-32 0 -61 -11t-51.5 -30.5t-36 -47t-13.5 -60.5q0 -32 14 -59t36.5 -46.5t52 -31t59.5 -11.5q32 0 61 11.5t51 31t35 46.5t13 59q0 33 -13 60.5t-34.5 47t-50.5 30.5t-62 11zM275 1618q49 0 94 -17t79 -48t54 -74t20 -94t-20.5 -93.5t-54.5 -73t-79 -48
t-93 -17.5t-93 17.5t-79.5 48t-55 73t-20.5 93.5q0 52 20.5 95t55 73.5t79 47.5t93.5 17z" />
    <glyph glyph-name="plusminus" unicode="&#xb1;" horiz-adv-x="1101" 
d="M99 139q0 13 9 21t20 8h771q12 0 21 -8t9 -21v-42q0 -11 -9 -19.5t-21 -8.5h-771q-11 0 -20 8.5t-9 19.5v42zM475 1133q0 12 8.5 20.5t19.5 8.5h43q10 0 19 -8.5t9 -20.5v-318h325q12 0 21 -9t9 -21v-43q0 -12 -9 -20t-21 -8h-325v-318q0 -12 -9 -21t-19 -9h-43
q-11 0 -19.5 9t-8.5 21v318h-347q-11 0 -20 8t-9 20v43q0 12 9 21t20 9h347v318z" />
    <glyph glyph-name="twosuperior" unicode="&#xb2;" horiz-adv-x="530" 
d="M241 405h130q22 0 32.5 -5t10.5 -34q0 -20 -11.5 -30t-31.5 -10h-217q-14 0 -28 7t-18 35q13 29 37.5 57t54.5 58l11 11l56 56t52 58t38 55.5t15 49.5t-12.5 40t-32 27.5t-43 15.5t-44.5 5q-24 0 -49.5 -6t-48 -18t-39 -30.5t-22.5 -43.5q-1 -8 -6 -14t-10 -9l-12 -7h1
q-8 -5 -18.5 -3.5t-16.5 6.5l-10 11q-3 3 -5.5 11t-2.5 11q0 44 24.5 76.5t60.5 54t77.5 32t76.5 10.5q36 0 74 -9t69 -29t51 -52t20 -77q0 -28 -9 -53.5t-23 -48t-31 -42.5t-34 -38z" />
    <glyph glyph-name="threesuperior" unicode="&#xb3;" horiz-adv-x="537" 
d="M153 643q0 8 12 24.5t30.5 37.5t40.5 43.5t42 42.5h-188q-44 0 -44 43q0 25 12 31.5t32 6.5h280q8 0 16 -0.5t14.5 -4t10.5 -11.5t4 -22q0 -9 -10.5 -24.5t-27 -34.5t-36.5 -39.5t-39 -38.5q36 -3 70.5 -14.5t61 -33t43 -53.5t16.5 -74q0 -53 -23.5 -91t-60.5 -63.5
t-82.5 -37.5t-90.5 -12q-23 0 -56.5 6.5t-67.5 19.5t-62 33t-39 47q0 21 11.5 34t28.5 13q16 0 24.5 -7.5t16.5 -15.5q10 -14 27.5 -23.5t37.5 -15.5t41 -8.5t38 -2.5q30 0 60.5 7t56 22t41.5 38.5t16 56.5q0 26 -12.5 44.5t-32 30t-44 16.5t-48.5 5q-8 0 -16.5 -1.5
t-19.5 -3.5q-2 0 -3 -0.5t-3 -0.5q-8 -2 -17 -2.5t-21 -0.5q-4 0 -11 1t-13.5 4.5t-11 10t-4.5 18.5z" />
    <glyph glyph-name="acute" unicode="&#xb4;" 
d="M676 949q14 0 28.5 -11t14.5 -31q0 -7 -12 -23.5t-30.5 -38t-42.5 -47t-48 -50t-46.5 -46.5t-37.5 -37l-12 -12l-3 -4q-3 -3 -15 -9.5t-19 -6.5q-18 0 -31 13t-13 30q0 13 21.5 40.5t52 60.5t64.5 67t59 58h-1l33 34q8 7 18 10t20 3z" />
    <glyph glyph-name="mu" unicode="&#xb5;" horiz-adv-x="758" 
d="M46 601q1 11 10 20t20 9h30q12 0 21 -8.5t9 -20.5q0 -14 -0.5 -26.5t-0.5 -25.5v-52q-1 -53 -1.5 -104.5t-0.5 -103.5q0 -91 48 -142.5t138 -51.5q45 0 76.5 18.5t51.5 49t29.5 69t10.5 79.5l4 290q0 12 9 20.5t21 8.5h29q12 0 21 -8.5t9 -20.5l-7 -457q-1 -30 14 -38
t44 -8q11 0 20 -9t9 -20v-22q0 -10 -6.5 -16.5t-14.5 -9.5t-15.5 -3.5t-13.5 -0.5h-5q-48 0 -74 15.5t-37 47.5q-35 -38 -82 -53.5t-101 -15.5q-48 0 -95.5 15t-84.5 48q-1 -21 -1.5 -42.5t-0.5 -42.5q-1 -38 -1 -76.5v-76.5q0 -11 -9 -19.5t-21 -8.5h-31q-12 0 -20.5 8.5
t-8.5 19.5z" />
    <glyph glyph-name="paragraph" unicode="&#xb6;" 
d="M902 1484q12 0 20.5 -8.5t8.5 -20.5v-56q0 -12 -8.5 -20.5t-20.5 -8.5h-99v-1341q0 -11 -9 -20t-21 -9h-56q-12 0 -20 9t-8 20v1341h-131v-1341q0 -11 -8.5 -20t-20.5 -9h-58q-12 0 -20.5 9t-8.5 20v727q-77 6 -144 32t-117 71t-78.5 110t-28.5 149q0 91 33 160
t89.5 114.5t131 68.5t158.5 23h416z" />
    <glyph glyph-name="glyph122" unicode="&#xb7;" horiz-adv-x="516" 
d="M254 526q31 0 53 -22.5t22 -53.5q0 -32 -22 -54.5t-53 -22.5q-14 0 -28 6.5t-25 17.5t-17.5 25t-6.5 28q0 15 6.5 28.5t17 24t24.5 17t29 6.5z" />
    <glyph glyph-name="cedilla" unicode="&#xb8;" 
d="M462 29q0 13 9 21t21 8h28q12 0 21 -8t9 -21v-78q39 -1 76.5 -7t66.5 -23.5t46.5 -49.5t17.5 -85q0 -49 -18 -82.5t-48 -54t-69 -29.5t-81 -9q-8 0 -28 1t-45 4.5t-52.5 9t-50 14t-37 20.5t-14.5 28q5 11 16.5 23t25.5 12q6 0 8.5 -0.5l7.5 -1.5q2 -1 4.5 -1.5t7.5 -0.5
q86 -20 163 -20q23 0 45 4.5t39.5 14.5t28 26.5t10.5 41.5q0 27 -10 42.5t-25.5 24t-36 10.5t-41.5 2h-53q-29 0 -35.5 11t-6.5 33v120z" />
    <glyph glyph-name="onesuperior" unicode="&#xb9;" horiz-adv-x="328" 
d="M202 364q0 -40 -40 -40q-42 0 -42 40v470q0 20 13 30t29 10q20 0 30 -11.5t10 -28.5v-470z" />
    <glyph glyph-name="ordmasculine" unicode="&#xba;" horiz-adv-x="557" 
d="M275 1534q-32 0 -61 -11t-51.5 -30.5t-36 -47t-13.5 -60.5q0 -32 14 -59t36.5 -46.5t52 -31t59.5 -11.5q32 0 61 11.5t51 31t35 46.5t13 59q0 33 -13 60.5t-34.5 47t-50.5 30.5t-62 11zM275 1618q49 0 94 -17t79 -48t54 -74t20 -94t-20.5 -93.5t-54.5 -73t-79 -48
t-93 -17.5t-93 17.5t-79.5 48t-55 73t-20.5 93.5q0 52 20.5 95t55 73.5t79 47.5t93.5 17z" />
    <glyph glyph-name="guillemotright" unicode="&#xbb;" horiz-adv-x="623" 
d="M349 307q0 -16 -6.5 -27t-15.5 -20l-25 -23l-11 -11v1q-23 -24 -53 -55t-59 -58.5t-52.5 -47t-32.5 -19.5q-19 0 -31.5 15t-12.5 31q0 5 4.5 19.5t9.5 19.5l174 173l-2 3h1q-21 21 -53.5 52.5t-62.5 63t-51.5 57.5t-21.5 36q0 16 13.5 30.5t30.5 14.5q23 0 37 -15v1
l19 -20h-1q21 -20 55 -53.5t67 -67t56.5 -62t23.5 -38.5zM569 307q0 -7 -17.5 -28t-44.5 -49.5t-59 -60t-60 -58.5t-48.5 -45t-24.5 -19q-21 0 -34.5 15t-13.5 31q0 5 2 10.5t4 10.5q0 2 2 4q1 4 2.5 8t2.5 6l175 173l-2 3h1q-21 21 -53.5 52.5t-62.5 63t-51.5 57.5
t-21.5 36q0 16 13.5 30.5t30.5 14.5q11 0 21 -3t17 -11l203 -202q5 -5 10 -11.5t8 -19.5z" />
    <glyph glyph-name="onequarter" unicode="&#xbc;" horiz-adv-x="1247" 
d="M1004 159v240q0 20 13 30t30 10q24 0 31 -13.5t7 -28.5v-238h99q18 0 29.5 -9.5t11.5 -29.5q0 -22 -11.5 -30.5t-29.5 -8.5h-99v-129q-5 -12 -16.5 -22t-25.5 -10q-21 0 -30 9t-9 31v121h-297q-11 0 -24 7t-22 27q3 16 20 49t41 74t52 85t52 82l20 32l38 59q5 6 17 13
t17 7q13 0 23 -7t15 -16q2 -3 3 -12t-1 -14q-7 -17 -25.5 -49.5t-43 -72.5t-51.5 -82.5t-49 -77.5l-17 -26h232zM0 -14q-8 0 -16.5 5t-15.5 12.5t-11 16.5t-4 18q5 14 10.5 19.5t11.5 9.5l158 135q55 47 118.5 101t130.5 111t134.5 114t130 109.5t117 98t96 79t66.5 52.5
t29 19q15 0 29.5 -14.5t14.5 -31.5q0 -12 -6 -21.5t-14 -16.5l-19 -17v1q-25 -20 -49 -42t-48 -42l-54 -46q-70 -60 -155 -132.5t-173 -147t-171.5 -145t-150 -125t-109.5 -87.5t-50 -33zM204 395q0 -24 -15 -32t-27 -8q-23 0 -32 8t-9 32v439q0 17 12.5 28.5t29.5 11.5
q41 0 41 -40v-439z" />
    <glyph glyph-name="onehalf" unicode="&#xbd;" horiz-adv-x="1163" 
d="M-2 -14q-17 0 -31 16.5t-14 33.5q5 14 10 20.5t10 10.5l158 135q73 62 161 137t178 151t174.5 147.5t151.5 126.5t109.5 88.5t47.5 33.5q17 0 30.5 -14.5t13.5 -31.5q0 -12 -6 -21.5t-12 -16.5q-13 -11 -43.5 -36.5t-74.5 -63.5q-49 -42 -110.5 -95t-129.5 -111
t-139 -118.5t-138.5 -117t-127.5 -106.5t-106.5 -87.5t-76 -59t-35.5 -21.5zM872 78h120q7 0 14.5 -0.5t13.5 -4t10 -11t4 -21.5q0 -41 -42 -41h-209q-13 0 -28 9.5t-15 37.5q11 23 40.5 54.5t61.5 60.5q24 24 50.5 51t48.5 53.5t36 51.5t14 44q0 22 -12 37.5t-30.5 25.5
t-41 15t-42.5 5q-23 0 -47 -5.5t-45.5 -17t-37 -28.5t-19.5 -40q-2 -6 -6 -12t-8 -8l-10 -9q-8 -5 -19 -3.5t-18 7.5l-9 8l3 -1q-5 3 -9 10.5t-4 12.5q0 40 24 71t59.5 51t75 30.5t70.5 10.5q34 0 70.5 -8.5t66.5 -27.5t49.5 -49t19.5 -73q0 -26 -8 -49.5t-21 -44.5
t-29 -40.5t-32 -37.5zM202 395q0 -24 -14.5 -32t-27.5 -8q-23 0 -31.5 8t-8.5 32v439q0 17 12.5 28.5t29.5 11.5q40 0 40 -40v-439z" />
    <glyph glyph-name="threequarters" unicode="&#xbe;" horiz-adv-x="1446" 
d="M1198 159v240q0 20 13 30t30 10q23 0 31 -13.5t8 -28.5v-238h97q19 0 29.5 -8t10.5 -31q0 -24 -9.5 -31.5t-30.5 -7.5h-97v-131q-7 -11 -17.5 -20.5t-24.5 -9.5q-22 0 -31 9t-9 31v121h-296q-11 0 -25 7t-23 27q1 5 6.5 19.5t11.5 25.5l209 343q2 2 14 7.5t18 5.5
q13 0 22.5 -7t13.5 -16q2 -3 3 -11.5t-1 -13.5q-5 -14 -21 -43t-38 -64.5t-46.5 -75t-46.5 -74.5l-18 -31l-15 -21h232zM192 -14q-17 0 -30.5 15.5t-13.5 31.5q0 11 8.5 21.5t10.5 12.5l66 56q42 36 102.5 87.5t131 112t147 125t150.5 127t141.5 119t120.5 99t87 68.5t40 27
q5 -3 12 -7.5t13.5 -10.5t11 -13.5t4.5 -16.5q0 -8 -7.5 -19.5t-13.5 -17.5l-946 -804q-6 -5 -15.5 -9t-19.5 -4zM154 649q1 13 12.5 31t28 37.5t36.5 39t39 36.5h-176q-19 0 -29.5 9t-10.5 32q0 25 9.5 31.5t30.5 6.5h268q11 0 24.5 -8.5t19.5 -25.5q0 -3 -1.5 -10t-2.5 -9
l3 5q-3 -8 -13 -21t-25 -29t-33 -33.5t-35 -33.5q33 -3 66 -13.5t58.5 -30t41.5 -49t16 -69.5q0 -51 -22.5 -88t-58.5 -61t-80 -35.5t-87 -11.5q-21 0 -53.5 6.5t-65.5 20t-60.5 33.5t-38.5 46q4 18 12 26.5t17 12.5q5 2 15 1.5t13 -2.5l11 -5q5 -2 11.5 -11t8.5 -16
q2 -8 18.5 -14t38 -10.5t42.5 -7t31 -2.5q28 0 57.5 7t53.5 21t39 36.5t15 53.5q0 24 -12 40t-30.5 26t-41 14t-44.5 4q-7 0 -17 -1t-19 -3q-8 -2 -19 -3t-23 -1q-3 0 -8.5 0.5t-11 3t-10.5 8t-8 16.5z" />
    <glyph glyph-name="questiondown" unicode="&#xbf;" horiz-adv-x="1143" 
d="M660 1281q-32 0 -55.5 22.5t-23.5 54.5q0 15 6.5 29.5t17 25t25 17t30.5 6.5q15 0 28.5 -7t24 -18.5t16.5 -25.5t6 -27q0 -14 -6.5 -27.5t-17.5 -24.5t-24.5 -18t-26.5 -7zM660 1159q27 0 36.5 -14t9.5 -37v-182q0 -29 -3 -60.5t-15 -61.5v1q-17 -42 -54 -78.5t-79 -69.5
q-33 -27 -66.5 -57.5t-61.5 -67t-45.5 -81t-17.5 -98.5q0 -60 20 -110t55.5 -86t85.5 -56t110 -20q35 0 73.5 8.5t69.5 27.5v-1q12 7 25 20t25.5 28.5t25 32t22.5 30.5v-1l7 11q13 17 23.5 28.5t24.5 11.5q17 0 30.5 -11.5t13.5 -30.5q0 -12 -3.5 -22.5t-8.5 -19.5
q-48 -97 -132.5 -152t-193.5 -55q-81 0 -149 26.5t-116.5 75t-75.5 116t-27 149.5q0 69 21.5 124t54.5 100t73 81.5t78 68.5q36 30 64.5 56t37.5 50q10 24 13 61.5t3 76.5q0 21 -0.5 41.5t-1.5 39.5q-1 13 -1 30.5v25.5q0 20 13 35.5t36 15.5z" />
    <glyph glyph-name="Agrave" unicode="&#xc0;" horiz-adv-x="1976" 
d="M432 405h1076q-68 136 -134.5 268t-132.5 264t-133 264.5t-135 268.5zM384 312l-264 -520q-2 -3 -7.5 -8.5t-11.5 -10t-12 -8t-10 -3.5q-20 0 -34.5 13.5t-14.5 35.5q0 2 10.5 25t28.5 59.5t41 82t47.5 94t48.5 95.5t44 86l30 59h-132q-22 0 -35.5 13.5t-13.5 34.5
q0 28 13.5 36.5t35.5 8.5h180l600 1175q3 8 13.5 22t29.5 14q22 0 34 -11.5t18 -24.5l-1 1q9 -18 39.5 -78.5t76 -151t103 -204.5t120.5 -238.5t128.5 -254t126.5 -251t114.5 -229t94 -187.5t63.5 -127t23 -48q0 -18 -16 -34.5t-41 -16.5q-9 4 -27.5 31.5t-43 70t-52 95.5
t-54.5 106.5t-52 104.5t-44 89q-12 26 -16 36t-9 18h-1172zM1065 1680q0 -18 -12.5 -31t-30.5 -13q-12 0 -20.5 5t-11.5 8q-2 2 -7 7.5t-13 13.5q-14 14 -35.5 35t-45.5 45.5t-47.5 49.5t-42.5 47t-31 39t-12 24q0 19 14 30.5t29 11.5q8 0 19 -3.5t19 -11.5l31 -32
q27 -26 61 -60.5t64 -67.5t51 -60t21 -37z" />
    <glyph glyph-name="Aacute" unicode="&#xc1;" horiz-adv-x="1976" 
d="M432 405h1076q-68 136 -134.5 268t-132.5 264t-133 264.5t-135 268.5zM384 312l-264 -520q-2 -3 -7.5 -8.5t-11.5 -10t-12 -8t-10 -3.5q-20 0 -34.5 13.5t-14.5 35.5q0 2 10.5 25t28.5 59.5t41 82t47.5 94t48.5 95.5t44 86l30 59h-132q-22 0 -35.5 13.5t-13.5 34.5
q0 28 13.5 36.5t35.5 8.5h180l600 1175q3 8 13.5 22t29.5 14q22 0 34 -11.5t18 -24.5l-1 1q9 -18 39.5 -78.5t76 -151t103 -204.5t120.5 -238.5t128.5 -254t126.5 -251t114.5 -229t94 -187.5t63.5 -127t23 -48q0 -18 -16 -34.5t-41 -16.5q-9 4 -27.5 31.5t-43 70t-52 95.5
t-54.5 106.5t-52 104.5t-44 89q-12 26 -16 36t-9 18h-1172zM1143 1952q15 0 29 -11.5t14 -30.5q0 -11 -25 -41.5t-60 -68t-72 -74t-60 -59.5l-12 -12l-3 -4v2q-4 -5 -16 -11t-18 -6q-18 0 -31 13t-13 31q0 12 21.5 40t52 61t64 67t58.5 58l34 32q7 8 17 11t20 3z" />
    <glyph glyph-name="Acircumflex" unicode="&#xc2;" horiz-adv-x="1976" 
d="M432 405h1076q-68 136 -134.5 268t-132.5 264t-133 264.5t-135 268.5zM384 312l-264 -520q-2 -3 -7.5 -8.5t-11.5 -10t-12 -8t-10 -3.5q-20 0 -34.5 13.5t-14.5 35.5q0 2 10.5 25t28.5 59.5t41 82t47.5 94t48.5 95.5t44 86l30 59h-132q-22 0 -35.5 13.5t-13.5 34.5
q0 28 13.5 36.5t35.5 8.5h180l600 1175q3 8 13.5 22t29.5 14q22 0 34 -11.5t18 -24.5l-1 1q9 -18 39.5 -78.5t76 -151t103 -204.5t120.5 -238.5t128.5 -254t126.5 -251t114.5 -229t94 -187.5t63.5 -127t23 -48q0 -18 -16 -34.5t-41 -16.5q-9 4 -27.5 31.5t-43 70t-52 95.5
t-54.5 106.5t-52 104.5t-44 89q-12 26 -16 36t-9 18h-1172zM1212 1682q0 -16 -15 -30t-31 -14q-10 0 -33.5 20.5t-52 50t-57.5 62t-50 57.5v-1l-3 2l-1 -1q-21 -24 -50 -57t-57.5 -62.5t-52 -50t-33.5 -20.5q-18 0 -31.5 13t-13.5 31q0 13 18 38t43.5 55t54.5 59.5t50 51.5
l29 28q7 8 19.5 14.5t25.5 6.5q12 0 26 -7t20 -15q2 -2 5 -5.5t8 -7.5l21 -20q22 -23 50 -52t52.5 -57.5t41.5 -52.5t17 -36z" />
    <glyph glyph-name="Atilde" unicode="&#xc3;" horiz-adv-x="1976" 
d="M432 405h1076q-68 136 -134.5 268t-132.5 264t-133 264.5t-135 268.5zM384 312l-264 -520q-2 -3 -7.5 -8.5t-11.5 -10t-12 -8t-10 -3.5q-20 0 -34.5 13.5t-14.5 35.5q0 2 10.5 25t28.5 59.5t41 82t47.5 94t48.5 95.5t44 86l30 59h-132q-22 0 -35.5 13.5t-13.5 34.5
q0 28 13.5 36.5t35.5 8.5h180l600 1175q3 8 13.5 22t29.5 14q22 0 34 -11.5t18 -24.5l-1 1q9 -18 39.5 -78.5t76 -151t103 -204.5t120.5 -238.5t128.5 -254t126.5 -251t114.5 -229t94 -187.5t63.5 -127t23 -48q0 -18 -16 -34.5t-41 -16.5q-9 4 -27.5 31.5t-43 70t-52 95.5
t-54.5 106.5t-52 104.5t-44 89q-12 26 -16 36t-9 18h-1172zM854 1790q-26 0 -34.5 -11.5t-14.5 -28.5q-4 -11 -8.5 -23t-14.5 -28q-3 -4 -10 -8.5t-14 -4.5q-47 0 -47 49q0 29 11 55t30 46t45 32t55 12q35 0 66 -14t60 -31h-1q24 -14 48.5 -25.5t47.5 -11.5q24 0 44.5 12.5
t20.5 36.5q0 9 1 18.5t5.5 17t13.5 12.5t24 5q26 0 35.5 -16.5t9.5 -34.5q0 -31 -12.5 -57t-33.5 -45t-48 -29.5t-57 -10.5q-37 0 -69 14.5t-61 31.5q-23 14 -46.5 25.5t-45.5 11.5z" />
    <glyph glyph-name="Adieresis" unicode="&#xc4;" horiz-adv-x="1976" 
d="M432 405h1076q-68 136 -134.5 268t-132.5 264t-133 264.5t-135 268.5zM384 312l-264 -520q-2 -3 -7.5 -8.5t-11.5 -10t-12 -8t-10 -3.5q-20 0 -34.5 13.5t-14.5 35.5q0 2 10.5 25t28.5 59.5t41 82t47.5 94t48.5 95.5t44 86l30 59h-132q-22 0 -35.5 13.5t-13.5 34.5
q0 28 13.5 36.5t35.5 8.5h180l600 1175q3 8 13.5 22t29.5 14q22 0 34 -11.5t18 -24.5l-1 1q9 -18 39.5 -78.5t76 -151t103 -204.5t120.5 -238.5t128.5 -254t126.5 -251t114.5 -229t94 -187.5t63.5 -127t23 -48q0 -18 -16 -34.5t-41 -16.5q-9 4 -27.5 31.5t-43 70t-52 95.5
t-54.5 106.5t-52 104.5t-44 89q-12 26 -16 36t-9 18h-1172zM1127 1855q31 0 54 -23t23 -54q0 -32 -23 -54.5t-54 -22.5q-14 0 -28 6.5t-25 17t-18 24.5t-7 29t7 28.5t18 24.5t25 17.5t28 6.5zM817 1855q31 0 54 -23t23 -54q0 -32 -23 -54.5t-54 -22.5q-14 0 -28 7t-25.5 18
t-18.5 24.5t-7 27.5q0 13 7 27t18.5 25t25.5 18t28 7z" />
    <glyph glyph-name="Aring" unicode="&#xc5;" horiz-adv-x="1976" 
d="M973 1793q-49 0 -80 -32.5t-31 -80.5t31.5 -79.5t79.5 -31.5t80 31.5t32 79.5q0 24 -8.5 44.5t-23.5 35.5t-35.5 24t-44.5 9zM432 405h1076l-536 1055zM384 312l-265 -522q-2 -3 -7 -8t-11 -9.5t-12.5 -7.5t-9.5 -3q-20 0 -34.5 13.5t-14.5 35.5q0 2 10.5 25t28.5 59.5
t41 82t47.5 94t48.5 95.5t44 86l30 59h-132q-22 0 -35.5 13.5t-13.5 34.5q0 30 13.5 37.5t35.5 7.5h180l557 1093q-53 23 -83.5 73t-30.5 109q0 42 15.5 78.5t42.5 64t63.5 43.5t78.5 16t78.5 -16t64 -43.5t43.5 -64t16 -78.5q0 -59 -30 -109t-83 -73l184 -364
q49 -96 103 -203t110 -217.5t111.5 -220t106 -209t93.5 -185t75 -149t50 -100.5t18 -38q0 -18 -14.5 -34.5t-37.5 -16.5q-8 2 -24.5 25t-37.5 59.5t-46 82.5t-50.5 95.5t-50 98.5t-45.5 90q-5 9 -7.5 16t-7.5 15l-35 69h-1171z" />
    <glyph glyph-name="AE" unicode="&#xc6;" horiz-adv-x="2763" 
d="M88 -239q-8 0 -16.5 4.5t-15.5 11t-12 15t-5 17.5q0 5 19.5 33.5t51 71t71 95t80.5 105.5t79.5 102.5t67.5 86.5l10 11h-121q-20 0 -34.5 11.5t-14.5 34.5q0 30 13 37.5t36 7.5h189l907 1162q15 19 32 30t44 11h1059q20 0 34 -14.5t14 -34.5q0 -27 -13 -36t-35 -9h-1031
v-1109h1062q17 0 33 -12t16 -33q0 -29 -12 -37.5t-37 -8.5h-1062v-446h1031q17 0 32.5 -12t15.5 -32q0 -30 -11 -38.5t-37 -8.5h-1059q-19 0 -32 1t-21.5 7t-12 18.5t-3.5 35.5v475h-866l-69 -92q-31 -41 -68.5 -90t-76 -99.5t-76 -98.5t-68.5 -85.5t-52.5 -61.5t-28.5 -26
h-7zM606 405h794v1020z" />
    <glyph glyph-name="Ccedilla" unicode="&#xc7;" horiz-adv-x="1741" 
d="M1646 1348q0 -16 -11.5 -30.5t-31.5 -14.5q-11 0 -20.5 5t-16.5 10q-32 22 -69 47.5t-76 49.5t-77.5 44.5t-72.5 32.5q-59 18 -127.5 30t-131.5 12q-116 0 -222.5 -30t-199.5 -84.5t-169 -130.5t-130.5 -169.5t-84 -200.5t-29.5 -223q0 -113 30.5 -219t85.5 -199
t131.5 -169.5t169.5 -131.5t199 -85.5t219 -30.5q304 0 536 193l10 7.5t13 9t14 8t13 3.5q23 0 34 -13.5t11 -31.5q0 -16 -6.5 -25t-14.5 -17q-51 -51 -123.5 -92t-153.5 -71t-164 -47t-154 -19v-34h1q3 0 6 0.5t6 0.5q38 0 73 -9.5t62 -29.5t43 -51.5t16 -75.5
q0 -49 -18 -82.5t-48 -54.5t-69 -30t-81 -9q-8 0 -27.5 1t-45 4t-52.5 8t-50 13t-37.5 19t-14.5 26q0 17 14.5 29.5t33.5 12.5l13 -4q1 -1 9 -1q42 -9 82.5 -14t80.5 -5q23 0 45 4t39.5 13.5t28 26t10.5 41.5q0 28 -11 44t-28.5 24t-39.5 10t-45 2h-42q-15 0 -23.5 3
t-12.5 9t-4.5 14t-0.5 19v79q-118 10 -227 49t-204 102t-173.5 147t-134.5 184t-87 212.5t-31 232.5q0 128 33.5 247t94 222t145.5 188t188 145.5t221.5 94t246.5 33.5q81 0 162.5 -15.5t159 -45t149 -72t133.5 -96.5l-1 1q19 -16 31 -40v-10z" />
    <glyph glyph-name="Egrave" unicode="&#xc8;" horiz-adv-x="1612" 
d="M189 312h-157q-21 0 -34.5 13.5t-13.5 34.5q0 28 13.5 36.5t34.5 8.5h157v1152q0 16 7.5 26.5t18.5 15.5t22.5 7t20.5 2h1148q19 0 33.5 -14.5t14.5 -34.5q0 -25 -14.5 -35t-33.5 -10h-1120v-1109h1153q20 0 34 -14t14 -34q0 -25 -14 -35t-34 -10h-1153v-444h1120
q16 0 32 -12t16 -32q0 -27 -11 -38t-37 -11h-1148q-20 0 -33.5 2.5t-21.5 9.5t-11 20t-3 34v471zM899 1680q0 -18 -12.5 -31t-30.5 -13q-12 0 -21.5 6t-13.5 10l-4 5q-2 3 -5 5.5t-8 7.5q-15 14 -36.5 35.5t-45 45.5t-47.5 49.5t-42.5 47t-30.5 38.5t-12 24q0 19 14 30.5
t29 11.5q8 0 18.5 -3.5t18.5 -11.5l32 -32q27 -26 61 -60.5t64 -67.5t51 -60t21 -37z" />
    <glyph glyph-name="Eacute" unicode="&#xc9;" horiz-adv-x="1612" 
d="M189 312h-157q-21 0 -34.5 13.5t-13.5 34.5q0 28 13.5 36.5t34.5 8.5h157v1152q0 16 7.5 26.5t18.5 15.5t22.5 7t20.5 2h1148q19 0 33.5 -14.5t14.5 -34.5q0 -25 -14.5 -35t-33.5 -10h-1120v-1109h1153q20 0 34 -14t14 -34q0 -25 -14 -35t-34 -10h-1153v-444h1120
q16 0 32 -12t16 -32q0 -27 -11 -38t-37 -11h-1148q-20 0 -33.5 2.5t-21.5 9.5t-11 20t-3 34v471zM977 1952q14 0 28.5 -11.5t14.5 -30.5q0 -11 -25 -41.5t-60 -68t-72 -74t-60 -59.5l-12 -12l-3 -4q-3 -3 -15 -9t-19 -6q-18 0 -31 13t-13 31q0 12 21.5 40t52 61t64 67
t58.5 58l33 32q8 8 18 11t20 3z" />
    <glyph glyph-name="Ecircumflex" unicode="&#xca;" horiz-adv-x="1612" 
d="M189 312h-157q-21 0 -34.5 13.5t-13.5 34.5q0 28 13.5 36.5t34.5 8.5h157v1152q0 16 7.5 26.5t18.5 15.5t22.5 7t20.5 2h1148q19 0 33.5 -14.5t14.5 -34.5q0 -25 -14.5 -35t-33.5 -10h-1120v-1109h1153q20 0 34 -14t14 -34q0 -25 -14 -35t-34 -10h-1153v-444h1120
q16 0 32 -12t16 -32q0 -27 -11 -38t-37 -11h-1148q-20 0 -33.5 2.5t-21.5 9.5t-11 20t-3 34v471zM1045 1682q0 -16 -14.5 -30t-30.5 -14q-10 0 -33.5 20.5t-52 50t-57.5 62t-50 57.5v-1l-3 2l-1 -1q-21 -24 -50 -57t-57.5 -62.5t-52 -50t-33.5 -20.5q-18 0 -32 13t-14 31
q0 13 18 38t44 55t55 59.5t50 51.5l29 28q7 8 19.5 14.5t25.5 6.5q12 0 26 -7t20 -15q2 -2 5 -5.5t8 -7.5l42 -42q22 -23 46.5 -49.5t45 -50.5t34 -44.5t13.5 -31.5z" />
    <glyph glyph-name="Edieresis" unicode="&#xcb;" horiz-adv-x="1612" 
d="M189 312h-157q-21 0 -34.5 13.5t-13.5 34.5q0 28 13.5 36.5t34.5 8.5h157v1152q0 16 7.5 26.5t18.5 15.5t22.5 7t20.5 2h1148q19 0 33.5 -14.5t14.5 -34.5q0 -25 -14.5 -35t-33.5 -10h-1120v-1109h1153q20 0 34 -14t14 -34q0 -25 -14 -35t-34 -10h-1153v-444h1120
q16 0 32 -12t16 -32q0 -27 -11 -38t-37 -11h-1148q-20 0 -33.5 2.5t-21.5 9.5t-11 20t-3 34v471zM961 1855q31 0 54 -23t23 -54q0 -32 -23 -54.5t-54 -22.5q-14 0 -28 6.5t-25 17t-18 24.5t-7 29t7 28.5t18 24.5t25 17.5t28 6.5zM651 1855q31 0 53.5 -23t22.5 -54
q0 -32 -22.5 -54.5t-53.5 -22.5q-14 0 -28 7t-25.5 18t-18.5 24.5t-7 27.5q0 13 7 27t18.5 25t25.5 18t28 7z" />
    <glyph glyph-name="Igrave" unicode="&#xcc;" horiz-adv-x="512" 
d="M204 1567q0 21 13 35t35 14q29 0 36.5 -14t7.5 -35v-1751q0 -22 -12.5 -36t-35.5 -14q-29 0 -36.5 14t-7.5 36v1751zM345 1680q0 -18 -13 -31t-31 -13q-12 0 -21 6t-13 10l-1 1q-5 6 -17 17q-14 14 -35.5 35t-45.5 45.5t-47.5 49.5t-42.5 47t-31 39t-12 24
q0 19 14.5 30.5t28.5 11.5q8 0 19 -3.5t19 -11.5l31 -32q27 -26 61 -60.5t64.5 -67.5t51.5 -60t21 -37z" />
    <glyph glyph-name="Iacute" unicode="&#xcd;" horiz-adv-x="512" 
d="M206 1567q0 21 13.5 35t34.5 14q29 0 37 -14t8 -35v-1751q0 -22 -13 -36t-36 -14q-29 0 -36.5 14t-7.5 36v1751zM424 1952q16 0 29.5 -11.5t13.5 -30.5q0 -11 -25 -41.5t-60 -68t-72 -74t-60 -59.5l-7 -7t-5 -7l-1 -2q-3 -3 -16 -9t-20 -6q-17 0 -30 13t-13 31
q0 12 21 39.5t51.5 60.5t64 67t58.5 59l34 32q8 8 17.5 11t19.5 3z" />
    <glyph glyph-name="Icircumflex" unicode="&#xce;" horiz-adv-x="512" 
d="M205 1567q0 21 13 35t36 14q29 0 36.5 -14t7.5 -35v-1751q0 -22 -13.5 -36t-34.5 -14q-30 0 -37.5 14t-7.5 36v1751zM491 1682q0 -16 -14 -30t-30 -14q-10 0 -33.5 20.5t-52 49.5t-57 61.5t-49.5 56.5v-1l-4 4l-1 -1q-21 -24 -50 -57t-57.5 -62.5t-53 -50t-34.5 -20.5
q-17 0 -30.5 13t-13.5 31q0 13 18 38t44 55t55 59.5t50 51.5l29 29v-1q6 7 18.5 14t26.5 7q10 0 24.5 -6.5t20.5 -14.5v1l12 -13l22 -23q22 -23 50 -52t52.5 -57.5t41 -52t16.5 -35.5z" />
    <glyph glyph-name="Idieresis" unicode="&#xcf;" horiz-adv-x="512" 
d="M205 1567q0 21 13 35t36 14q29 0 36.5 -14t7.5 -35v-1751q0 -22 -13.5 -36t-34.5 -14q-30 0 -37.5 14t-7.5 36v1751zM408 1855q31 0 53.5 -23t22.5 -54q0 -32 -22.5 -54.5t-53.5 -22.5q-14 0 -28.5 6.5t-25.5 17t-18 24.5t-7 29t7 28.5t18 24.5t25.5 17.5t28.5 6.5z
M98 1855q31 0 53 -23t22 -54q0 -32 -22 -54.5t-53 -22.5q-14 0 -28.5 7t-25.5 18t-18 24.5t-7 27.5q0 13 7 27t18 25t25.5 18t28.5 7z" />
    <glyph glyph-name="Eth" unicode="&#xd0;" horiz-adv-x="1858" 
d="M305 -132h422q79 0 159.5 7t160.5 27v-1q133 37 243 114t188.5 183t121.5 233.5t43 264.5q0 150 -49 281.5t-137.5 236t-211 175.5t-268.5 100q-87 15 -175 20t-173 5h-324v-1110h570q17 0 32.5 -11t15.5 -34q0 -16 -4 -25t-11 -13.5t-16 -5.5t-19 -1h-568v-446z
M658 1608q66 0 138.5 -4t145 -13.5t142 -26.5t131.5 -44q121 -56 217.5 -142t164 -193.5t104 -232t36.5 -256.5q0 -147 -44.5 -286t-126 -255.5t-198 -203t-260.5 -129.5q-100 -29 -210 -38t-212 -9h-408q-14 0 -26 1.5t-22 7t-15.5 16.5t-5.5 31v482q-4 0 -8.5 -0.5
t-8.5 -0.5q-14 -1 -33.5 -1.5t-33.5 -0.5q-24 0 -46 2t-38.5 7.5t-26.5 15t-10 24.5t10 24t26.5 14.5t38.5 7.5t46 2q16 0 34 -0.5t33 -1.5q3 0 7.5 -0.5t7.5 -0.5h2v1153q0 16 7.5 26.5t18.5 15.5t22.5 7t20.5 2h380z" />
    <glyph glyph-name="Ntilde" unicode="&#xd1;" horiz-adv-x="1911" 
d="M289 1435v-1619q0 -22 -13.5 -36t-36.5 -14q-26 0 -35 15t-9 35v1749q0 9 1 18.5t5.5 17t13.5 12.5t24 5q6 0 16 -2.5t21 -10.5l1313 -1655v1617q0 15 11 33t34 18q27 0 38.5 -13t11.5 -38v-1747q0 -9 -1.5 -19t-6.5 -17.5t-14.5 -12.5t-24.5 -5q-17 0 -26.5 8t-18.5 19
l-6 8l1 -2zM832 1790q-25 0 -34 -12t-15 -28q-5 -22 -23 -51q-3 -4 -10 -8.5t-14 -4.5q-47 0 -47 49q0 29 11 55t30 46t45 32t55 12q36 0 66.5 -14t59.5 -31h-1q24 -14 48.5 -25.5t47.5 -11.5q24 0 44.5 12.5t20.5 36.5q0 9 1 18.5t5.5 17t13.5 12.5t24 5q26 0 36 -16.5
t10 -34.5q0 -31 -12.5 -57t-33.5 -45t-48.5 -29.5t-57.5 -10.5q-37 0 -69 14.5t-61 31.5q-23 14 -46.5 25.5t-45.5 11.5z" />
    <glyph glyph-name="Ograve" unicode="&#xd2;" horiz-adv-x="2066" 
d="M180 696q0 -114 30 -220t85 -199t131.5 -169.5t169.5 -131.5t199 -85t221 -30t222 30t199.5 84t168.5 130.5t130 169t83.5 199.5t29.5 222q0 117 -29 224.5t-82.5 200.5t-129 169.5t-168 130.5t-200 83.5t-224.5 29.5q-116 0 -223 -30t-199.5 -85t-169 -131.5
t-130.5 -169.5t-84 -200t-30 -222zM86 696q0 129 33 248.5t93.5 222.5t145 188t188 145t222.5 93t248 33q130 0 249 -33t222 -93t187.5 -144.5t144.5 -188t92.5 -223t32.5 -248.5q0 -128 -33 -246.5t-93.5 -222t-145.5 -188.5t-188 -145.5t-221.5 -94t-246.5 -33.5
q-127 0 -245.5 33.5t-222 95t-188.5 146.5t-146 188.5t-94.5 221.5t-33.5 245zM1110 1680q0 -18 -13 -31t-30 -13q-12 0 -22 6t-14 10l-1 1q-2 3 -6 7.5t-10 9.5q-14 14 -35.5 35t-45.5 45.5t-47.5 49.5t-42.5 47t-31 39t-12 24q0 19 14 30.5t30 11.5q8 0 18 -3t18 -11
l33 -32q26 -26 60 -60.5t64.5 -68t51.5 -60.5t21 -37z" />
    <glyph glyph-name="Oacute" unicode="&#xd3;" horiz-adv-x="2066" 
d="M180 696q0 -114 30 -220t85 -199t131.5 -169.5t169.5 -131.5t199 -85t221 -30t222 30t199.5 84t168.5 130.5t130 169t83.5 199.5t29.5 222q0 117 -29 224.5t-82.5 200.5t-129 169.5t-168 130.5t-200 83.5t-224.5 29.5q-116 0 -223 -30t-199.5 -85t-169 -131.5
t-130.5 -169.5t-84 -200t-30 -222zM86 696q0 129 33 248.5t93.5 222.5t145 188t188 145t222.5 93t248 33q130 0 249 -33t222 -93t187.5 -144.5t144.5 -188t92.5 -223t32.5 -248.5q0 -128 -33 -246.5t-93.5 -222t-145.5 -188.5t-188 -145.5t-221.5 -94t-246.5 -33.5
q-127 0 -245.5 33.5t-222 95t-188.5 146.5t-146 188.5t-94.5 221.5t-33.5 245zM1186 1952q16 0 30.5 -11.5t14.5 -30.5q0 -11 -25 -41.5t-60 -68t-72 -74t-60 -59.5l-12 -12l-3 -4q-3 -3 -16 -9t-18 -6q-18 0 -31.5 13t-13.5 31q0 12 18 36t45 53.5t58 61t57 57.5l18 18
l34 32q8 8 18 11t18 3z" />
    <glyph glyph-name="Ocircumflex" unicode="&#xd4;" horiz-adv-x="2066" 
d="M180 696q0 -114 30 -220t85 -199t131.5 -169.5t169.5 -131.5t199 -85t221 -30t222 30t199.5 84t168.5 130.5t130 169t83.5 199.5t29.5 222q0 117 -29 224.5t-82.5 200.5t-129 169.5t-168 130.5t-200 83.5t-224.5 29.5q-116 0 -223 -30t-199.5 -85t-169 -131.5
t-130.5 -169.5t-84 -200t-30 -222zM86 696q0 129 33 248.5t93.5 222.5t145 188t188 145t222.5 93t248 33q130 0 249 -33t222 -93t187.5 -144.5t144.5 -188t92.5 -223t32.5 -248.5q0 -128 -33 -246.5t-93.5 -222t-145.5 -188.5t-188 -145.5t-221.5 -94t-246.5 -33.5
q-127 0 -245.5 33.5t-222 95t-188.5 146.5t-146 188.5t-94.5 221.5t-33.5 245zM1255 1682q0 -16 -14 -30t-30 -14q-10 0 -33.5 20.5t-52 49.5t-57 61.5t-49.5 56.5v-1l-4 4l-1 -1q-21 -24 -50 -57t-57.5 -62.5t-53 -50t-34.5 -20.5q-17 0 -30.5 13t-13.5 31q0 13 18 38
t44 55t55 59.5t50 51.5l28 29v-1q7 7 19.5 14t26.5 7q10 0 24.5 -6.5t20.5 -14.5v1l12 -13l22 -23q22 -23 50 -52t52.5 -57.5t41 -52t16.5 -35.5z" />
    <glyph glyph-name="Otilde" unicode="&#xd5;" horiz-adv-x="2066" 
d="M180 696q0 -114 30 -220t85 -199t131.5 -169.5t169.5 -131.5t199 -85t221 -30t222 30t199.5 84t168.5 130.5t130 169t83.5 199.5t29.5 222q0 117 -29 224.5t-82.5 200.5t-129 169.5t-168 130.5t-200 83.5t-224.5 29.5q-116 0 -223 -30t-199.5 -85t-169 -131.5
t-130.5 -169.5t-84 -200t-30 -222zM86 696q0 129 33 248.5t93.5 222.5t145 188t188 145t222.5 93t248 33q130 0 249 -33t222 -93t187.5 -144.5t144.5 -188t92.5 -223t32.5 -248.5q0 -128 -33 -246.5t-93.5 -222t-145.5 -188.5t-188 -145.5t-221.5 -94t-246.5 -33.5
q-127 0 -245.5 33.5t-222 95t-188.5 146.5t-146 188.5t-94.5 221.5t-33.5 245zM899 1790q-26 0 -34.5 -11.5t-14.5 -28.5q-4 -11 -9 -23t-16 -28q-3 -4 -9.5 -8.5t-12.5 -4.5q-48 0 -48 49q0 29 11 55t30 46t45 32t56 12q33 0 63.5 -14t61.5 -31q24 -14 48 -25.5t48 -11.5
q23 0 43.5 12.5t20.5 36.5q0 9 1 18.5t5.5 17t13.5 12.5t25 5q24 0 34.5 -16.5t10.5 -34.5q0 -31 -13 -57t-34 -45t-48 -29.5t-56 -10.5q-38 0 -70.5 14.5t-60.5 31.5q-23 14 -47 25.5t-44 11.5z" />
    <glyph glyph-name="Odieresis" unicode="&#xd6;" horiz-adv-x="2066" 
d="M180 696q0 -114 30 -220t85 -199t131.5 -169.5t169.5 -131.5t199 -85t221 -30t222 30t199.5 84t168.5 130.5t130 169t83.5 199.5t29.5 222q0 117 -29 224.5t-82.5 200.5t-129 169.5t-168 130.5t-200 83.5t-224.5 29.5q-116 0 -223 -30t-199.5 -85t-169 -131.5
t-130.5 -169.5t-84 -200t-30 -222zM86 696q0 129 33 248.5t93.5 222.5t145 188t188 145t222.5 93t248 33q130 0 249 -33t222 -93t187.5 -144.5t144.5 -188t92.5 -223t32.5 -248.5q0 -128 -33 -246.5t-93.5 -222t-145.5 -188.5t-188 -145.5t-221.5 -94t-246.5 -33.5
q-127 0 -245.5 33.5t-222 95t-188.5 146.5t-146 188.5t-94.5 221.5t-33.5 245zM1172 1855q31 0 53 -23t22 -54q0 -32 -22 -54.5t-53 -22.5q-15 0 -29 6.5t-25 17t-18 24.5t-7 29t7 28.5t18 24.5t25 17.5t29 6.5zM862 1855q31 0 53 -23t22 -54q0 -32 -22 -54.5t-53 -22.5
q-14 0 -28.5 7t-25.5 18t-18 24.5t-7 27.5q0 13 7 27t18 25t25.5 18t28.5 7z" />
    <glyph glyph-name="multiply" unicode="&#xd7;" horiz-adv-x="1706" 
d="M340 1144q9 10 21.5 10.5t21.5 -8.5l460 -462l460 461q9 9 21.5 9t21.5 -9l26 -28q9 -8 10 -20.5t-9 -22.5l-460 -460l459 -459q9 -9 9 -21.5t-9 -21.5l-28 -30q-9 -7 -20.5 -7t-20.5 7l-461 462l-460 -462q-9 -7 -20.5 -7t-17.5 6l-32 34q-8 9 -8 20.5t9 20.5l460 458
l-461 460q-10 10 -9.5 22t10.5 20l-1 -2z" />
    <glyph glyph-name="Oslash" unicode="&#xd8;" horiz-adv-x="2066" 
d="M536 16q109 -72 227.5 -113.5t252.5 -41.5q115 0 222 30t199.5 84t168.5 130.5t130 169t83.5 199.5t29.5 222q0 207 -84.5 379t-248.5 296zM1441 1420q-100 57 -204.5 85.5t-220.5 28.5t-223 -30t-199.5 -84.5t-169 -131t-130.5 -170t-84 -200.5t-30 -222q0 -89 19 -176
t55 -167.5t88.5 -152.5t120.5 -130zM464 -77q-21 -30 -49 -69t-55.5 -75.5t-51 -63.5t-35.5 -33q-21 0 -36 12t-15 31q0 5 9 20.5t23.5 38t32.5 49t37 53.5t37 51.5t32 43.5l10 13q-75 67 -133.5 147t-99.5 170t-62.5 187t-21.5 198q0 129 33 248t93 222.5t145 188t188 145
t222.5 93.5t248.5 33q130 0 248 -33.5t230 -98.5q11 16 28 39.5t36 48.5t38.5 49.5t36.5 44.5t30 32t19 12q26 0 35.5 -10t9.5 -34q0 -8 -16 -33.5t-39 -58.5t-49 -67.5t-45 -60.5l-7 -10q89 -70 158.5 -153t117 -177.5t72.5 -199.5t25 -220q0 -128 -33.5 -246.5t-94 -222
t-145 -188.5t-187.5 -145.5t-221.5 -94t-246.5 -33.5q-152 0 -284 45.5t-256 128.5z" />
    <glyph glyph-name="Ugrave" unicode="&#xd9;" horiz-adv-x="1878" 
d="M1677 520q0 -69 -8.5 -144.5t-30.5 -143.5q-26 -71 -69 -133.5t-98.5 -114.5t-121.5 -93.5t-137 -70t-145 -43.5t-146 -15q-111 0 -222 32.5t-208 93.5t-172.5 148t-113.5 196q-23 69 -31.5 143.5t-8.5 144.5v1047q0 21 13.5 35t36.5 14q27 0 36.5 -14t9.5 -35v-1041
q0 -65 8 -135.5t26 -133.5v1q33 -95 98.5 -170t150.5 -126.5t182 -79t195 -27.5q97 0 195.5 26.5t183.5 77.5t150.5 126t97.5 172q21 64 28 132.5t7 136.5v1041q0 21 13 35t35 14q29 0 37.5 -13.5t8.5 -35.5v-1047zM1018 1680q0 -18 -13.5 -31t-30.5 -13q-11 0 -21 6t-14 10
l-1 1q-2 3 -6.5 7.5l-9.5 9.5q-14 14 -35.5 35t-45.5 45.5t-48 49.5t-43 47t-31 39t-12 24q0 19 14.5 30.5t30.5 11.5q8 0 18 -3t18 -11l32 -32l60.5 -60.5t65 -68t51.5 -60.5t21 -37z" />
    <glyph glyph-name="Uacute" unicode="&#xda;" horiz-adv-x="1878" 
d="M1677 520q0 -69 -8.5 -144.5t-30.5 -143.5q-26 -71 -69 -133.5t-98.5 -114.5t-121.5 -93.5t-137 -70t-145 -43.5t-146 -15q-111 0 -222 32.5t-208 93.5t-172.5 148t-113.5 196q-23 69 -31.5 143.5t-8.5 144.5v1047q0 21 13.5 35t36.5 14q27 0 36.5 -14t9.5 -35v-1041
q0 -65 8 -135.5t26 -133.5v1q33 -95 98.5 -170t150.5 -126.5t182 -79t195 -27.5q97 0 195.5 26.5t183.5 77.5t150.5 126t97.5 172q21 64 28 132.5t7 136.5v1041q0 21 13 35t35 14q29 0 37.5 -13.5t8.5 -35.5v-1047zM1094 1952q16 0 30.5 -11.5t14.5 -30.5q0 -11 -25.5 -41.5
t-60.5 -68t-71.5 -74l-59.5 -59.5l-12 -12l-3 -4q-3 -3 -16 -9t-20 -6q-17 0 -30 13t-13 31q0 12 18 36t45 53.5t58 61t57 57.5l18 18l34 32q8 8 17.5 11t18.5 3z" />
    <glyph glyph-name="Ucircumflex" unicode="&#xdb;" horiz-adv-x="1878" 
d="M1677 520q0 -69 -8.5 -144.5t-30.5 -143.5q-26 -71 -69 -133.5t-98.5 -114.5t-121.5 -93.5t-137 -70t-145 -43.5t-146 -15q-111 0 -222 32.5t-208 93.5t-172.5 148t-113.5 196q-23 69 -31.5 143.5t-8.5 144.5v1047q0 21 13.5 35t36.5 14q27 0 36.5 -14t9.5 -35v-1041
q0 -65 8 -135.5t26 -133.5v1q33 -95 98.5 -170t150.5 -126.5t182 -79t195 -27.5q97 0 195.5 26.5t183.5 77.5t150.5 126t97.5 172q21 64 28 132.5t7 136.5v1041q0 21 13 35t35 14q29 0 37.5 -13.5t8.5 -35.5v-1047zM1163 1682q0 -8 -4 -16t-10.5 -14t-14.5 -10t-15 -4
q-11 0 -35 20.5t-52.5 49.5t-57.5 62t-50 57l-1 1l-1 -1v1q-20 -24 -49 -56.5t-58 -62.5t-53.5 -50.5t-34.5 -20.5q-17 0 -30.5 13t-13.5 31q0 13 18 38t44 55t55 59.5t50 51.5l28 29v-1q7 7 20 14t25 7q11 0 25.5 -6.5t20.5 -14.5v1l34 -36q22 -23 50 -52t52.5 -57.5
t41 -52t16.5 -35.5z" />
    <glyph glyph-name="Udieresis" unicode="&#xdc;" horiz-adv-x="1878" 
d="M1677 520q0 -69 -8.5 -144.5t-30.5 -143.5q-26 -71 -69 -133.5t-98.5 -114.5t-121.5 -93.5t-137 -70t-145 -43.5t-146 -15q-111 0 -222 32.5t-208 93.5t-172.5 148t-113.5 196q-23 69 -31.5 143.5t-8.5 144.5v1047q0 21 13.5 35t36.5 14q27 0 36.5 -14t9.5 -35v-1041
q0 -65 8 -135.5t26 -133.5v1q33 -95 98.5 -170t150.5 -126.5t182 -79t195 -27.5q97 0 195.5 26.5t183.5 77.5t150.5 126t97.5 172q21 64 28 132.5t7 136.5v1041q0 21 13 35t35 14q29 0 37.5 -13.5t8.5 -35.5v-1047zM1079 1855q32 0 54 -23t22 -54q0 -32 -22 -54.5t-54 -22.5
q-14 0 -28 6.5t-25 17t-18 24.5t-7 29t7 28.5t18 24.5t25 17.5t28 6.5zM768 1855q16 0 30 -6.5t24.5 -17t16.5 -24.5t6 -29q0 -32 -22.5 -54.5t-54.5 -22.5q-14 0 -27.5 7t-24.5 18t-18 24.5t-7 27.5q0 13 7 27t18 25t24.5 18t27.5 7z" />
    <glyph glyph-name="Yacute" unicode="&#xdd;" horiz-adv-x="1593" 
d="M781 -234q-28 0 -37 14t-9 36v864l-171 213l-67 83q-50 62 -104 129.5t-105.5 132t-98 123t-81 104t-55 73.5t-20.5 33q0 17 18 31t36 14l25 -11l671 -834q168 209 331.5 413.5t331.5 412.5v-1q2 3 7.5 6.5t11.5 6.5t11.5 5t8.5 2q17 0 32 -14t15 -31q0 -5 -30 -46
t-79 -104t-112.5 -142.5t-130 -162.5t-131.5 -163.5t-117 -144.5l-103 -129v-863q0 -22 -13.5 -36t-34.5 -14zM954 1952q15 0 29.5 -11.5t14.5 -30.5q0 -11 -25 -41.5t-60 -68t-72 -74t-60 -59.5l-12 -12l-3 -4q-3 -3 -15 -9t-19 -6q-18 0 -31 13t-13 31q0 12 21.5 40t52 61
t64 67t58.5 58l33 32q8 8 18 11t19 3z" />
    <glyph glyph-name="Thorn" unicode="&#xde;" horiz-adv-x="1597" 
d="M239 -234q-24 0 -36 15t-12 35v1747q0 20 13.5 34.5t36.5 14.5q21 0 34 -14t13 -35v-265h331q104 0 213.5 -6t213.5 -32t197 -78.5t164 -145.5q56 -73 82.5 -158t26.5 -178q0 -75 -22 -149.5t-60 -139.5q-49 -76 -111.5 -128.5t-134.5 -87t-151 -53.5t-161.5 -28.5
t-165 -11.5t-161.5 -2h-261v-284q0 -22 -14 -36t-35 -14zM288 194h11q20 -1 40 -1.5t40 -0.5h236q101 0 205.5 6t201 30.5t180 75.5t143.5 141h-1q39 59 58.5 123t19.5 132q0 104 -32 182t-87.5 134t-129.5 93t-158 58.5t-173.5 30t-175.5 8.5h-378v-1012z" />
    <glyph glyph-name="germandbls" unicode="&#xdf;" horiz-adv-x="811" 
d="M211 790q11 34 41.5 71t70.5 79q33 36 68.5 78.5t65.5 89t49.5 98t19.5 105.5q0 38 -9.5 70.5t-28.5 56t-48 37t-68 13.5q-51 0 -82.5 -19t-49 -51t-23.5 -73.5t-6 -86.5v-468zM164 -367q-29 0 -37 12t-8 35v1574q0 63 11 121.5t39.5 103.5t77.5 72.5t124 27.5
q61 0 107.5 -19.5t77.5 -54.5t46.5 -84t15.5 -107q0 -70 -23 -132.5t-58 -118t-76.5 -103t-78.5 -86.5q-16 -17 -30.5 -32.5t-25.5 -29t-17.5 -24t-6.5 -16.5q0 -9 30 -25.5t75 -38.5q34 -17 72.5 -36t75.5 -43t70.5 -53.5t59.5 -67t41 -83t15 -101.5q0 -69 -23.5 -130.5
t-66.5 -107.5t-103 -73t-132 -27q-23 0 -40 3t-34 7h1q-1 0 -2 0.5t-2 0.5h-2q-14 4 -27 6.5t-25 2.5q-10 8 -20 21t-10 25q0 13 5 22t13 14.5t17 7.5t17 2q15 0 27.5 -2t27.5 -7q1 0 1 -0.5t2 -0.5q13 -3 27.5 -6t25.5 -3q51 0 93 19.5t73 52.5t48 77.5t17 94.5
q0 61 -27 108t-68.5 83t-91.5 62.5t-95 47.5q-56 26 -99 51t-57 59v-1054q0 -21 -13 -34t-34 -13z" />
    <glyph glyph-name="agrave" unicode="&#xe0;" horiz-adv-x="870" 
d="M723 44q0 -21 -9 -34.5t-36 -13.5q-21 0 -35 13.5t-14 34.5v246q-30 -56 -70.5 -110.5t-90 -97.5t-106.5 -69.5t-120 -26.5q-91 0 -146 49t-55 143q0 66 27.5 124.5t73 107t105 86.5t124 64t129 40t121.5 14h9q13 0 29.5 -0.5t30.5 -5.5t23.5 -16.5t9.5 -32.5v-515z
M242 77q50 0 94 20t82.5 54t71 78.5t58 93.5t44 100t29.5 97q-47 -1 -101.5 -11.5t-108.5 -30.5t-104 -49.5t-88.5 -67t-61.5 -83.5t-23 -100q0 -48 30 -74.5t78 -26.5zM629 663q0 -17 -12.5 -30t-30.5 -13q-11 0 -20 5.5t-14 10.5q-2 3 -6.5 7.5t-10.5 9.5l-17 16
q-24 24 -57 57.5t-63 66t-51 59t-21 37.5q0 18 13.5 29.5t29.5 11.5q8 0 18 -3t18 -11l31 -31l59.5 -59.5t63 -66.5t50 -59.5t20.5 -36.5z" />
    <glyph glyph-name="aacute" unicode="&#xe1;" horiz-adv-x="870" 
d="M723 44q0 -21 -9 -34.5t-35 -13.5q-22 0 -35.5 13.5t-13.5 34.5v246q-30 -56 -71 -110.5t-90.5 -97.5t-106.5 -69.5t-120 -26.5q-91 0 -145.5 49t-54.5 143q0 66 27 124.5t72.5 107t105 86.5t124 64t129.5 40t122 14h8q13 0 29.5 -0.5t30.5 -5.5t23.5 -16.5t9.5 -32.5
v-515zM242 77q50 0 94 20t82.5 54t71 78.5t58 93.5t44.5 100t30 97q-47 -1 -101.5 -11.5t-108.5 -30.5t-104 -49.5t-88.5 -67t-61.5 -83.5t-23 -100q0 -48 30 -74.5t77 -26.5zM705 930q15 0 29 -11.5t14 -29.5q0 -7 -12 -23.5t-31 -39t-43 -47.5t-48 -49.5t-45 -45
t-35 -33.5h1q-5 -5 -8 -8.5t-4 -5.5l-1 -2q-3 -3 -16 -9t-19 -6q-17 0 -30 13t-13 30q0 11 18.5 36t46.5 55t59 61.5t57 56.5l11 12l33 32v-1q7 8 17 11.5t19 3.5z" />
    <glyph glyph-name="acircumflex" unicode="&#xe2;" horiz-adv-x="870" 
d="M723 44q0 -21 -9 -34.5t-35 -13.5q-22 0 -35 13.5t-13 34.5v246q-30 -56 -71 -110.5t-90.5 -97.5t-107 -69.5t-120.5 -26.5q-91 0 -145 49t-54 143q0 66 27 124.5t72.5 107t105 86.5t124 64t129.5 40t122 14h8q13 0 29.5 -0.5t30 -5.5t23 -16.5t9.5 -32.5v-515zM242 77
q50 0 94.5 20t83 54t70.5 78.5t57.5 93.5t44.5 100t30 97q-47 -1 -101.5 -11.5t-108.5 -30.5t-104 -49.5t-88.5 -67t-61.5 -83.5t-23 -100q0 -48 30 -74.5t77 -26.5zM772 665q0 -15 -14 -29t-29 -14q-10 0 -33.5 20t-51 48.5t-55.5 60.5t-48 55v-1l-4 4q-2 -2 -3 -2l-1 -1
q-20 -23 -48 -54.5t-55.5 -60.5t-50.5 -49t-33 -20q-17 0 -30.5 13t-13.5 30q0 12 15.5 34t38 48.5t48.5 53.5t48 50l5 5t5 6q3 4 6 7l26 25v-1q6 8 18 14t25 6q11 0 24.5 -6t20.5 -14v1l18 -19l16 -16q21 -22 48 -50.5t51 -56t40.5 -51t16.5 -36.5z" />
    <glyph glyph-name="atilde" unicode="&#xe3;" horiz-adv-x="870" 
d="M723 44q0 -21 -9 -34.5t-35 -13.5q-21 0 -34.5 13.5t-13.5 34.5v246q-30 -56 -71 -110.5t-90.5 -97.5t-106.5 -69.5t-121 -26.5q-45 0 -81.5 12.5t-62.5 36.5t-40.5 60t-14.5 83q0 66 27 124.5t72.5 107t105 86.5t124 64t129.5 40t122 14h8h30t30 -5t23 -16.5t9 -33.5
v-515zM242 77q50 0 94.5 20t83 54t70.5 78.5t57.5 93.5t44.5 100t30 97q-47 -1 -101.5 -11.5t-108.5 -30.5t-104 -49.5t-88.5 -67t-61.5 -83.5t-23 -100q0 -48 30 -74.5t77 -26.5zM424 771q-26 0 -34.5 -11.5t-13.5 -27.5q-4 -12 -9 -24t-15 -26v1q-3 -5 -10 -9.5t-12 -4.5
q-48 0 -48 48q0 29 11 55t30 45.5t44.5 31t54.5 11.5q34 0 63.5 -14t58.5 -31l-3 1q2 -1 4.5 -2.5t4.5 -2.5q23 -11 45 -22t43 -11q23 0 43 13t20 36q0 19 6.5 35t36.5 16q24 0 34.5 -15.5t10.5 -33.5q0 -30 -12.5 -55.5t-33 -44t-47.5 -29t-56 -10.5q-37 0 -67.5 14
t-59.5 31l3 -1q-2 1 -4.5 2.5t-4.5 2.5q-22 12 -42.5 22t-40.5 10z" />
    <glyph glyph-name="adieresis" unicode="&#xe4;" horiz-adv-x="870" 
d="M723 44q0 -21 -9 -34.5t-35 -13.5q-22 0 -35 13.5t-13 34.5v246q-30 -56 -71 -110.5t-90.5 -97.5t-107 -69.5t-120.5 -26.5q-91 0 -145 49t-54 143q0 66 27 124.5t72.5 107t105 86.5t123.5 64t129 40t122 14h9q13 0 29 -0.5t30 -5.5t23.5 -16.5t9.5 -32.5v-515zM242 77
q50 0 94 20t82.5 54t71 78.5t58 93.5t44.5 100t30 97q-47 -1 -101.5 -11.5t-108.5 -30.5t-104 -49.5t-88.5 -67t-61.5 -83.5t-23 -100q0 -48 30 -74.5t77 -26.5zM690 835q31 0 53.5 -22t22.5 -53t-22.5 -53.5t-53.5 -22.5q-14 0 -27.5 6t-24.5 16.5t-18 24.5t-7 29t7 28.5
t18 24t24.5 16.5t27.5 6zM387 835q30 0 52 -22t22 -53t-22 -53.5t-52 -22.5q-14 0 -28 6.5t-25 17.5t-18 24.5t-7 27.5q0 13 7 26.5t18 24.5t25 17.5t28 6.5z" />
    <glyph glyph-name="aring" unicode="&#xe5;" horiz-adv-x="870" 
d="M723 44q0 -21 -9 -34.5t-36 -13.5q-21 0 -35 13.5t-14 34.5v246q-30 -56 -70.5 -110.5t-90 -97.5t-106.5 -69.5t-120 -26.5q-91 0 -146 49t-55 143q0 66 27.5 124.5t73 107t105 86.5t124 64t129 40t121.5 14h9q13 0 29.5 -0.5t30.5 -5.5t23.5 -16.5t9.5 -32.5v-515z
M242 77q50 0 94 20t82.5 54t71 78.5t58 93.5t44 100t29.5 97q-47 -1 -101.5 -11.5t-108.5 -30.5t-104 -49.5t-88.5 -67t-61.5 -83.5t-23 -100q0 -48 30 -74.5t78 -26.5zM506 1012q40 0 76.5 -16t63.5 -43t43 -63.5t16 -76.5q0 -41 -16 -77t-43 -62.5t-63 -42t-77 -15.5
t-77 15.5t-62.5 42t-42 62.5t-15.5 77t15.5 77t42 63t62.5 43t77 16zM508 924q-48 0 -79.5 -31.5t-31.5 -79.5q0 -23 8.5 -42.5t23.5 -34t35.5 -23t43.5 -8.5q22 0 42 8.5t35 23t23.5 34t8.5 42.5t-8.5 43.5t-23 35.5t-34.5 23.5t-43 8.5z" />
    <glyph glyph-name="ae" unicode="&#xe6;" horiz-adv-x="1346" 
d="M947 -14q-74 0 -130 22.5t-94.5 63t-59.5 96.5t-25 124q-30 -57 -70.5 -112t-89.5 -98t-106.5 -69.5t-122.5 -26.5q-90 0 -145 49t-55 143q0 67 27.5 125t73 106.5t105.5 86.5t124.5 64t129.5 40t122 14q31 0 50.5 -3t31 -11t15.5 -21.5t4 -34.5v-15q88 85 218 85
q60 0 114.5 -23t95.5 -63t65.5 -93.5t24.5 -113.5q0 -29 -12.5 -41.5t-41.5 -12.5h-463q10 -90 68.5 -139t152.5 -49q34 0 62.5 8t52 20t41 25t30.5 24v-1q15 14 27 21t23 7q20 0 32 -12t12 -32q0 -14 -5.5 -24t-15.5 -19q-30 -29 -60 -50t-62 -34.5t-67.5 -19.5t-76.5 -6z
M249 77q50 0 94.5 20t83 54t71 78.5t58 93.5t44 100t29.5 97q-47 -1 -101.5 -11.5t-108.5 -30.5t-104 -49.5t-88.5 -67t-61.5 -83.5t-23 -100q0 -48 30 -74.5t77 -26.5zM1152 358q-18 74 -73.5 119t-133.5 45q-39 0 -74 -11.5t-62.5 -33t-47 -51.5t-27.5 -67z" />
    <glyph glyph-name="ccedilla" unicode="&#xe7;" horiz-adv-x="711" 
d="M611 150q21 0 31.5 -16t10.5 -30q0 -15 -14 -29t-36.5 -26.5t-50 -23.5t-55 -19t-51 -13t-38.5 -6v-35q39 -1 75 -6.5t64.5 -23t45.5 -48.5t17 -83q0 -48 -18 -81t-47 -53t-67.5 -29t-78.5 -9q-8 0 -27.5 1t-44 4.5t-51.5 9t-49 14t-36 20.5t-14 28q5 10 16 21.5t26 11.5
q4 0 7.5 -1t8.5 -2q1 -1 10 -1q41 -9 81 -14t78 -5q23 0 44.5 4t38.5 14t27.5 26.5t10.5 40.5q0 26 -9.5 41t-25.5 23t-35.5 10.5t-40.5 2.5q-4 0 -7.5 -0.5t-6.5 -0.5h-37q-29 0 -35 12t-6 32v82q-57 10 -107 35t-86.5 64t-57.5 91.5t-21 117.5q0 67 27 124.5t73 98.5
t105 64.5t124 23.5q11 0 35.5 -3.5t55 -10t63 -16t59 -22t44 -28t17.5 -32.5q0 -15 -11.5 -29.5t-34.5 -14.5q-2 1 -5 2l-9 3h1q-9 4 -31 14t-51 20t-62 17.5t-65 7.5q-48 0 -92 -15.5t-77.5 -44t-53.5 -69t-20 -90.5q0 -53 21.5 -94t57.5 -69.5t82.5 -43.5t95.5 -15
q31 0 58.5 6.5t51 16t41.5 20l30 17.5h3q8 5 14.5 8t13.5 3z" />
    <glyph glyph-name="egrave" unicode="&#xe8;" horiz-adv-x="731" 
d="M565 358q-17 75 -73 119.5t-135 44.5q-39 0 -73.5 -11.5t-61.5 -33t-46 -51.5t-27 -67zM145 267q8 -90 67.5 -139t153.5 -49q33 0 61.5 8t51.5 19.5t41 24.5t31 24q14 12 25.5 20t25.5 8q18 0 30.5 -13t12.5 -31q0 -14 -5 -24.5t-13 -18.5q-59 -59 -122 -84.5t-146 -25.5
q-72 0 -129.5 23t-97 64t-61 99t-21.5 129q0 68 23.5 125.5t65 99t99 65t125.5 23.5q59 0 113 -23.5t95 -63t65.5 -93t24.5 -113.5q0 -29 -14 -41.5t-41 -12.5h-461zM449 663q0 -17 -12.5 -30t-30.5 -13q-11 0 -20 5.5t-14 10.5q-5 6 -17 17l-17 16q-24 24 -57 57.5t-63 66
t-51 59t-21 37.5q0 18 13.5 29.5t29.5 11.5q8 0 18 -3t18 -11l31 -31l59.5 -59.5t63 -66.5t50 -59.5t20.5 -36.5z" />
    <glyph glyph-name="eacute" unicode="&#xe9;" horiz-adv-x="731" 
d="M565 358q-17 75 -73 119.5t-135 44.5q-39 0 -73.5 -11.5t-61.5 -33t-46 -51.5t-27 -67zM145 267q8 -90 67.5 -139t153.5 -49q33 0 61.5 8t51.5 19.5t41 24.5t31 24q14 12 25.5 20t25.5 8q18 0 30.5 -13t12.5 -31q0 -14 -5 -24.5t-13 -18.5q-59 -59 -122 -84.5t-146 -25.5
q-72 0 -129.5 23t-97 64t-61 99t-21.5 129q0 68 23.5 125.5t65 99t99 65t125.5 23.5q59 0 113 -23.5t95 -63t65.5 -93t24.5 -113.5q0 -29 -14 -41.5t-41 -12.5h-461zM525 930q14 0 28.5 -11.5t14.5 -29.5q0 -7 -12 -23.5t-31.5 -39t-43.5 -47.5t-47.5 -49.5t-45 -45
t-34.5 -33.5q-6 -5 -10 -10.5t-6 -8.5q-2 -2 -13.5 -7t-18.5 -5q-17 0 -29.5 13t-12.5 30q0 12 20.5 39t50 59t62.5 65.5t58 57.5l33 32q8 8 17.5 11t19.5 3z" />
    <glyph glyph-name="ecircumflex" unicode="&#xea;" horiz-adv-x="731" 
d="M565 358q-17 75 -73 119.5t-135 44.5q-39 0 -73.5 -11.5t-61.5 -33t-46 -51.5t-27 -67zM145 267q8 -90 67.5 -139t153.5 -49q33 0 61.5 8t51.5 19.5t41 24.5t31 24q14 12 25.5 20t25.5 8q18 0 30.5 -13t12.5 -31q0 -14 -5 -24.5t-13 -18.5q-59 -59 -122 -84.5t-146 -25.5
q-72 0 -129.5 23t-97 64t-61 99t-21.5 129q0 68 23.5 125.5t65 99t99 65t125.5 23.5q59 0 113 -23.5t95 -63t65.5 -93t24.5 -113.5q0 -29 -14 -41.5t-41 -12.5h-461zM592 665q0 -15 -14 -29t-30 -14q-10 0 -33.5 20t-51 48.5t-55.5 60.5t-48 55v-1l-4 3l-2 -1q-1 0 -1 -1
q-20 -23 -48 -54.5t-56 -60.5t-51 -49t-33 -20q-17 0 -30.5 13t-13.5 30q0 13 17.5 38t43 54t54 58t49.5 51l28 28v-1q7 8 18.5 14t25.5 6q10 0 24.5 -6.5t20.5 -14.5v1q10 -14 33 -34q21 -22 48.5 -50.5t51.5 -56.5t40.5 -51.5t16.5 -35.5z" />
    <glyph glyph-name="edieresis" unicode="&#xeb;" horiz-adv-x="731" 
d="M565 358q-17 75 -73 119.5t-135 44.5q-39 0 -73.5 -11.5t-61.5 -33t-46 -51.5t-27 -67zM145 267q8 -90 67.5 -139t153.5 -49q33 0 61.5 8t51.5 19.5t41 24.5t31 24q14 12 25.5 20t25.5 8q18 0 30.5 -13t12.5 -31q0 -14 -5 -24.5t-13 -18.5q-59 -59 -122 -84.5t-146 -25.5
q-72 0 -129.5 23t-97 64t-61 99t-21.5 129q0 68 23.5 125.5t65 99t99 65t125.5 23.5q59 0 113 -23.5t95 -63t65.5 -93t24.5 -113.5q0 -29 -14 -41.5t-41 -12.5h-461zM509 835q31 0 53 -22t22 -53t-22 -53.5t-53 -22.5q-14 0 -27.5 6t-24.5 16.5t-17.5 24.5t-6.5 29t6.5 28.5
t17.5 24t24.5 16.5t27.5 6zM205 835q31 0 53 -22t22 -53t-22 -53.5t-53 -22.5q-14 0 -27.5 6.5t-24 17.5t-17.5 24.5t-7 27.5q0 13 7 26.5t17.5 24.5t24 17.5t27.5 6.5z" />
    <glyph glyph-name="igrave" unicode="&#xec;" horiz-adv-x="356" 
d="M218 44q0 -20 -14.5 -34t-33.5 -14q-28 0 -36 13.5t-8 34.5v519q0 20 12.5 34.5t35.5 14.5q25 0 34.5 -17t9.5 -34v-517zM264 663q0 -17 -13 -30t-30 -13q-11 0 -20 5.5t-14 10.5q-4 5 -8 9l-8 8h-1l-22 21q-25 25 -57.5 58t-61.5 65t-49 57.5t-20 34.5q0 18 14 29.5
t30 11.5q7 0 17.5 -3t17.5 -11l32 -31l59.5 -59.5t63 -66.5t50 -59.5t20.5 -36.5z" />
    <glyph glyph-name="iacute" unicode="&#xed;" horiz-adv-x="356" 
d="M221 44q0 -20 -14.5 -34t-34.5 -14q-26 0 -34.5 13.5t-8.5 34.5v519q0 20 13 34.5t34 14.5q26 0 35.5 -17t9.5 -34v-517zM342 930q16 0 29.5 -11.5t13.5 -29.5q0 -10 -24 -39.5t-57.5 -65.5t-70 -72.5l-60.5 -60.5l-11 -12l-3 -4q-3 -3 -15 -9t-19 -6q-18 0 -30.5 13
t-12.5 30q0 12 20.5 39t50 59t62.5 65.5t58 57.5l33 32q8 8 18 11t18 3z" />
    <glyph glyph-name="icircumflex" unicode="&#xee;" horiz-adv-x="356" 
d="M219 44q0 -20 -14 -34t-33 -14q-27 0 -36 13.5t-9 34.5v519q0 20 13 34.5t34 14.5q26 0 35.5 -17t9.5 -34v-517zM409 665q0 -8 -4.5 -15.5t-11 -13.5t-14 -10t-14.5 -4q-10 0 -33.5 20t-51.5 48.5t-56 60.5t-48 55v-1l-3 3l-1 -1v1q-20 -23 -48.5 -55t-56.5 -61
t-52 -49.5t-34 -20.5q-17 0 -30.5 13t-13.5 30q0 12 15.5 34t38 48.5t48.5 53.5t48 50q2 2 4.5 5t5.5 6l7 7l25 25v-1q7 8 19.5 14t24.5 6q11 0 24.5 -5.5t19.5 -13.5q4 -4 9.5 -10t9.5 -9l15 -15q22 -22 49.5 -50.5t51.5 -56t40.5 -51.5t16.5 -37z" />
    <glyph glyph-name="idieresis" unicode="&#xef;" horiz-adv-x="356" 
d="M219 44q0 -20 -14 -34t-33 -14q-27 0 -36 13.5t-9 34.5v519q0 20 13 34.5t34 14.5q26 0 35.5 -17t9.5 -34v-517zM326 835q31 0 53 -22t22 -53t-22 -53.5t-53 -22.5q-14 0 -27.5 6t-24.5 16.5t-18 24.5t-7 29t7 28.5t18 24t24.5 16.5t27.5 6zM22 835q31 0 53 -22t22 -53
t-22 -53.5t-53 -22.5q-14 0 -27.5 6.5t-24.5 17.5t-18 24.5t-7 27.5q0 13 7 26.5t18 24.5t24.5 17.5t27.5 6.5z" />
    <glyph glyph-name="eth" unicode="&#xf0;" horiz-adv-x="743" 
d="M331 756l-66 -26h1q-27 -11 -55.5 -22.5t-53.5 -20.5t-42.5 -15t-22.5 -6q-20 0 -32 13t-12 30q0 13 25 29.5t61 34t76 33t69 26.5l-14 22q-14 21 -30.5 46t-30 47.5t-22.5 40t-9 24.5q0 19 14 33t32 14q11 0 31 -21t42 -51t42.5 -62.5t34.5 -54.5l2 -4l3 2l-1 -1
q5 2 12 5t14 5h-1q28 11 62.5 25t66 26.5t55 21t28.5 8.5q19 0 32 -8.5t13 -33.5q0 -14 -24.5 -31t-60 -34.5t-75 -33.5t-70.5 -27h1l-6 -3q45 -69 91 -139.5t91 -139.5q28 -44 51 -98.5t23 -110.5q0 -65 -24.5 -122t-67.5 -99.5t-100 -67t-121 -24.5t-121 25t-99.5 67.5
t-67.5 99.5t-25 121q0 65 24.5 122t67 99.5t99.5 67t122 24.5q16 0 32 -1t33 -4zM142 299q0 -45 17.5 -85t47.5 -70t70.5 -47.5t85.5 -17.5q46 0 86 17t69 47t46 70t17 86q0 47 -17 87.5t-46 70t-69 46.5t-86 17t-86.5 -17t-70.5 -47t-47 -70.5t-17 -86.5z" />
    <glyph glyph-name="ntilde" unicode="&#xf1;" horiz-adv-x="797" 
d="M164 -4q-27 0 -36 12.5t-9 35.5v519q0 23 14 36t35 13q14 0 23 -8t14.5 -21t7.5 -30.5t2 -35.5v-5q53 42 113 71t131 29q59 0 98 -19t62 -52t32 -77.5t9 -95.5v-324q0 -21 -13 -34.5t-34 -13.5q-47 0 -47 48v333q0 31 -5.5 57.5t-18.5 45.5t-35 29.5t-55 10.5t-65.5 -12
t-63.5 -30.5t-59 -42t-52 -46.5v-345q0 -21 -13.5 -34.5t-34.5 -13.5zM281 771q-26 0 -34.5 -11.5t-14.5 -27.5v1q-4 -12 -9 -24.5t-14 -26.5v1q-3 -5 -10 -9.5t-14 -4.5q-46 0 -46 48q0 29 11 55t30 45.5t44.5 31t54.5 11.5q33 0 63 -14t59 -31l-3 1q2 -1 4.5 -2.5
t4.5 -2.5q23 -11 45 -22t42 -11q23 0 43 13t20 36q0 9 1 18.5t5.5 16.5t13.5 11.5t24 4.5q24 0 34.5 -15.5t10.5 -33.5q0 -30 -12.5 -55.5t-33 -44t-47.5 -29t-56 -10.5q-38 0 -68 14t-59 31l3 -1q-2 1 -4.5 2.5t-4.5 2.5q-22 12 -42.5 22t-40.5 10z" />
    <glyph glyph-name="ograve" unicode="&#xf2;" horiz-adv-x="743" 
d="M363 520q-46 0 -86.5 -17t-70.5 -47t-47 -70.5t-17 -86.5q0 -45 17.5 -85t47.5 -70t70.5 -47.5t85.5 -17.5q46 0 86 17t69 47t46 70t17 86q0 47 -17 87.5t-46 70t-69 46.5t-86 17zM363 612q66 0 123 -24t99 -66.5t66.5 -99.5t24.5 -123q0 -65 -24.5 -121.5t-67 -99.5
t-99.5 -67.5t-122 -24.5q-64 0 -121 25t-99.5 67.5t-67.5 99.5t-25 121q0 65 24.5 122t67 99.5t99.5 67t122 24.5zM455 663q0 -17 -12.5 -30t-30.5 -13q-11 0 -20 5.5t-14 10.5q-5 6 -17 17l-17 16q-24 24 -57 57.5t-63 66t-51 59t-21 37.5q0 18 13.5 29.5t29.5 11.5
q8 0 18 -3t18 -11l31 -31l59.5 -59.5t63 -66.5t50 -59.5t20.5 -36.5z" />
    <glyph glyph-name="oacute" unicode="&#xf3;" horiz-adv-x="743" 
d="M363 520q-46 0 -86.5 -17t-70.5 -47t-47 -70.5t-17 -86.5q0 -45 17.5 -85t47.5 -70t70.5 -47.5t85.5 -17.5q46 0 86 17t69 47t46 70t17 86q0 47 -17 87.5t-46 70t-69 46.5t-86 17zM363 612q66 0 123 -24t99 -66.5t66.5 -99.5t24.5 -123q0 -65 -24.5 -121.5t-67 -99.5
t-99.5 -67.5t-122 -24.5q-64 0 -121 25t-99.5 67.5t-67.5 99.5t-25 121q0 65 24.5 122t67 99.5t99.5 67t122 24.5zM531 930q14 0 28.5 -11.5t14.5 -29.5q0 -10 -24 -39.5t-58 -65.5t-70.5 -72.5l-60.5 -60.5l-12 -12l-3 -4v2q-4 -5 -16 -11t-18 -6q-17 0 -30 13t-13 30
q0 12 20.5 39t50.5 59t63 65.5t58 57.5l33 32q8 8 17.5 11t19.5 3z" />
    <glyph glyph-name="ocircumflex" unicode="&#xf4;" horiz-adv-x="743" 
d="M363 612q66 0 123 -24t99 -66.5t66.5 -99.5t24.5 -123q0 -65 -24.5 -121.5t-67 -99.5t-99.5 -67.5t-122 -24.5q-64 0 -121 25t-99.5 67.5t-67.5 99.5t-25 121q0 65 24.5 122t67 99.5t99.5 67t122 24.5zM363 520q-46 0 -86.5 -17t-70.5 -47t-47 -70.5t-17 -86.5
q0 -45 17.5 -85t47.5 -70t70.5 -47.5t85.5 -17.5q46 0 86 17t69 47t46 70t17 86q0 47 -17 87.5t-46 70t-69 46.5t-86 17zM598 665q0 -15 -14 -29t-30 -14q-10 0 -33.5 20t-51 48.5t-55.5 60.5t-48 55v-1l-4 3l-2 -1q-1 0 -1 -1q-20 -23 -48 -54.5t-56 -60.5t-51.5 -49
t-33.5 -20q-17 0 -30 13t-13 30q0 13 17.5 38t43 54t54 58t49.5 51l28 28q7 7 18.5 13t25.5 6q10 0 24.5 -6.5t20.5 -14.5v1q5 -6 12.5 -13.5t16.5 -15.5l4 -5q21 -22 48.5 -50.5t51.5 -56t40.5 -51t16.5 -36.5z" />
    <glyph glyph-name="otilde" unicode="&#xf5;" horiz-adv-x="743" 
d="M363 520q-46 0 -86.5 -17t-70.5 -47t-47 -70.5t-17 -86.5q0 -45 17.5 -85t47.5 -70t70.5 -47.5t85.5 -17.5q46 0 86 17t69 47t46 70t17 86q0 47 -17 87.5t-46 70t-69 46.5t-86 17zM363 612q66 0 123 -24t99 -66.5t66.5 -99.5t24.5 -123q0 -65 -24.5 -121.5t-67 -99.5
t-99.5 -67.5t-122 -24.5q-64 0 -121 25t-99.5 67.5t-67.5 99.5t-25 121q0 65 24.5 122t67 99.5t99.5 67t122 24.5zM248 771q-13 0 -21 -3t-13 -8.5t-7.5 -12.5t-5.5 -15q-4 -11 -9.5 -23t-14.5 -26q-3 -5 -9.5 -9.5t-13.5 -4.5q-47 0 -47 48q0 29 10.5 55t29.5 45.5t44.5 31
t54.5 11.5q35 0 65 -14t59 -31l-3 1q2 -1 4 -2.5t4 -2.5q23 -11 45.5 -22t42.5 -11q23 0 42.5 13t19.5 36q0 9 1 18.5t5.5 16.5t13.5 11.5t24 4.5q25 0 35 -15.5t10 -33.5q0 -30 -12.5 -55.5t-33 -44t-47.5 -29t-55 -10.5q-38 0 -69 14t-59 31l2 -1q-2 1 -4 2.5t-4 2.5
q-22 12 -43 22t-41 10z" />
    <glyph glyph-name="odieresis" unicode="&#xf6;" horiz-adv-x="743" 
d="M363 520q-46 0 -86.5 -17t-70.5 -47t-47 -70.5t-17 -86.5q0 -45 17.5 -85t47.5 -70t70.5 -47.5t85.5 -17.5q46 0 86 17t69 47t46 70t17 86q0 47 -17 87.5t-46 70t-69 46.5t-86 17zM363 612q66 0 123 -24t99 -66.5t66.5 -99.5t24.5 -123q0 -65 -24.5 -121.5t-67 -99.5
t-99.5 -67.5t-122 -24.5q-64 0 -121 25t-99.5 67.5t-67.5 99.5t-25 121q0 65 24.5 122t67 99.5t99.5 67t122 24.5zM515 835q31 0 53 -22t22 -53t-22 -53.5t-53 -22.5q-14 0 -27.5 6t-24.5 16.5t-17.5 24.5t-6.5 29t6.5 28.5t17.5 24t24.5 16.5t27.5 6zM211 835q31 0 53 -22
t22 -53t-22 -53.5t-53 -22.5q-14 0 -27.5 6.5t-24.5 17.5t-18 24.5t-7 27.5q0 13 7 26.5t18 24.5t24.5 17.5t27.5 6.5z" />
    <glyph glyph-name="divide" unicode="&#xf7;" horiz-adv-x="1706" 
d="M844 389q22 0 41.5 -8t33.5 -22t22.5 -33t8.5 -42q0 -21 -8.5 -40.5t-23 -34.5t-34 -23.5t-40.5 -8.5t-40.5 8.5t-34.5 22.5t-23.5 33.5t-8.5 40.5q0 22 8.5 41.5t23 34t34 23t41.5 8.5zM240 632q0 12 9 21t21 9h1148q11 0 20 -9t9 -21v-35q0 -12 -9 -21t-20 -9h-1148
q-12 0 -21 9t-9 21v35zM844 1052q22 0 41 -8.5t33.5 -23.5t23 -34.5t8.5 -41.5q0 -23 -8.5 -42t-22.5 -33t-33.5 -22t-41.5 -8t-41.5 8t-34 22t-23 33t-8.5 42q0 22 8.5 41.5t23.5 34.5t34.5 23.5t40.5 8.5z" />
    <glyph glyph-name="oslash" unicode="&#xf8;" horiz-adv-x="743" 
d="M443 505q-38 15 -80 15q-47 0 -87 -17t-69 -47t-46 -70.5t-17 -86.5q0 -36 14 -71t37 -66zM260 107q47 -28 103 -28q46 0 86 17t69 47t46 70t17 86q0 45 -16 88t-48 72zM363 -12q-83 0 -157 40q-9 -13 -19.5 -28t-21.5 -29.5t-21.5 -25.5t-18.5 -17q-9 0 -19 3t-18.5 8
t-14 13t-5.5 19q0 6 7 19.5t17.5 30t22.5 34t21 30.5q-41 44 -63.5 98t-22.5 116q0 64 24.5 121t67.5 100t99.5 67.5t121.5 24.5q36 0 69 -8t66 -24q8 12 17.5 25t19.5 25.5t21 22t22 13.5q23 0 37 -11.5t14 -31.5q0 -6 -5 -16.5t-13 -22.5t-17 -25t-17 -24v2l-3 -6
q51 -45 76.5 -103.5t25.5 -128.5q0 -65 -24.5 -121.5t-67.5 -98.5t-100 -66.5t-121 -24.5z" />
    <glyph glyph-name="ugrave" unicode="&#xf9;" horiz-adv-x="782" 
d="M109 563q0 23 14 36t35 13q14 0 23 -5t13.5 -13t6 -17t1.5 -16v-265q0 -47 9 -86.5t29.5 -68.5t54.5 -45.5t85 -16.5t85 16.5t54 45.5t28.5 68.5t8.5 86.5v267q0 23 16.5 36t34.5 13q14 0 23 -5t13.5 -13t6 -17t1.5 -16v-281q0 -66 -16.5 -120t-50 -92.5t-84.5 -60
t-120 -21.5t-120 21.5t-84.5 60t-50 92.5t-16.5 120v283zM473 663q0 -17 -13 -30t-30 -13q-12 0 -20.5 5.5t-13.5 10.5q-4 5 -8 9l-8 8h-1l-22 21q-25 25 -57.5 58t-61.5 65t-49 57.5t-20 34.5q0 18 14 29.5t29 11.5q8 0 18.5 -3t17.5 -11l31 -31l59.5 -59.5t63.5 -66.5
t50.5 -59.5t20.5 -36.5z" />
    <glyph glyph-name="uacute" unicode="&#xfa;" horiz-adv-x="782" 
d="M109 563q0 23 14 36t35 13q14 0 23 -5t13.5 -13t6 -17t1.5 -16v-265q0 -47 9 -86.5t29.5 -68.5t54.5 -45.5t85 -16.5t85 16.5t54 45.5t28.5 68.5t8.5 86.5v267q0 23 16.5 36t34.5 13q14 0 23 -5t13.5 -13t6 -17t1.5 -16v-281q0 -66 -16.5 -120t-50 -92.5t-84.5 -60
t-120 -21.5t-120 21.5t-84.5 60t-50 92.5t-16.5 120v283zM548 930q15 0 29 -11.5t14 -29.5q0 -10 -24 -39.5t-57.5 -65.5t-70 -72.5l-60.5 -60.5l-12 -12l-3 -4q-3 -3 -15 -9t-19 -6q-17 0 -30 13t-13 30q0 12 20.5 39t50.5 59t63 65.5t58 57.5l33 32q7 8 17 11t19 3z" />
    <glyph glyph-name="ucircumflex" unicode="&#xfb;" horiz-adv-x="782" 
d="M109 563q0 23 14 36t35 13q14 0 23 -5t13.5 -13t6 -17t1.5 -16v-265q0 -47 9 -86.5t29.5 -68.5t54.5 -45.5t85 -16.5t85 16.5t54 45.5t28.5 68.5t8.5 86.5v267q0 23 16.5 36t34.5 13q14 0 23 -5t13.5 -13t6 -17t1.5 -16v-281q0 -66 -16.5 -120t-50 -92.5t-84.5 -60
t-120 -21.5t-120 21.5t-84.5 60t-50 92.5t-16.5 120v283zM616 665q0 -8 -4.5 -15.5t-11 -13.5t-14 -10t-14.5 -4q-10 0 -33.5 20t-51.5 48.5t-56 60.5t-48 55v-1l-3 3l-1 -1v1q-20 -23 -48.5 -55t-56.5 -61t-52 -49.5t-34 -20.5q-17 0 -30.5 13t-13.5 30q0 12 15.5 34
t38 48.5t48.5 53.5t48 50q2 2 4.5 5t5.5 6l7 7l25 25v-1q7 8 19.5 14t24.5 6q11 0 24.5 -5.5t19.5 -13.5q4 -4 9.5 -10t9.5 -9l15 -15q22 -22 49.5 -50.5t51.5 -56t40.5 -51.5t16.5 -37z" />
    <glyph glyph-name="udieresis" unicode="&#xfc;" horiz-adv-x="782" 
d="M109 563q0 23 14 36t35 13q14 0 23 -5t13.5 -13t6 -17t1.5 -16v-265q0 -47 9 -86.5t29.5 -68.5t54.5 -45.5t85 -16.5t85 16.5t54 45.5t28.5 68.5t8.5 86.5v267q0 23 16.5 36t34.5 13q14 0 23 -5t13.5 -13t6 -17t1.5 -16v-281q0 -66 -16.5 -120t-50 -92.5t-84.5 -60
t-120 -21.5t-120 21.5t-84.5 60t-50 92.5t-16.5 120v283zM533 835q31 0 53 -22t22 -53t-22 -53.5t-53 -22.5q-14 0 -27.5 6t-24.5 16.5t-18 24.5t-7 29t7 28.5t18 24t24.5 16.5t27.5 6zM229 835q31 0 53 -22t22 -53t-22 -53.5t-53 -22.5q-14 0 -27.5 6.5t-24.5 17.5
t-18 24.5t-7 27.5q0 13 7 26.5t18 24.5t24.5 17.5t27.5 6.5z" />
    <glyph glyph-name="yacute" unicode="&#xfd;" horiz-adv-x="748" 
d="M502 40q-39 -22 -84 -38t-92 -16q-69 0 -111 25.5t-65.5 67.5t-31.5 95t-8 108v281q0 23 13.5 36t34.5 13q29 0 36.5 -13t7.5 -36v-283q0 -35 4.5 -71t18 -65t38 -48t63.5 -19q47 0 91 19t85 45v422q0 20 14 34.5t34 14.5q28 0 36.5 -13t8.5 -36v-364q8 4 15.5 7.5
t15.5 5.5q2 1 6 0t6 -2q10 -6 19 -17.5t9 -25.5q0 -9 -7 -19t-18 -19.5t-23.5 -18t-22.5 -14.5v-290q0 -81 -46.5 -127t-126.5 -46q-20 0 -32.5 8.5t-12.5 34.5q0 15 5.5 24t14.5 13.5t19.5 5.5t19.5 0h3q23 0 35.5 12.5t18.5 32t7.5 43t1.5 44.5v189zM533 930
q16 0 29.5 -11.5t13.5 -29.5q0 -7 -12 -23.5t-31 -39t-43 -47.5t-48 -49.5t-45 -45t-35 -33.5h1q-5 -5 -8 -8.5t-5 -5.5v-2q-3 -3 -16 -9t-18 -6q-18 0 -31 13t-13 30q0 11 18.5 36t46 55t58.5 61.5t57 56.5l12 12l33 32q8 8 17.5 11t18.5 3z" />
    <glyph glyph-name="thorn" unicode="&#xfe;" horiz-adv-x="729" 
d="M209 119q24 -17 54.5 -27.5t62.5 -10.5q52 0 96.5 20.5t77 55.5t50.5 81t18 98q0 83 -44.5 133.5t-127.5 50.5q-48 0 -96 -16t-91 -41v-344zM161 -367q-28 0 -36 12t-8 35v724q-20 -11 -31 -11q-23 0 -32.5 13t-9.5 30q0 13 7 24.5t18 21.5t24 18.5t24 14.5v1015
q0 22 11.5 35.5t34.5 13.5q27 0 36.5 -13.5t9.5 -35.5v-964q45 21 92 33.5t98 12.5q61 0 109.5 -20.5t82.5 -56.5t52 -86t18 -109q0 -71 -24 -134.5t-68 -111.5t-105 -76t-134 -28q-29 0 -61.5 7.5t-59.5 18.5v-336q0 -21 -13 -34t-35 -13z" />
    <glyph glyph-name="ydieresis" unicode="&#xff;" horiz-adv-x="748" 
d="M502 40q-39 -22 -84 -38t-92 -16q-69 0 -111 25.5t-65.5 67.5t-31.5 95t-8 108v281q0 23 13.5 36t34.5 13q29 0 36.5 -13t7.5 -36v-283q0 -35 4.5 -71t18 -65t38 -48t63.5 -19q47 0 91 19t85 45v422q0 20 14 34.5t34 14.5q28 0 36.5 -13t8.5 -36v-364q8 4 15.5 7.5
t15.5 5.5q2 1 6 0t6 -2q10 -6 19 -17.5t9 -25.5q0 -9 -7 -19t-18 -19.5t-23.5 -18t-22.5 -14.5v-290q0 -81 -46.5 -127t-126.5 -46q-20 0 -32.5 8.5t-12.5 34.5q0 15 5.5 24t14.5 13.5t19.5 5.5t19.5 0h3q23 0 35.5 12.5t18.5 32t7.5 43t1.5 44.5v189zM518 835
q30 0 52.5 -22t22.5 -53t-22.5 -53.5t-52.5 -22.5q-14 0 -27.5 6t-24.5 16.5t-18 24.5t-7 29t7 28.5t18 24t24.5 16.5t27.5 6zM214 835q31 0 53 -22t22 -53t-22 -53.5t-53 -22.5q-14 0 -27.5 6.5t-24.5 17.5t-18 24.5t-7 27.5q0 13 7 26.5t18 24.5t24.5 17.5t27.5 6.5z" />
    <glyph glyph-name="Amacron" unicode="&#x100;" horiz-adv-x="1976" 
d="M432 405h1076q-68 136 -134.5 268t-132.5 264t-133 264.5t-135 268.5zM384 312l-264 -520q-2 -3 -7.5 -8.5t-11.5 -10t-12 -8t-10 -3.5q-20 0 -34.5 13.5t-14.5 35.5q0 2 10.5 25t28.5 59.5t41 82t47.5 94t48.5 95.5t44 86l30 59h-132q-22 0 -35.5 13.5t-13.5 34.5
q0 28 13.5 36.5t35.5 8.5h180l600 1175q3 8 13.5 22t29.5 14q22 0 34 -11.5t18 -24.5l-1 1q9 -18 39.5 -78.5t76 -151t103 -204.5t120.5 -238.5t128.5 -254t126.5 -251t114.5 -229t94 -187.5t63.5 -127t23 -48q0 -18 -16 -34.5t-41 -16.5q-9 4 -27.5 31.5t-43 70t-52 95.5
t-54.5 106.5t-52 104.5t-44 89q-12 26 -16 36t-9 18h-1172zM1160 1802q17 0 33 -12.5t16 -33.5q0 -29 -17 -37t-36 -8h-375q-17 0 -33 12.5t-16 32.5q0 23 16 34.5t33 11.5h379z" />
    <glyph glyph-name="amacron" unicode="&#x101;" horiz-adv-x="870" 
d="M723 44q0 -21 -9 -34.5t-36 -13.5q-21 0 -35 13.5t-14 34.5v246q-30 -56 -70.5 -110.5t-90 -97.5t-106.5 -69.5t-120 -26.5q-91 0 -146 49t-55 143q0 66 27.5 124.5t73 107t105 86.5t124 64t129 40t121.5 14h9q13 0 29.5 -0.5t30.5 -5.5t23.5 -16.5t9.5 -32.5v-515z
M242 77q50 0 94 20t82.5 54t71 78.5t58 93.5t44 100t29.5 97q-47 -1 -101.5 -11.5t-108.5 -30.5t-104 -49.5t-88.5 -67t-61.5 -83.5t-23 -100q0 -48 30 -74.5t78 -26.5zM670 792q16 0 32 -12t16 -32q0 -29 -17 -37t-35 -8h-368q-17 0 -32.5 12.5t-15.5 32.5q0 22 15.5 33
t32.5 11h372z" />
    <glyph glyph-name="Abreve" unicode="&#x102;" horiz-adv-x="1976" 
d="M432 405h1076q-68 136 -134.5 268t-132.5 264t-133 264.5t-135 268.5zM384 312l-264 -520q-2 -3 -7.5 -8.5t-11.5 -10t-12 -8t-10 -3.5q-20 0 -34.5 13.5t-14.5 35.5q0 2 10.5 25t28.5 59.5t41 82t47.5 94t48.5 95.5t44 86l30 59h-132q-22 0 -35.5 13.5t-13.5 34.5
q0 28 13.5 36.5t35.5 8.5h180l600 1175q3 8 13.5 22t29.5 14q22 0 34 -11.5t18 -24.5l-1 1q9 -18 39.5 -78.5t76 -151t103 -204.5t120.5 -238.5t128.5 -254t126.5 -251t114.5 -229t94 -187.5t63.5 -127t23 -48q0 -18 -16 -34.5t-41 -16.5q-9 4 -27.5 31.5t-43 70t-52 95.5
t-54.5 106.5t-52 104.5t-44 89q-12 26 -16 36t-9 18h-1172zM748 1917q14 0 22.5 -7t13.5 -17t6.5 -22.5t2.5 -22.5q0 -2 0.5 -3t0.5 -3q1 -4 2 -9t0 -4q9 -24 28 -41.5t44 -28t52 -15.5t53 -5q31 0 60 7.5t55 24.5l-1 -1q19 13 36 32.5t22 40.5q0 5 2 9q0 2 0.5 4t0.5 3
q2 9 4.5 19.5t7.5 19t14 14t23 5.5q13 0 21.5 -5t13.5 -13t7 -17.5t2 -17.5q0 -52 -26.5 -92t-66.5 -67t-88 -41t-91 -14q-48 0 -96 13t-87 39.5t-63 67.5t-24 97q0 26 11.5 38t37.5 12z" />
    <glyph glyph-name="abreve" unicode="&#x103;" horiz-adv-x="870" 
d="M723 44q0 -21 -9 -34.5t-36 -13.5q-21 0 -35 13.5t-14 34.5v246q-30 -56 -70.5 -110.5t-90 -97.5t-106.5 -69.5t-120 -26.5q-91 0 -146 49t-55 143q0 66 27.5 124.5t73 107t105 86.5t124 64t129 40t121.5 14h9q13 0 29.5 -0.5t30.5 -5.5t23.5 -16.5t9.5 -32.5v-515z
M242 77q50 0 94 20t82.5 54t71 78.5t58 93.5t44 100t29.5 97q-47 -1 -101.5 -11.5t-108.5 -30.5t-104 -49.5t-88.5 -67t-61.5 -83.5t-23 -100q0 -48 30 -74.5t78 -26.5zM205 906q13 0 21.5 -6.5t13 -17t6 -22.5t2.5 -23q0 -1 0.5 -2t0.5 -5q7 -26 26 -44.5t43.5 -30.5
t52 -18t53.5 -6q32 0 60.5 7t52.5 24q19 12 35 31t21 42q0 1 1 2.5t1 3.5v2q1 9 3.5 20t7.5 20.5t14 16t24 6.5q13 0 21.5 -5.5t13.5 -13t7 -17t2 -16.5q0 -51 -26 -90t-65.5 -66t-87 -40.5t-89.5 -13.5q-47 0 -94 12.5t-84.5 39t-61.5 66.5t-24 95q0 24 11 36.5t38 12.5z
" />
    <glyph glyph-name="Aogonek" unicode="&#x104;" horiz-adv-x="1976" 
d="M384 312l-265 -522q-2 -3 -7 -8t-11 -9.5t-12 -7.5t-10 -3q-20 0 -34 13.5t-14 35.5q0 2 10.5 25t28.5 59.5t41 82t47 94t48.5 95.5t44.5 86l29 59h-132q-22 0 -35.5 13.5t-13.5 34.5q0 30 13.5 37.5t35.5 7.5h180l600 1175l-1 -1q4 9 13 23t31 14t34 -11.5t18 -24.5
l-1 1q9 -18 39.5 -78.5t76 -151t103 -204.5t120.5 -238.5t128.5 -254t126.5 -251t114.5 -229t94 -187.5t63.5 -127t23 -48q0 -8 -3.5 -17t-12.5 -20q-23 -12 -50.5 -35t-51.5 -50.5t-40 -57.5t-16 -56q0 -28 13.5 -44t34.5 -23.5t47 -9t50 -1.5q9 0 19 -0.5t18 -5
t13.5 -13.5t5.5 -25q0 -15 -6.5 -24.5t-17 -15t-24 -7t-26.5 -1.5h-17.5t-15.5 1q-2 0 -3.5 0.5t-3.5 0.5q-36 0 -68 12t-56 34.5t-38 53t-14 68.5q0 39 14.5 73.5t37.5 65t51 57t55 48.5l-250 492h-1172zM432 405h1077q-135 269 -267.5 532t-268.5 533z" />
    <glyph glyph-name="aogonek" unicode="&#x105;" horiz-adv-x="870" 
d="M723 44q0 -8 -1.5 -13.5t-3.5 -10.5v1q-2 -5 -8 -11t-11 -8q-19 -8 -44 -30t-47.5 -50t-38.5 -57.5t-16 -52.5q0 -27 13 -42t33.5 -22.5t46 -9t49.5 -1.5q8 0 17.5 -0.5t18 -5t14 -13.5t5.5 -25q0 -14 -6.5 -23.5t-17.5 -14.5t-24.5 -7t-26.5 -2h-16t-13 1q-1 0 -2 0.5
t-2 0.5h-4q-35 0 -66.5 12t-55 33.5t-37.5 51.5t-14 67q0 41 15.5 76.5t39.5 66t53.5 56t56.5 46.5v233q-30 -56 -71 -110.5t-90.5 -97.5t-106.5 -69.5t-120 -26.5q-91 0 -145.5 49t-54.5 143q0 66 27.5 124.5t73 107t105 86.5t124 64t129.5 40t121 14h8q13 0 29.5 -0.5
t30.5 -5.5t23.5 -16.5t9.5 -32.5v-515zM242 77q50 0 94 20t82.5 54t71 78.5t58 93.5t44.5 100t30 97q-47 -1 -101.5 -11.5t-108.5 -30.5t-104 -49.5t-88.5 -67t-61.5 -83.5t-23 -100q0 -48 30 -74.5t77 -26.5z" />
    <glyph glyph-name="Cacute" unicode="&#x106;" horiz-adv-x="1741" 
d="M1646 1348q0 -16 -11.5 -30.5t-31.5 -14.5q-11 0 -20.5 5t-16.5 10q-32 22 -69 47.5t-76 49.5t-77.5 44.5t-72.5 32.5q-59 18 -127.5 30t-131.5 12q-116 0 -222.5 -30t-199.5 -84.5t-169 -130.5t-130.5 -169.5t-84 -200.5t-29.5 -223q0 -113 30.5 -219t85.5 -199
t131.5 -169.5t169.5 -131.5t199 -85.5t219 -30.5q304 0 536 193l10 7.5t13 9t14 8t13 3.5q23 0 34 -13.5t11 -31.5q0 -16 -6.5 -25t-14.5 -17q-52 -52 -127 -94.5t-158.5 -72.5t-168 -46t-156.5 -16q-126 0 -243.5 34t-220.5 95t-188.5 147t-147 189t-95.5 221t-34 244
q0 128 33.5 247t94 222t145.5 188t188 145.5t221.5 94t246.5 33.5q81 0 162.5 -15.5t159 -45t149 -72t133.5 -96.5l-1 1q19 -16 31 -40v-10zM1221 1965q16 0 30.5 -11t14.5 -31q0 -8 -12.5 -25t-32 -39.5t-44 -48.5t-48.5 -50.5t-45.5 -46t-35.5 -34.5l-14 -14
q-3 -3 -16 -9.5t-19 -6.5q-17 0 -30.5 13.5t-13.5 30.5q0 12 17.5 35.5t43.5 52.5t56.5 59.5l56.5 56.5l22 21l34 34q8 8 17.5 10.5t18.5 2.5z" />
    <glyph glyph-name="cacute" unicode="&#x107;" horiz-adv-x="711" 
d="M611 150q21 0 31.5 -16t10.5 -30q0 -16 -15.5 -30.5t-40 -28t-54.5 -24.5t-58 -18.5t-51.5 -12t-34.5 -4.5q-70 0 -133.5 21t-111.5 61t-76 98.5t-28 134.5q0 67 27 124.5t73 98.5t105 64.5t124 23.5q11 0 35.5 -3.5t55 -10t63 -16t59 -22t44 -28t17.5 -32.5
q0 -15 -11.5 -29.5t-34.5 -14.5q-2 1 -5 2l-9 3h1q-9 4 -31 14t-51 20t-62 17.5t-65 7.5q-48 0 -92 -15.5t-77.5 -44t-53.5 -69t-20 -90.5q0 -53 21.5 -94t57.5 -69.5t82.5 -43.5t95.5 -15q31 0 58.5 6.5t51 16t41.5 20l30 17.5h3q8 5 14.5 8t13.5 3zM557 925
q14 0 28.5 -11.5t14.5 -29.5q0 -7 -12 -24t-31.5 -39t-43.5 -47t-48 -49l-45 -45l-34 -34q-6 -5 -10 -10.5t-6 -7.5t-13.5 -7.5t-18.5 -5.5q-17 0 -29.5 13t-12.5 31q0 12 20.5 38.5t50 58.5t62.5 65.5t58 57.5l33 32q8 8 17.5 11t19.5 3z" />
    <glyph glyph-name="Ccircumflex" unicode="&#x108;" horiz-adv-x="1741" 
d="M1646 1348q0 -16 -11.5 -30.5t-31.5 -14.5q-11 0 -20.5 5t-16.5 10q-32 22 -69 47.5t-76 49.5t-77.5 44.5t-72.5 32.5q-59 18 -127.5 30t-131.5 12q-116 0 -222.5 -30t-199.5 -84.5t-169 -130.5t-130.5 -169.5t-84 -200.5t-29.5 -223q0 -113 30.5 -219t85.5 -199
t131.5 -169.5t169.5 -131.5t199 -85.5t219 -30.5q304 0 536 193l10 7.5t13 9t14 8t13 3.5q23 0 34 -13.5t11 -31.5q0 -16 -6.5 -25t-14.5 -17q-52 -52 -127 -94.5t-158.5 -72.5t-168 -46t-156.5 -16q-126 0 -243.5 34t-220.5 95t-188.5 147t-147 189t-95.5 221t-34 244
q0 128 33.5 247t94 222t145.5 188t188 145.5t221.5 94t246.5 33.5q81 0 162.5 -15.5t159 -45t149 -72t133.5 -96.5l-1 1q19 -16 31 -40v-10zM1252 1672q0 -16 -15 -30t-29 -14q-10 0 -34 20.5t-52.5 50t-57 61.5t-49.5 56v-1q-2 2 -2.5 2t-1.5 2l-2 -2v1q-20 -24 -49 -56.5
t-58 -62.5t-52.5 -50.5t-33.5 -20.5q-18 0 -31.5 13t-13.5 31q0 13 18 38t44 55t55 59.5t50 51.5l29 30q7 7 19 13t25 6q11 0 26 -6.5t20 -14.5q2 -2 6.5 -7t14.5 -14l14 -14q22 -23 50 -52t52.5 -57.5t41 -52t16.5 -35.5z" />
    <glyph glyph-name="ccircumflex" unicode="&#x109;" horiz-adv-x="711" 
d="M611 150q21 0 31.5 -16t10.5 -30q0 -16 -15.5 -30.5t-40 -28t-54.5 -24.5t-58 -18.5t-51.5 -12t-34.5 -4.5q-70 0 -133.5 21t-111.5 61t-76 98.5t-28 134.5q0 67 27 124.5t73 98.5t105 64.5t124 23.5q11 0 35.5 -3.5t55 -10t63 -16t59 -22t44 -28t17.5 -32.5
q0 -15 -11.5 -29.5t-34.5 -14.5q-2 1 -5 2l-9 3h1q-9 4 -31 14t-51 20t-62 17.5t-65 7.5q-48 0 -92 -15.5t-77.5 -44t-53.5 -69t-20 -90.5q0 -53 21.5 -94t57.5 -69.5t82.5 -43.5t95.5 -15q31 0 58.5 6.5t51 16t41.5 20l30 17.5h3q8 5 14.5 8t13.5 3zM644 665q0 -15 -14 -29
t-29 -14q-10 0 -33.5 20t-51 48.5t-55.5 60.5t-48 55v-1l-4 4q-2 -2 -3 -2l-1 -1q-20 -23 -48 -54.5t-55.5 -60.5t-50.5 -49t-33 -20q-17 0 -30.5 13t-13.5 30q0 12 15 34t37.5 48.5t49 53.5t48.5 50l5 5t5 6q3 4 6 7l26 25v-1q6 8 18 14t25 6q11 0 24.5 -6t20.5 -14v1
l18 -19l16 -16q21 -22 48 -50.5t51 -56t40.5 -51t16.5 -36.5z" />
    <glyph glyph-name="Cdotaccent" unicode="&#x10a;" horiz-adv-x="1741" 
d="M1646 1348q0 -16 -11.5 -30.5t-31.5 -14.5q-11 0 -20.5 5t-16.5 10q-32 22 -69 47.5t-76 49.5t-77.5 44.5t-72.5 32.5q-59 18 -127.5 30t-131.5 12q-116 0 -222.5 -30t-199.5 -84.5t-169 -130.5t-130.5 -169.5t-84 -200.5t-29.5 -223q0 -113 30.5 -219t85.5 -199
t131.5 -169.5t169.5 -131.5t199 -85.5t219 -30.5q304 0 536 193l10 7.5t13 9t14 8t13 3.5q23 0 34 -13.5t11 -31.5q0 -16 -6.5 -25t-14.5 -17q-52 -52 -127 -94.5t-158.5 -72.5t-168 -46t-156.5 -16q-126 0 -243.5 34t-220.5 95t-188.5 147t-147 189t-95.5 221t-34 244
q0 128 33.5 247t94 222t145.5 188t188 145.5t221.5 94t246.5 33.5q81 0 162.5 -15.5t159 -45t149 -72t133.5 -96.5l-1 1q19 -16 31 -40v-10zM1015 1856q16 0 31.5 -7t27.5 -18.5t19 -26.5t7 -32t-7 -32t-19 -26.5t-27.5 -18.5t-31.5 -7t-31 7.5t-26 19.5t-18 27t-7 30
q0 16 7 31t18 27t26 19t31 7z" />
    <glyph glyph-name="cdotaccent" unicode="&#x10b;" horiz-adv-x="711" 
d="M611 150q21 0 31.5 -16t10.5 -30q0 -16 -15.5 -30.5t-40 -28t-54.5 -24.5t-58 -18.5t-51.5 -12t-34.5 -4.5q-70 0 -133.5 21t-111.5 61t-76 98.5t-28 134.5q0 67 27 124.5t73 98.5t105 64.5t124 23.5q11 0 35.5 -3.5t55 -10t63 -16t59 -22t44 -28t17.5 -32.5
q0 -15 -11.5 -29.5t-34.5 -14.5q-2 1 -5 2l-9 3h1q-9 4 -31 14t-51 20t-62 17.5t-65 7.5q-48 0 -92 -15.5t-77.5 -44t-53.5 -69t-20 -90.5q0 -53 21.5 -94t57.5 -69.5t82.5 -43.5t95.5 -15q31 0 58.5 6.5t51 16t41.5 20l30 17.5h3q8 5 14.5 8t13.5 3zM401 844
q16 0 31.5 -6.5t26.5 -17.5t18 -26t7 -31t-7 -31t-18.5 -26.5t-26.5 -18.5t-31 -7t-30.5 7.5t-25.5 19t-17.5 26.5t-6.5 30q0 16 6.5 30.5t17.5 25.5t25.5 18t30.5 7z" />
    <glyph glyph-name="Ccaron" unicode="&#x10c;" horiz-adv-x="1741" 
d="M1646 1348q0 -16 -11.5 -30.5t-31.5 -14.5q-11 0 -20.5 5t-16.5 10q-32 22 -69 47.5t-76 49.5t-77.5 44.5t-72.5 32.5q-59 18 -127.5 30t-131.5 12q-116 0 -222.5 -30t-199.5 -84.5t-169 -130.5t-130.5 -169.5t-84 -200.5t-29.5 -223q0 -113 30.5 -219t85.5 -199
t131.5 -169.5t169.5 -131.5t199 -85.5t219 -30.5q304 0 536 193l10 7.5t13 9t14 8t13 3.5q23 0 34 -13.5t11 -31.5q0 -16 -6.5 -25t-14.5 -17q-52 -52 -127 -94.5t-158.5 -72.5t-168 -46t-156.5 -16q-126 0 -243.5 34t-220.5 95t-188.5 147t-147 189t-95.5 221t-34 244
q0 128 33.5 247t94 222t145.5 188t188 145.5t221.5 94t246.5 33.5q81 0 162.5 -15.5t159 -45t149 -72t133.5 -96.5l-1 1q19 -16 31 -40v-10zM740 1893q0 20 15 30t30 10q12 0 36.5 -20.5t53 -50t57 -62t48.5 -56.5v1l1 -1l1 1v-1q20 23 48 55.5t56.5 62t53 50.5t36.5 21
q16 0 30.5 -10t14.5 -30q0 -9 -2.5 -18t-10.5 -17l-184 -201q-8 -8 -20 -13.5t-23 -5.5q-14 0 -25.5 4.5t-18.5 10.5q-5 8 -14 17l-20 20l-16 16q-23 24 -48.5 51.5t-47.5 53.5t-36.5 48t-14.5 34z" />
    <glyph glyph-name="ccaron" unicode="&#x10d;" horiz-adv-x="711" 
d="M611 150q21 0 31.5 -16t10.5 -30q0 -16 -15.5 -30.5t-40 -28t-54.5 -24.5t-58 -18.5t-51.5 -12t-34.5 -4.5q-70 0 -133.5 21t-111.5 61t-76 98.5t-28 134.5q0 67 27 124.5t73 98.5t105 64.5t124 23.5q11 0 35.5 -3.5t55 -10t63 -16t59 -22t44 -28t17.5 -32.5
q0 -15 -11.5 -29.5t-34.5 -14.5q-2 1 -5 2l-9 3h1q-9 4 -31 14t-51 20t-62 17.5t-65 7.5q-48 0 -92 -15.5t-77.5 -44t-53.5 -69t-20 -90.5q0 -53 21.5 -94t57.5 -69.5t82.5 -43.5t95.5 -15q31 0 58.5 6.5t51 16t41.5 20l30 17.5h3q8 5 14.5 8t13.5 3zM140 871q0 21 14 30.5
t30 9.5q11 0 35 -20t51.5 -49t55.5 -60.5t48 -55.5v1l1 -1q19 23 47 55t56.5 61t52.5 49t36 20q15 0 29 -9.5t14 -30.5q0 -18 -12 -34l-180 -196q-8 -8 -20 -13.5t-23 -5.5q-13 0 -24.5 5t-18.5 12q-5 5 -13.5 14.5t-20.5 20.5l-16 18h1q-22 23 -47 49.5t-46.5 52t-35.5 46
t-14 31.5z" />
    <glyph glyph-name="Dcaron" unicode="&#x10e;" horiz-adv-x="1839" 
d="M290 -132h421q78 0 159.5 7t160.5 27v-1q133 37 243 114t188.5 183t121.5 233.5t43 264.5q0 150 -49.5 282t-138 236t-211 175.5t-267.5 99.5q-87 15 -174.5 20t-172.5 5h-324v-1646zM193 1557q0 16 7.5 26.5t18.5 15.5t23 7t20 2h379q66 0 138 -4t145 -13.5t142.5 -26.5
t131.5 -44q121 -56 218 -142t164.5 -193.5t104 -231.5t36.5 -257q0 -148 -44 -286.5t-126 -255t-198 -203t-261 -129.5q-49 -15 -102 -24t-107 -14t-107.5 -7t-103.5 -2h-410q-20 0 -33.5 2.5t-21.5 9.5t-11 20t-3 34v1716zM533 1883q0 20 15 30t29 10q13 0 37.5 -20.5
t53 -49.5t57 -62t48.5 -57v1l1 -1q20 24 48 56.5t56.5 62t53 50t37.5 20.5q16 0 30 -10t14 -30q0 -17 -12 -33l-184 -203q-8 -8 -21 -13.5t-22 -5.5q-14 0 -26 5t-20 12q-4 5 -12 14.5t-20 20.5l-17 17q-23 23 -48.5 50.5t-47 54t-36 48t-14.5 33.5z" />
    <glyph glyph-name="dcaron" unicode="&#x10f;" horiz-adv-x="1033" 
d="M680 1579q26 0 35.5 -16.5t9.5 -32.5v-1486q0 -21 -8 -34.5t-35 -13.5q-22 0 -35.5 13.5t-13.5 34.5v246q-30 -56 -71 -110.5t-90.5 -97.5t-106.5 -69.5t-120 -26.5q-90 0 -145 49t-55 143q0 48 15 91.5t40.5 81.5t58.5 70.5t69 59.5q88 63 192.5 95.5t212.5 35.5v918
q0 22 12.5 35.5t34.5 13.5zM245 77q50 0 94.5 20t83 54t71 78.5t58 93.5t44 100t29.5 97q-47 -1 -101.5 -12t-108.5 -31t-104 -49t-88.5 -66.5t-61.5 -83.5t-23 -100q0 -48 30 -74.5t77 -26.5zM931 1571q14 0 25.5 -12t17.5 -23q-2 -17 -14 -46.5t-29.5 -63.5t-37 -69.5
t-35.5 -63.5l1 1q-2 -8 -6.5 -15.5t-9.5 -15.5v1l-11 -18q-13 -28 -44 -28q-22 0 -31 13.5t-11 30.5q5 18 18 45.5t28.5 59t33 63.5t31.5 58l-1 -1q4 8 10 18.5t11 19.5l11 20q5 12 17 19t26 7z" />
    <glyph glyph-name="Dcroat" unicode="&#x110;" horiz-adv-x="1839" 
d="M193 323h-85q-16 0 -32 12.5t-16 32.5q0 23 16 34t32 11h85v1144q0 16 7.5 26.5t18 15.5t22 7t20.5 2h378q66 0 138 -4t145 -13.5t142.5 -26.5t131.5 -44q121 -56 218 -142t164.5 -193.5t104 -231.5t36.5 -257q0 -148 -44 -286.5t-126 -255t-198 -203t-261 -129.5
q-49 -15 -102 -24t-107 -14t-107.5 -7t-103.5 -2h-409q-21 0 -34 2.5t-20.5 9.5t-10.5 20t-3 34v482zM890 413q16 0 32 -12t16 -33q0 -29 -17 -37t-35 -8h-598v-455h421q78 0 159.5 7t160.5 27v-1q133 37 243 114t189 183t122 233.5t43 264.5q0 149 -49.5 281t-138 236
t-211 175.5t-267.5 100.5q-86 15 -174.5 20t-173.5 5h-324v-1101h602z" />
    <glyph glyph-name="dcroat" unicode="&#x111;" horiz-adv-x="870" 
d="M681 1579q13 0 21.5 -5.5t13 -14t6.5 -17.5t2 -16l2 -414q10 1 20 1h19q19 0 36.5 -2t31 -7t21.5 -14t8 -23t-8.5 -23.5t-22 -15t-30.5 -7.5t-35 -2h-22t-20 1v-976q0 -21 -8.5 -34.5t-34.5 -13.5q-22 0 -35.5 13.5t-13.5 34.5v246q-30 -57 -70 -111.5t-89 -97.5
t-106.5 -69t-122.5 -26q-91 0 -146 49t-55 143q0 48 15 91t40.5 81.5t58.5 71t69 59.5q91 65 194 96.5t212 34.5v410h-261q-16 0 -32.5 11.5t-16.5 33.5q0 23 16.5 33t32.5 10h261v420q0 22 13.5 35.5t35.5 13.5zM246 77q48 0 91.5 20.5t81.5 54.5t70 79t58 94t45 99.5
t30 95.5q-47 -1 -101.5 -12t-108.5 -31t-103.5 -49t-88 -67t-61.5 -84t-23 -99q0 -49 30.5 -75t79.5 -26z" />
    <glyph glyph-name="Emacron" unicode="&#x112;" horiz-adv-x="1612" 
d="M189 312h-157q-21 0 -34.5 13.5t-13.5 34.5q0 28 13.5 36.5t34.5 8.5h157v1152q0 16 7.5 26.5t18.5 15.5t22.5 7t20.5 2h1148q19 0 33.5 -14.5t14.5 -34.5q0 -25 -14.5 -35t-33.5 -10h-1120v-1109h1153q20 0 34 -14t14 -34q0 -25 -14 -35t-34 -10h-1153v-444h1120
q16 0 32 -12t16 -32q0 -27 -11 -38t-37 -11h-1148q-20 0 -33.5 2.5t-21.5 9.5t-11 20t-3 34v471zM981 1802q16 0 32 -12.5t16 -33.5q0 -29 -17 -37t-35 -8h-376q-17 0 -33 12.5t-16 32.5q0 23 16 34.5t33 11.5h380z" />
    <glyph glyph-name="emacron" unicode="&#x113;" horiz-adv-x="731" 
d="M565 358q-17 75 -73 119.5t-135 44.5q-39 0 -73.5 -11.5t-61.5 -33t-46 -51.5t-27 -67zM145 267q8 -90 67.5 -139t153.5 -49q33 0 61.5 8t51.5 19.5t41 24.5t31 24q14 12 25.5 20t25.5 8q18 0 30.5 -13t12.5 -31q0 -14 -5 -24.5t-13 -18.5q-59 -59 -122 -84.5t-146 -25.5
q-72 0 -129.5 23t-97 64t-61 99t-21.5 129q0 68 23.5 125.5t65 99t99 65t125.5 23.5q59 0 113 -23.5t95 -63t65.5 -93t24.5 -113.5q0 -29 -14 -41.5t-41 -12.5h-461zM541 792q17 0 32.5 -12t15.5 -32q0 -29 -16 -37t-35 -8h-369q-16 0 -31.5 12.5t-15.5 32.5q0 22 15.5 33
t31.5 11h372z" />
    <glyph glyph-name="Ebreve" unicode="&#x114;" horiz-adv-x="1612" 
d="M189 312h-157q-21 0 -34.5 13.5t-13.5 34.5q0 28 13.5 36.5t34.5 8.5h157v1152q0 16 7.5 26.5t18.5 15.5t22.5 7t20.5 2h1148q19 0 33.5 -14.5t14.5 -34.5q0 -25 -14.5 -35t-33.5 -10h-1120v-1109h1153q20 0 34 -14t14 -34q0 -25 -14 -35t-34 -10h-1153v-444h1120
q16 0 32 -12t16 -32q0 -27 -11 -38t-37 -11h-1148q-20 0 -33.5 2.5t-21.5 9.5t-11 20t-3 34v471zM568 1917q14 0 23 -7t13.5 -17t6.5 -22.5t3 -22.5v-6q1 -4 2 -9t0 -4q9 -24 28 -41.5t44 -28t52 -15.5t53 -5q31 0 60 7.5t55 24.5l-1 -1q20 14 37 33.5t22 41.5q0 1 1 3t1 4
v2q1 9 3.5 20t7.5 20.5t14 16t24 6.5q13 0 21.5 -5t13.5 -13t7 -17.5t2 -17.5q0 -52 -26.5 -92t-66.5 -67t-88 -41t-91 -14q-48 0 -96 13t-86.5 39.5t-63 67.5t-24.5 97q0 26 11.5 38t37.5 12z" />
    <glyph glyph-name="ebreve" unicode="&#x115;" horiz-adv-x="731" 
d="M565 358q-17 75 -73 119.5t-135 44.5q-39 0 -73.5 -11.5t-61.5 -33t-46 -51.5t-27 -67zM145 267q8 -90 67.5 -139t153.5 -49q33 0 61.5 8t51.5 19.5t41 24.5t31 24q14 12 25.5 20t25.5 8q18 0 30.5 -13t12.5 -31q0 -14 -5 -24.5t-13 -18.5q-59 -59 -122 -84.5t-146 -25.5
q-72 0 -129.5 23t-97 64t-61 99t-21.5 129q0 68 23.5 125.5t65 99t99 65t125.5 23.5q59 0 113 -23.5t95 -63t65.5 -93t24.5 -113.5q0 -29 -14 -41.5t-41 -12.5h-461zM138 906q14 0 22.5 -6.5t13 -17t6 -22.5t2.5 -23q0 -1 0.5 -2t0.5 -5q8 -25 27 -43.5t43.5 -31t52.5 -18.5
t53 -6q31 0 59 7t52 24q18 11 34.5 30.5t22.5 40.5q0 4 2 8q0 2 0.5 4t0.5 4q2 9 4.5 19t7.5 18.5t13 14t22 5.5q13 0 21.5 -5.5t13.5 -13t7 -17t2 -16.5q0 -51 -25.5 -90t-65 -66t-86.5 -40.5t-89 -13.5q-47 0 -94 12.5t-85 39t-62 66.5t-24 95q0 24 11 36.5t37 12.5z" />
    <glyph glyph-name="Edotaccent" unicode="&#x116;" horiz-adv-x="1612" 
d="M189 312h-157q-21 0 -34.5 13.5t-13.5 34.5q0 28 13.5 36.5t34.5 8.5h157v1152q0 16 7.5 26.5t18.5 15.5t22.5 7t20.5 2h1148q19 0 33.5 -14.5t14.5 -34.5q0 -25 -14.5 -35t-33.5 -10h-1120v-1109h1153q20 0 34 -14t14 -34q0 -25 -14 -35t-34 -10h-1153v-444h1120
q16 0 32 -12t16 -32q0 -27 -11 -38t-37 -11h-1148q-20 0 -33.5 2.5t-21.5 9.5t-11 20t-3 34v471zM789 1856q16 0 31.5 -7t27.5 -18.5t19 -26.5t7 -32t-7 -32t-19 -26.5t-27.5 -18.5t-31.5 -7t-31 7.5t-26 19.5t-18 27t-7 30q0 16 7 31t18 27t26 19t31 7z" />
    <glyph glyph-name="edotaccent" unicode="&#x117;" horiz-adv-x="731" 
d="M565 358q-17 75 -73 119.5t-135 44.5q-39 0 -73.5 -11.5t-61.5 -33t-46 -51.5t-27 -67zM145 267q8 -90 67.5 -139t153.5 -49q33 0 61.5 8t51.5 19.5t41 24.5t31 24q14 12 25.5 20t25.5 8q18 0 30.5 -13t12.5 -31q0 -14 -5 -24.5t-13 -18.5q-59 -59 -122 -84.5t-146 -25.5
q-72 0 -129.5 23t-97 64t-61 99t-21.5 129q0 68 23.5 125.5t65 99t99 65t125.5 23.5q59 0 113 -23.5t95 -63t65.5 -93t24.5 -113.5q0 -29 -14 -41.5t-41 -12.5h-461zM355 844q33 0 57.5 -24t24.5 -57q0 -16 -7 -31t-18 -26.5t-26 -18.5t-31 -7t-30.5 7.5t-26 19t-18 26.5
t-6.5 30q0 16 6.5 30.5t18 25.5t26 18t30.5 7z" />
    <glyph glyph-name="Eogonek" unicode="&#x118;" horiz-adv-x="1612" 
d="M189 312h-157q-21 0 -34.5 13.5t-13.5 34.5q0 30 13.5 37.5t34.5 7.5h157v1152q0 16 7.5 26.5t18.5 15.5t22.5 7t20.5 2h1148q19 0 33.5 -14.5t14.5 -34.5q0 -25 -14.5 -35t-33.5 -10h-1120v-1109h1153q20 0 34 -14t14 -34q0 -25 -14 -35t-34 -10h-1153v-444h1120
q16 0 32 -12t16 -32q0 -19 -15 -39q-23 -15 -51 -37.5t-52 -49.5t-40.5 -56t-16.5 -55q0 -28 13.5 -44t35 -23.5t47 -9t49.5 -1.5q9 0 19 -0.5t18 -5t13.5 -13.5t5.5 -26q0 -15 -6.5 -24t-17 -14.5t-23.5 -7t-26 -1.5h-18t-16 1q-2 0 -3 0.5t-3 0.5q-36 0 -68 12t-56.5 34.5
t-38.5 53t-14 68.5q0 57 28.5 103.5t69.5 84.5h-1030q-20 0 -33.5 2.5t-21.5 9.5t-11 20t-3 34v471z" />
    <glyph glyph-name="eogonek" unicode="&#x119;" horiz-adv-x="731" 
d="M145 267q8 -90 67.5 -139t153.5 -49q33 0 61 8t51.5 19.5t41.5 24.5t31 24q14 12 25.5 20t25.5 8q18 0 30.5 -13t12.5 -31q0 -23 -22.5 -44t-51.5 -45q-21 -17 -45.5 -38.5t-45.5 -45.5t-34.5 -49t-13.5 -50q0 -27 13 -42.5t33.5 -23t45.5 -9t49 -1.5q9 0 19 -0.5t18 -5
t13.5 -13.5t5.5 -25q0 -14 -5 -22.5t-13 -13t-17.5 -6.5t-18.5 -2h-58q-35 0 -66.5 12t-55 33.5t-37.5 51.5t-14 67q0 30 12 61.5t28 57.5h-25q-72 0 -129.5 23t-97 64t-61 99t-21.5 129q0 68 23.5 125.5t65 99t99 65t125.5 23.5q59 0 113 -23.5t95 -63t65.5 -93
t24.5 -113.5q0 -29 -14 -41.5t-41 -12.5h-461zM565 358q-17 75 -73 119.5t-135 44.5q-39 0 -73.5 -11.5t-61.5 -33t-46 -51.5t-27 -67z" />
    <glyph glyph-name="Ecaron" unicode="&#x11a;" horiz-adv-x="1612" 
d="M189 312h-157q-21 0 -34.5 13.5t-13.5 34.5q0 28 13.5 36.5t34.5 8.5h157v1152q0 16 7.5 26.5t18.5 15.5t22.5 7t20.5 2h1148q19 0 33.5 -14.5t14.5 -34.5q0 -25 -14.5 -35t-33.5 -10h-1120v-1109h1153q20 0 34 -14t14 -34q0 -25 -14 -35t-34 -10h-1153v-444h1120
q16 0 32 -12t16 -32q0 -27 -11 -38t-37 -11h-1148q-20 0 -33.5 2.5t-21.5 9.5t-11 20t-3 34v471zM550 1883q0 20 14.5 30t30.5 10q12 0 36 -20.5t52.5 -49.5t57 -62t48.5 -57v1l1 -1l1 1v-1q19 24 47.5 56.5t57 62t53 50t37.5 20.5q15 0 30 -10t15 -30t-14 -35l-183 -201
q-8 -8 -20.5 -13.5t-23.5 -5.5q-14 0 -25 5t-19 12q-5 5 -13.5 14.5t-19.5 20.5l-17 17q-23 23 -48.5 50.5t-47 54t-36 48t-14.5 33.5z" />
    <glyph glyph-name="ecaron" unicode="&#x11b;" horiz-adv-x="731" 
d="M565 358q-17 75 -73 119.5t-135 44.5q-39 0 -73.5 -11.5t-61.5 -33t-46 -51.5t-27 -67zM145 267q8 -90 67.5 -139t153.5 -49q33 0 61.5 8t51.5 19.5t41 24.5t31 24q14 12 25.5 20t25.5 8q18 0 30.5 -13t12.5 -31q0 -14 -5 -24.5t-13 -18.5q-59 -59 -122 -84.5t-146 -25.5
q-72 0 -129.5 23t-97 64t-61 99t-21.5 129q0 68 23.5 125.5t65 99t99 65t125.5 23.5q59 0 113 -23.5t95 -63t65.5 -93t24.5 -113.5q0 -29 -14 -41.5t-41 -12.5h-461zM120 871q0 21 14.5 30.5t29.5 9.5q12 0 35.5 -20t51.5 -49t56 -60.5t48 -55.5v1l1 -1q19 23 47 54.5
t55.5 60.5t52 49.5t36.5 20.5q16 0 30 -9.5t14 -30.5q0 -19 -14 -34l-178 -196q-8 -8 -21 -13.5t-22 -5.5q-14 0 -25 5t-19 12l-33 35h1q-21 22 -49 51t-52.5 57.5t-41.5 52.5t-17 36z" />
    <glyph glyph-name="Gcircumflex" unicode="&#x11c;" horiz-adv-x="1931" 
d="M772 320q-20 0 -34.5 13t-14.5 33q0 29 12 37.5t37 8.5h1039q21 0 36.5 -9.5t15.5 -38.5q0 -16 -11 -40t-22 -44q-1 -2 -2 -3.5t-2 -3.5q-1 -3 -2 -5l1 1l-7 -13q-62 -113 -146.5 -203.5t-187.5 -154t-221.5 -98t-248.5 -34.5q-126 0 -243.5 34t-220.5 95t-188.5 147
t-147 189t-95.5 221t-34 244q0 128 33.5 247t94 222t145.5 188t188 145.5t221.5 94t246.5 33.5q69 0 146.5 -13.5t153 -39t144.5 -63.5t122 -86q8 -8 15.5 -20.5t12.5 -26.5q0 -17 -12 -32t-35 -17q-17 8 -22.5 12t-10.5 7q-62 45 -120 79.5t-119.5 58.5t-128.5 36.5
t-146 12.5q-116 0 -222.5 -30t-199.5 -84.5t-169 -130.5t-130.5 -169.5t-84 -200.5t-29.5 -223q0 -113 30.5 -219t85.5 -199t132 -170t169.5 -132.5t198.5 -86t219 -30.5q124 0 234 31.5t202.5 90.5t167 145t128.5 194h-974zM1269 1672q0 -16 -15 -30t-31 -14
q-9 0 -32.5 20.5t-52 50t-57 61.5t-49.5 56v-1q-2 2 -2.5 2t-1.5 2l-2 -2v1q-20 -24 -49 -56.5t-58 -62.5t-52.5 -50.5t-33.5 -20.5q-18 0 -31.5 13t-13.5 31q0 13 18 38t43.5 55t54.5 59.5t50 51.5l30 30v-1q6 7 18 13.5t26 6.5q12 0 25.5 -6.5t19.5 -13.5v1l19 -19l17 -18
q22 -23 49.5 -52t52 -57.5t41.5 -52t17 -35.5z" />
    <glyph glyph-name="gcircumflex" unicode="&#x11d;" horiz-adv-x="870" 
d="M629 290q-30 -56 -70.5 -110.5t-90 -97.5t-106.5 -69.5t-120 -26.5q-91 0 -146 49t-55 143q0 66 27.5 124.5t73 107t105 86.5t124 64t129 40t121.5 14h9q13 0 29.5 -0.5t30.5 -5.5t23.5 -16.5t9.5 -32.5v-573q0 -75 -20.5 -137t-60.5 -106t-100 -68.5t-138 -24.5
q-91 0 -162 36.5t-116 116.5l1 -2q-10 14 -10 31q0 7 3 15.5t8.5 15.5t14 12t19.5 5q15 0 28 -11.5t26 -27.5q10 -14 26 -31t39.5 -32t57 -25t79.5 -10q56 0 96 19.5t65.5 53.5t37.5 79.5t12 98.5v296zM242 77q50 0 94 20t82.5 54t71 78.5t58 93.5t44 100t29.5 97
q-47 -1 -101.5 -11.5t-108.5 -30.5t-104 -49.5t-88.5 -67t-61.5 -83.5t-23 -100q0 -48 30 -74.5t78 -26.5zM703 665q0 -15 -14 -29t-30 -14q-10 0 -33.5 20t-51 48.5t-55.5 60.5t-48 55v-1l-4 3l-2 -1q-1 0 -1 -1q-20 -23 -48 -54.5t-55.5 -60.5t-50.5 -49t-33 -20
q-18 0 -31.5 13t-13.5 30q0 13 17.5 38t43 54t54 58t49.5 51l28 28v-1q7 8 18.5 14t25.5 6q11 0 25 -6.5t21 -14.5l-1 1q10 -14 33 -34q21 -22 48.5 -50.5t51.5 -56.5t40.5 -51.5t16.5 -35.5z" />
    <glyph glyph-name="Gbreve" unicode="&#x11e;" horiz-adv-x="1931" 
d="M772 320q-20 0 -34.5 13t-14.5 33q0 29 12 37.5t37 8.5h1039q21 0 36.5 -9.5t15.5 -38.5q0 -16 -11 -40t-22 -44q-1 -2 -2 -3.5t-2 -3.5q-1 -3 -2 -5l1 1l-7 -13q-62 -113 -146.5 -203.5t-187.5 -154t-221.5 -98t-248.5 -34.5q-126 0 -243.5 34t-220.5 95t-188.5 147
t-147 189t-95.5 221t-34 244q0 128 33.5 247t94 222t145.5 188t188 145.5t221.5 94t246.5 33.5q69 0 146.5 -13.5t153 -39t144.5 -63.5t122 -86q8 -8 15.5 -20.5t12.5 -26.5q0 -17 -12 -32t-35 -17q-17 8 -22.5 12t-10.5 7q-62 45 -120 79.5t-119.5 58.5t-128.5 36.5
t-146 12.5q-116 0 -222.5 -30t-199.5 -84.5t-169 -130.5t-130.5 -169.5t-84 -200.5t-29.5 -223q0 -113 30.5 -219t85.5 -199t132 -170t169.5 -132.5t198.5 -86t219 -30.5q124 0 234 31.5t202.5 90.5t167 145t128.5 194h-974zM730 1927q13 0 21.5 -7t13 -17t6.5 -22.5
t3 -22.5q0 -2 0.5 -3t0.5 -3q2 -5 3.5 -12t0.5 -5q9 -23 28 -39.5t43 -27t51 -15t52 -4.5q32 0 61 7t53 24q18 13 35.5 33t23.5 40q0 5 2 8q0 2 0.5 4t0.5 3q2 10 4.5 20.5t7.5 19t13.5 14t22.5 5.5t22.5 -5t13.5 -13t7 -17.5t2 -17.5q0 -52 -26.5 -92t-67 -67t-88.5 -41
t-91 -14q-47 0 -95 13t-86.5 39.5t-63 67.5t-24.5 97q0 25 11 37.5t39 12.5z" />
    <glyph glyph-name="gbreve" unicode="&#x11f;" horiz-adv-x="870" 
d="M629 290q-30 -56 -70.5 -110.5t-90 -97.5t-106.5 -69.5t-120 -26.5q-91 0 -146 49t-55 143q0 66 27.5 124.5t73 107t105 86.5t124 64t129 40t121.5 14h9q13 0 29.5 -0.5t30.5 -5.5t23.5 -16.5t9.5 -32.5v-573q0 -75 -20.5 -137t-60.5 -106t-100 -68.5t-138 -24.5
q-91 0 -162 36.5t-116 116.5l1 -2q-10 14 -10 31q0 7 3 15.5t8.5 15.5t14 12t19.5 5q15 0 28 -11.5t26 -27.5q10 -14 26 -31t39.5 -32t57 -25t79.5 -10q56 0 96 19.5t65.5 53.5t37.5 79.5t12 98.5v296zM242 77q50 0 94 20t82.5 54t71 78.5t58 93.5t44 100t29.5 97
q-47 -1 -101.5 -11.5t-108.5 -30.5t-104 -49.5t-88.5 -67t-61.5 -83.5t-23 -100q0 -48 30 -74.5t78 -26.5zM207 906q13 0 21.5 -6.5t13 -17t6 -22.5t2.5 -23q0 -1 0.5 -2t0.5 -5q7 -26 26 -44.5t43.5 -30.5t52 -18t53.5 -6q31 0 60 7t52 24q20 12 36 31t21 41q0 1 0.5 1.5
t0.5 1.5v4q0 1 0.5 3.5t0.5 4.5q2 9 4.5 19t8 18.5t13.5 14t22 5.5q13 0 22 -5.5t13.5 -13t6.5 -17t2 -16.5q0 -51 -26 -90t-65.5 -66t-86.5 -40.5t-89 -13.5q-47 0 -94 12.5t-84.5 39t-61.5 66.5t-24 95q0 24 11 36.5t38 12.5z" />
    <glyph glyph-name="Gdotaccent" unicode="&#x120;" horiz-adv-x="1931" 
d="M772 320q-20 0 -34.5 13t-14.5 33q0 29 12 37.5t37 8.5h1039q21 0 36.5 -9.5t15.5 -38.5q0 -16 -11 -40t-22 -44q-1 -2 -2 -3.5t-2 -3.5q-1 -3 -2 -5l1 1l-7 -13q-62 -113 -146.5 -203.5t-187.5 -154t-221.5 -98t-248.5 -34.5q-126 0 -243.5 34t-220.5 95t-188.5 147
t-147 189t-95.5 221t-34 244q0 128 33.5 247t94 222t145.5 188t188 145.5t221.5 94t246.5 33.5q69 0 146.5 -13.5t153 -39t144.5 -63.5t122 -86q8 -8 15.5 -20.5t12.5 -26.5q0 -17 -12 -32t-35 -17q-17 8 -22.5 12t-10.5 7q-62 45 -120 79.5t-119.5 58.5t-128.5 36.5
t-146 12.5q-116 0 -222.5 -30t-199.5 -84.5t-169 -130.5t-130.5 -169.5t-84 -200.5t-29.5 -223q0 -113 30.5 -219t85.5 -199t132 -170t169.5 -132.5t198.5 -86t219 -30.5q124 0 234 31.5t202.5 90.5t167 145t128.5 194h-974zM1018 1858q16 0 31.5 -6.5t27.5 -18t19 -26.5
t7 -32t-7 -32t-19 -26.5t-27.5 -18.5t-31.5 -7t-31 7.5t-26 19.5t-18 27t-7 30q0 16 7 31t18 26.5t26 18.5t31 7z" />
    <glyph glyph-name="gdotaccent" unicode="&#x121;" horiz-adv-x="870" 
d="M629 290q-30 -56 -70.5 -110.5t-90 -97.5t-106.5 -69.5t-120 -26.5q-91 0 -146 49t-55 143q0 66 27.5 124.5t73 107t105 86.5t124 64t129 40t121.5 14h9q13 0 29.5 -0.5t30.5 -5.5t23.5 -16.5t9.5 -32.5v-573q0 -75 -20.5 -137t-60.5 -106t-100 -68.5t-138 -24.5
q-91 0 -162 36.5t-116 116.5l1 -2q-10 14 -10 31q0 7 3 15.5t8.5 15.5t14 12t19.5 5q15 0 28 -11.5t26 -27.5q10 -14 26 -31t39.5 -32t57 -25t79.5 -10q56 0 96 19.5t65.5 53.5t37.5 79.5t12 98.5v296zM242 77q50 0 94 20t82.5 54t71 78.5t58 93.5t44 100t29.5 97
q-47 -1 -101.5 -11.5t-108.5 -30.5t-104 -49.5t-88.5 -67t-61.5 -83.5t-23 -100q0 -48 30 -74.5t78 -26.5zM420 844q16 0 31.5 -6.5t26.5 -17.5t18 -26t7 -31t-7 -31t-18.5 -26.5t-26.5 -18.5t-31 -7t-30.5 7.5t-25.5 19t-17.5 26.5t-6.5 30q0 16 6.5 30.5t17.5 25.5
t25.5 18t30.5 7z" />
    <glyph glyph-name="Gcommaaccent" unicode="&#x122;" horiz-adv-x="1931" 
d="M885 -482q0 20 6 30t15.5 13.5t21 2.5t22.5 -3h1q21 0 26.5 21t5.5 46q0 5 -0.5 9t-0.5 8v41q0 33 8 53.5t39 20.5q27 0 36.5 -12t9.5 -36v-77q0 -36 -4 -65.5t-16.5 -50.5t-35.5 -32.5t-60 -11.5q-5 0 -17.5 1t-25 5.5t-22 13t-9.5 23.5zM772 320q-20 0 -34.5 13
t-14.5 33q0 29 12 37.5t37 8.5h1039q21 0 36.5 -9.5t15.5 -38.5q0 -16 -11 -40t-22 -44q-1 -2 -2 -3.5t-2 -3.5q-1 -3 -2 -5l1 1l-7 -13q-62 -113 -146.5 -203.5t-187.5 -154t-221.5 -98t-248.5 -34.5q-126 0 -243.5 34t-220.5 95t-188.5 147t-147 189t-95.5 221t-34 244
q0 128 33.5 247t94 222t145.5 188t188 145.5t221.5 94t246.5 33.5q69 0 146.5 -13.5t153 -39t144.5 -63.5t122 -86q8 -8 15.5 -20.5t12.5 -26.5q0 -17 -12 -32t-35 -17q-17 8 -22.5 12t-10.5 7q-62 45 -120 79.5t-119.5 58.5t-128.5 36.5t-146 12.5q-116 0 -222.5 -30
t-199.5 -84.5t-169 -130.5t-130.5 -169.5t-84 -200.5t-29.5 -223q0 -113 30.5 -219t85.5 -199t132 -170t169.5 -132.5t198.5 -86t219 -30.5q124 0 234 31.5t202.5 90.5t167 145t128.5 194h-974z" />
    <glyph glyph-name="gcommaaccent" unicode="&#x123;" horiz-adv-x="870" 
d="M629 290q-30 -56 -70.5 -110.5t-90 -97.5t-106.5 -69.5t-120 -26.5q-91 0 -146 49t-55 143q0 70 30 131t80 111t114.5 88t133.5 63q-17 4 -23.5 15.5t-6.5 31.5v76q0 35 4 64t16 49.5t34.5 31.5t59.5 11q5 0 17 -1t24.5 -5.5t22 -13t9.5 -23.5q0 -19 -6 -28.5t-15.5 -13
t-21 -2.5t-22.5 3h-1q-10 0 -16 -5.5t-9 -15t-4 -21.5t-1 -24v-16q0 -4 0.5 -7.5t0.5 -7.5v-26q0 -17 -2 -31t-7 -24q90 26 169 26h9q13 0 29.5 -0.5t30.5 -5.5t23.5 -16.5t9.5 -32.5v-573q0 -75 -20.5 -137t-60.5 -106t-100 -68.5t-138 -24.5q-91 0 -162 36.5t-116 116.5
l1 -2q-10 14 -10 31q0 7 3 15.5t8.5 15.5t14 12t19.5 5q15 0 28 -11.5t26 -27.5q10 -14 26 -31t39.5 -32t57 -25t79.5 -10q56 0 96 19.5t65.5 53.5t37.5 79.5t12 98.5v296zM242 77q50 0 94 20t82.5 54t71 78.5t58 93.5t44 100t29.5 97q-47 -1 -101.5 -11.5t-108.5 -30.5
t-104 -49.5t-88.5 -67t-61.5 -83.5t-23 -100q0 -48 30 -74.5t78 -26.5z" />
    <glyph glyph-name="Hcircumflex" unicode="&#x124;" horiz-adv-x="1731" 
d="M239 1616q23 0 35 -14t12 -35v-1162h1125v1162q0 21 13 35t35 14t34.5 -14t12.5 -35v-1751q0 -22 -13 -36t-36 -14q-28 0 -37 14t-9 36v496h-1125v-496q0 -22 -13.5 -36t-35.5 -14q-26 0 -36 14t-10 36v496h-101q-23 0 -37 13.5t-14 34.5q0 30 14 37.5t37 7.5h101v1162
q0 19 14 34t34 15zM1088 1672q0 -8 -4 -16t-10.5 -14t-14.5 -10t-15 -4q-10 0 -34 20.5t-52.5 50t-57 61.5t-49.5 56v-1l-3 3l-1 -1v1q-20 -24 -49 -56.5t-58 -62.5t-53.5 -50.5t-34.5 -20.5q-17 0 -30.5 13t-13.5 31q0 13 18 38t44 55t55 59.5t50 51.5v-1l28 30
q7 7 20 13.5t25 6.5q11 0 25.5 -6.5t20.5 -13.5q5 -5 13 -14t21 -22q22 -23 50 -52t52.5 -57.5t41 -52t16.5 -35.5z" />
    <glyph glyph-name="hcircumflex" unicode="&#x125;" horiz-adv-x="782" 
d="M400 1440q0 -16 -15 -29.5t-29 -13.5q-8 0 -24 12.5t-36.5 32t-43 44t-43.5 47.5v-7v-971q45 24 94.5 40.5t100.5 16.5q75 0 121.5 -22.5t72.5 -62t35.5 -94t9.5 -118.5v-271q0 -20 -13.5 -34t-33.5 -14q-23 0 -34.5 13.5t-12.5 33.5q0 31 -0.5 65.5t-1 70t-0.5 70v66.5
q0 39 -4.5 76t-18.5 65.5t-40.5 46t-71.5 17.5q-54 0 -104.5 -20t-98.5 -47v-409q0 -21 -13 -34.5t-34 -13.5q-26 0 -36 13.5t-10 34.5v353q-8 -3 -16 -5.5t-14 -2.5q-19 0 -29.5 11t-10.5 29q0 12 6.5 22.5t17 19.5t23 16.5t23.5 13.5v1028q-21 -23 -43 -46.5t-42 -42.5
t-35.5 -31t-23.5 -12q-17 0 -30.5 13t-13.5 30q0 13 17.5 38t43 54t54 58t49.5 50l28 28v-1q6 8 19 15t24 7t25 -6.5t20 -14.5l34 -34q21 -22 48.5 -50.5t52 -56t41 -51t16.5 -36.5zM164 1579h4q-1 1 -1 2v-1q-2 2 -2.5 2t-1.5 2l-4 -5h5z" />
    <glyph glyph-name="Hbar" unicode="&#x126;" horiz-adv-x="1731" 
d="M239 1616q23 0 35 -14t12 -35v-913h1124v913q0 21 13.5 35t35.5 14t34.5 -14t12.5 -35v-1751q0 -22 -13.5 -36t-35.5 -14q-28 0 -37.5 14t-9.5 36v496h-1124v-496q0 -22 -13.5 -36t-35.5 -14q-26 0 -36 14t-10 36v496h-101q-23 0 -37 13.5t-14 34.5q0 30 14 37.5t37 7.5
h101v159h-110q-17 0 -32.5 12.5t-15.5 33.5q0 22 15.5 33t32.5 11h110v913q0 19 14 34t34 15zM1410 405v159h-1124v-159h1124z" />
    <glyph glyph-name="hbar" unicode="&#x127;" horiz-adv-x="782" 
d="M455 795q16 0 31.5 -12t15.5 -32q0 -29 -16.5 -37t-34.5 -8h-241v-151q45 24 95 40.5t101 16.5q74 0 120.5 -22.5t73 -62t36 -94t9.5 -118.5v-271q0 -20 -13.5 -34t-33.5 -14q-23 0 -34.5 13.5t-12.5 33.5q0 31 -0.5 65.5t-1 70t-0.5 70v66.5q0 39 -4.5 76t-19 65.5
t-41 46t-70.5 17.5q-54 0 -105 -20t-99 -47v-409q0 -21 -13 -34.5t-35 -13.5q-25 0 -34.5 13.5t-9.5 34.5v353q-8 -3 -16.5 -5.5t-14.5 -2.5q-18 0 -29 11t-11 29q0 11 7 21.5t17.5 19.5t23 17t23.5 14v205h-35q-17 0 -32.5 12.5t-15.5 32.5q0 22 15.5 33t32.5 11h35v735
q0 22 13.5 35.5t34.5 13.5q27 0 35.5 -17t8.5 -36v-731h245z" />
    <glyph glyph-name="Itilde" unicode="&#x128;" horiz-adv-x="512" 
d="M205 1567q0 21 13 35t36 14q29 0 36.5 -14t7.5 -35v-1751q0 -22 -13.5 -36t-34.5 -14q-30 0 -37.5 14t-7.5 36v1751zM137 1780q-26 0 -34.5 -11.5t-14.5 -28.5q-4 -11 -9 -23t-16 -27q-3 -5 -9.5 -9.5t-12.5 -4.5q-49 0 -49 49q0 29 11 55.5t30.5 46.5t45.5 31.5t56 11.5
q35 0 65 -13.5t61 -31.5h-1q24 -14 48 -25.5t48 -11.5q23 0 43.5 13.5t20.5 36.5q0 9 1 18t5.5 16.5t13.5 12.5t25 5q24 0 34.5 -16.5t10.5 -33.5q0 -32 -13 -58t-34 -44.5t-48 -29t-56 -10.5q-38 0 -70 14.5t-61 31.5q-23 13 -47 24.5t-44 11.5z" />
    <glyph glyph-name="itilde" unicode="&#x129;" horiz-adv-x="356" 
d="M219 44q0 -20 -14 -34t-33 -14q-27 0 -36 13.5t-9 34.5v519q0 20 13 34.5t34 14.5q26 0 35.5 -17t9.5 -34v-517zM61 771q-26 0 -34.5 -11.5t-13.5 -27.5q-4 -12 -9 -24t-15 -26v1q-3 -5 -9.5 -9.5t-12.5 -4.5q-47 0 -47 48q0 29 10.5 55t29.5 45.5t44.5 31t54.5 11.5
q34 0 63.5 -14t58.5 -31l-3 1q2 -1 4.5 -2.5t4.5 -2.5q23 -11 45 -22t43 -11q23 0 43 13t20 36q0 19 6.5 35t36.5 16q25 0 35 -15.5t10 -33.5q0 -30 -12.5 -55.5t-33 -44t-47.5 -29t-56 -10.5q-37 0 -67.5 14t-59.5 31l3 -1q-2 1 -4.5 2.5t-4.5 2.5q-22 12 -42.5 22
t-40.5 10z" />
    <glyph glyph-name="Imacron" unicode="&#x12a;" horiz-adv-x="512" 
d="M205 1567q0 21 13 35t36 14q29 0 36.5 -14t7.5 -35v-1751q0 -22 -13.5 -36t-34.5 -14q-30 0 -37.5 14t-7.5 36v1751zM441 1802q17 0 32.5 -12.5t15.5 -33.5q0 -29 -16 -37t-36 -8h-376q-16 0 -32 12.5t-16 32.5q0 23 16 34.5t32 11.5h380z" />
    <glyph glyph-name="imacron" unicode="&#x12b;" horiz-adv-x="356" 
d="M219 44q0 -20 -14 -34t-33 -14q-27 0 -36 13.5t-9 34.5v519q0 20 13 34.5t34 14.5q26 0 35.5 -17t9.5 -34v-517zM359 792q16 0 32 -12t16 -32q0 -29 -17 -37t-35 -8h-368q-16 0 -32 12.5t-16 32.5q0 22 16 33t32 11h372z" />
    <glyph glyph-name="Ibreve" unicode="&#x12c;" horiz-adv-x="512" 
d="M205 1567q0 21 13 35t36 14q29 0 36.5 -14t7.5 -35v-1751q0 -22 -13.5 -36t-34.5 -14q-30 0 -37.5 14t-7.5 36v1751zM30 1917q13 0 21.5 -7t13 -17t6.5 -22.5t3 -22.5q0 -2 0.5 -3t0.5 -3q1 -4 2 -8.5t0 -3.5q9 -25 28 -42.5t43.5 -28t52.5 -15.5t54 -5q63 0 114 31
q18 13 35 32.5t22 40.5q0 5 2 9q0 2 0.5 4t0.5 3q2 9 4.5 19.5t7.5 19t14 14t23 5.5q13 0 22 -5t14 -13t7 -17.5t2 -17.5q0 -52 -26.5 -92t-66.5 -67t-88 -41t-91 -14q-48 0 -96 13t-87 39.5t-63 67.5t-24 97q0 26 10.5 38t38.5 12z" />
    <glyph glyph-name="ibreve" unicode="&#x12d;" horiz-adv-x="356" 
d="M219 44q0 -20 -14 -34t-33 -14q-27 0 -36 13.5t-9 34.5v519q0 20 13 34.5t34 14.5q26 0 35.5 -17t9.5 -34v-517zM-44 906q13 0 21.5 -6.5t13 -17t6.5 -22.5t3 -23q0 -1 0.5 -2t0.5 -5q8 -25 26.5 -43.5t43 -31t52 -18.5t52.5 -6q32 0 60.5 7t52.5 24q17 11 34 30.5
t22 40.5q0 4 2 8q0 2 0.5 4t0.5 4q2 9 4.5 19t8 18.5t13.5 14t22 5.5q13 0 21.5 -5.5t13.5 -13t7 -17t2 -16.5q0 -51 -26 -90t-65.5 -66t-86.5 -40.5t-89 -13.5q-47 0 -94 12.5t-85 39t-62 66.5t-24 95q0 24 11.5 36.5t37.5 12.5z" />
    <glyph glyph-name="Iogonek" unicode="&#x12e;" horiz-adv-x="512" 
d="M204 1567q0 21 13.5 35t34.5 14q29 0 37 -14t8 -35v-1751q0 -13 -7 -24.5t-18 -19.5l1 1q-21 -16 -44.5 -35.5t-43 -42t-32 -47.5t-12.5 -52q0 -28 13.5 -43.5t35 -23t47.5 -9t50 -1.5q8 0 18 -0.5t18.5 -5t14 -13.5t5.5 -26q0 -14 -5.5 -22.5t-13.5 -13.5t-17.5 -7
t-17.5 -2h-59q-36 0 -68.5 12t-56.5 34t-38 52.5t-14 68.5t13.5 72t35 63.5t48.5 54.5t54 46v1735z" />
    <glyph glyph-name="iogonek" unicode="&#x12f;" horiz-adv-x="356" 
d="M218 44q0 -14 -8.5 -25.5t-19.5 -17.5q-21 -16 -43.5 -35.5t-41 -41.5t-30.5 -46.5t-12 -50.5q0 -28 13.5 -43.5t34 -23t46 -9t49.5 -1.5q8 0 17.5 -0.5t17.5 -4.5t13.5 -13t5.5 -25q0 -14 -5 -22.5t-13 -13.5t-17 -7t-17 -2h-60q-35 0 -66.5 12t-55 33.5t-37.5 52
t-14 67.5q0 38 13.5 72t35.5 63.5t48.5 54.5t53.5 45v501q0 20 13 34.5t35 14.5q25 0 34.5 -17t9.5 -34v-517zM172 1038q30 0 51.5 -22t21.5 -52q0 -29 -22 -51t-51 -22t-51.5 22t-22.5 51q0 15 6 28t16.5 23.5t23.5 16.5t28 6z" />
    <glyph glyph-name="Idotaccent" unicode="&#x130;" horiz-adv-x="512" 
d="M205 1567q0 21 13 35t36 14q29 0 36.5 -14t7.5 -35v-1751q0 -22 -13.5 -36t-34.5 -14q-30 0 -37.5 14t-7.5 36v1751zM251 1856q16 0 31.5 -7t26.5 -18.5t18 -26.5t7 -32t-7 -32t-18.5 -26.5t-26.5 -18.5t-31 -7q-17 0 -32 7.5t-26 19.5t-18 27t-7 30q0 16 7 31t18 27
t26 19t32 7z" />
    <glyph glyph-name="dotlessi" unicode="&#x131;" horiz-adv-x="356" 
d="M219 44q0 -20 -14 -34t-33 -14q-27 0 -36 13.5t-9 34.5v519q0 20 13 34.5t34 14.5q26 0 35.5 -17t9.5 -34v-517z" />
    <glyph glyph-name="IJ" unicode="&#x132;" horiz-adv-x="1645" 
d="M1499 645q0 -63 -3.5 -135t-14.5 -145t-31.5 -142t-53.5 -125q-51 -81 -121 -143.5t-152 -105t-173 -65t-185 -22.5q-119 0 -231.5 37t-206.5 105.5t-162.5 164t-98.5 212.5q-1 1 -1 2q-2 5 -3 12.5t-1 10.5q0 18 13.5 31.5t30.5 13.5q22 0 33.5 -15t16.5 -30
q30 -102 88.5 -185t140 -141.5t183.5 -90.5t219 -32q31 0 66.5 5t71.5 13.5t71 20t65 23.5h-1q114 59 182.5 142t104.5 182t47.5 211.5t11.5 231.5v883q0 21 13.5 35t35.5 14q30 0 37.5 -14t7.5 -35v-924zM360 1567q0 21 13 35t36 14q29 0 36.5 -14t7.5 -35v-1290
q0 -23 -13.5 -36t-34.5 -13q-29 0 -37 13t-8 36v1290z" />
    <glyph glyph-name="ij" unicode="&#x133;" horiz-adv-x="702" 
d="M178 1038q30 0 51.5 -22t21.5 -52q0 -29 -22 -51t-51 -22t-51 22t-22 51q0 15 6 28t16 23.5t23 16.5t28 6zM224 44q0 -20 -14.5 -34t-33.5 -14q-26 0 -35 13.5t-9 34.5v519q0 20 13 34.5t35 14.5q25 0 34.5 -17t9.5 -34v-517zM504 1038q15 0 28 -6t23 -16.5t16 -23.5
t6 -28q0 -29 -22 -51t-51 -22t-51 22t-22 51q0 15 6 28t16 23.5t23 16.5t28 6zM550 -14q0 -65 -15 -125.5t-48 -107.5t-85.5 -75t-127.5 -28q-9 0 -19.5 1.5t-20 6.5t-16 14.5t-6.5 24.5q0 18 5.5 27.5t13.5 14t18.5 5t20.5 0.5q54 0 90.5 21.5t58.5 57.5t31 82t9 94v564
q0 23 13 36t34 13q14 0 23 -5t13.5 -13t6 -17t1.5 -16v-575z" />
    <glyph glyph-name="Jcircumflex" unicode="&#x134;" horiz-adv-x="1788" 
d="M1491 645q0 -63 -3.5 -135t-15 -145t-32 -142t-53.5 -125q-51 -81 -121 -143.5t-152 -105t-173 -65t-185 -22.5q-119 0 -231.5 37t-206.5 105.5t-162.5 164t-98.5 212.5q-1 1 -1 2q-2 5 -3 12.5t-1 10.5q0 18 13.5 31.5t31.5 13.5q21 0 32.5 -15t16.5 -30
q30 -102 88.5 -185t140 -141.5t183.5 -90.5t219 -32q31 0 66.5 5t71.5 13.5t71 20t65 23.5h-1q114 59 182.5 142t104.5 182t47.5 211.5t11.5 231.5v883q0 21 13.5 35t35.5 14q30 0 38 -14t8 -35v-924zM1117 1672q0 -16 -15 -30t-31 -14q-9 0 -32.5 20.5t-52 50t-57 61.5
t-49.5 56v-1q-2 2 -2.5 2t-1.5 2l-2 -2v1q-20 -24 -49 -56.5t-58 -62.5t-52.5 -50.5t-33.5 -20.5q-18 0 -32 13t-14 31q0 13 18 38t44 55t55 59.5t50 51.5l30 30v-1q6 7 18 13.5t26 6.5q12 0 25.5 -6.5t19.5 -13.5v1l35 -36l21 -22q22 -23 46.5 -49.5t45.5 -50.5t34.5 -44.5
t13.5 -31.5z" />
    <glyph glyph-name="jcircumflex" unicode="&#x135;" horiz-adv-x="346" 
d="M208 -14q0 -65 -15 -125.5t-48 -107.5t-85.5 -75t-127.5 -28q-9 0 -19.5 1.5t-19.5 6.5t-15.5 14.5t-6.5 24.5q0 18 5 27.5t13.5 14t18.5 5t20 0.5q55 0 91 21.5t58 57.5t31 82t9 94v564q0 23 13 36t34 13q14 0 23 -5t13.5 -13t6 -17t1.5 -16v-575zM402 665
q0 -15 -14 -29t-29 -14q-10 0 -33.5 20t-51 48.5t-56 60.5t-47.5 55v-1l-4 4q-2 -2 -3 -2l-1 -1q-20 -23 -48 -54.5t-55.5 -60.5t-50.5 -49t-33 -20q-18 0 -31 13t-13 30q0 12 15 34t37.5 48.5t49 53.5t48.5 50q2 2 4 5t5 6q3 4 7 7l25 25v-1q7 8 19 14t25 6q11 0 24.5 -6
t20.5 -14v1l18 -19l16 -16q21 -22 48 -50.5t51 -56t40.5 -51t16.5 -36.5z" />
    <glyph glyph-name="Kcommaaccent" unicode="&#x136;" horiz-adv-x="1714" 
d="M289 -184q0 -22 -13.5 -36t-36.5 -14q-25 0 -35.5 14t-10.5 36v1751q0 19 14.5 34t33.5 15q23 0 35.5 -14t12.5 -35v-939l33 26l77 60q72 55 161 122.5t185.5 141t196 149.5t193 146.5t176 133t145 109t100 74t40.5 28.5q12 0 22 -5.5t16.5 -14.5t10.5 -19.5t4 -19.5
q-3 -6 -47.5 -42.5t-118 -94.5t-169.5 -132t-202 -155t-215 -164t-208.5 -158t-182.5 -138t-137 -104l-35 -25l1305 -689q8 -5 15.5 -16.5t10.5 -19.5q0 -19 -12.5 -36t-32.5 -17q-3 0 -38.5 17.5t-93.5 47.5t-136 70.5t-166.5 87t-183.5 96.5t-189 100t-181.5 96.5
t-161.5 85.5l-181 95v-648zM748 -371q0 20 6 30t15.5 13.5t21.5 2.5t23 -3h1q19 0 24.5 20.5t5.5 46.5q0 5 -0.5 9t-0.5 8v41q0 32 8.5 53t38.5 21q28 0 37 -12t9 -36v-77q0 -36 -4 -65.5t-16 -50.5t-35 -32.5t-61 -11.5q-5 0 -17 1t-24.5 5.5t-22 13t-9.5 23.5z" />
    <glyph glyph-name="kcommaaccent" unicode="&#x137;" horiz-adv-x="764" 
d="M121 1530q0 22 13.5 35.5t35.5 13.5q26 0 34.5 -17t8.5 -36v-1192l237 164q35 26 73 51t73 51l21 12q22 -2 38.5 -13t16.5 -34q0 -6 -15 -20.5t-40 -34.5t-58 -44t-68 -49t-70.5 -49.5t-65.5 -44.5h28q72 0 115 -10t66.5 -30t31 -52t7.5 -75q0 -14 -0.5 -30.5t-1.5 -33.5
q0 -5 -0.5 -11.5t-0.5 -11.5q-1 -16 -1.5 -33.5t-0.5 -34.5q0 -26 13.5 -42.5t39.5 -16.5q14 0 23.5 8t17.5 18v1q11 14 23.5 24.5t34.5 10.5q11 -8 21.5 -20.5t10.5 -26.5q0 -20 -15 -39.5t-36.5 -34.5t-44.5 -24t-39 -9q-45 0 -73 14.5t-43.5 39.5t-21 56.5t-5.5 66.5
q0 17 0.5 35t2.5 33q0 4 0.5 9t0.5 9q1 8 1.5 17t0.5 17q0 30 -7 47t-20.5 25.5t-35 10.5t-49.5 2q-36 0 -71.5 -1.5t-71.5 -3.5l-37 -2h-5v-181q0 -21 -13 -34.5t-34 -13.5q-25 0 -35 13.5t-10 34.5v1486zM280 -226q0 19 6 28.5t15.5 13t21 2.5t22.5 -3h1q19 0 24 20.5
t5 45.5q0 5 -0.5 8.5t-0.5 7.5v41q0 32 8.5 53t37.5 21q28 0 37 -12.5t9 -35.5v-76q0 -36 -4 -65t-16 -49.5t-34.5 -31.5t-59.5 -11q-5 0 -17 1t-24 5.5t-21.5 13t-9.5 23.5z" />
    <glyph glyph-name="kgreenlandic" unicode="&#x138;" horiz-adv-x="764" 
d="M121 564q0 23 13.5 36t35.5 13q26 0 34.5 -17t8.5 -34v-228l237 164q35 26 73 51t73 51l21 12q22 -2 38.5 -13t16.5 -34q0 -6 -15 -20.5t-40 -34.5t-58 -44t-68 -49t-70.5 -49.5t-65.5 -44.5h28q72 0 115 -10t66.5 -30t31 -52t7.5 -75q0 -14 -0.5 -30.5t-1.5 -33.5
q0 -5 -0.5 -11.5t-0.5 -11.5q-1 -16 -1.5 -33.5t-0.5 -34.5q0 -26 13.5 -42.5t39.5 -16.5q14 0 23.5 8t17.5 18v1q11 14 23.5 24.5t34.5 10.5q11 -8 21.5 -20.5t10.5 -26.5q0 -20 -15 -39.5t-36.5 -34.5t-44.5 -24t-39 -9q-45 0 -73 14.5t-43.5 39.5t-21 56.5t-5.5 66.5
q0 17 0.5 35t2.5 33q0 4 0.5 9t0.5 9q1 8 1.5 17t0.5 17q0 30 -7 47t-20.5 25.5t-35 10.5t-49.5 2q-36 0 -71.5 -1.5t-71.5 -3.5l-37 -2h-5v-181q0 -21 -13 -34.5t-34 -13.5q-25 0 -35 13.5t-10 34.5v520z" />
    <glyph glyph-name="Lacute" unicode="&#x139;" horiz-adv-x="1554" 
d="M287 -132h1120q17 0 33 -12t16 -32q0 -27 -11 -38t-38 -11h-1147q-20 0 -33.5 2.5t-21.5 9.5t-11 20t-3 34v1726q0 19 14.5 34t33.5 15q23 0 35.5 -14t12.5 -35v-1699zM874 1942q16 0 30.5 -11.5t14.5 -30.5q0 -11 -25 -41.5t-60 -68t-72 -74t-60 -59.5l-15 -15
q-2 -2 -6.5 -4.5t-9.5 -5t-10 -4.5t-8 -2q-18 0 -31.5 13t-13.5 31q0 12 21.5 40t52 61t64.5 67t59 58l33 32q8 8 18 11t18 3z" />
    <glyph glyph-name="lacute" unicode="&#x13a;" horiz-adv-x="356" 
d="M127 1530q0 20 13 34.5t34 14.5q26 0 35.5 -17t9.5 -36v-1482q0 -20 -14 -34t-33 -14q-27 0 -36 13.5t-9 34.5v1486zM282 1922q16 0 29.5 -11.5t13.5 -29.5q0 -10 -24 -39.5t-57.5 -65.5t-70 -72.5l-60.5 -60.5l-11 -12l-3 -4q-3 -3 -15.5 -9t-18.5 -6q-18 0 -30.5 13
t-12.5 30q0 12 20.5 39t50 59t62.5 65.5t58 57.5l33 32q8 8 17.5 11t18.5 3z" />
    <glyph glyph-name="Lcommaaccent" unicode="&#x13b;" horiz-adv-x="1554" 
d="M287 -132h1120q17 0 33 -12t16 -32q0 -27 -11 -38t-38 -11h-1147q-20 0 -33.5 2.5t-21.5 9.5t-11 20t-3 34v1726q0 19 14.5 34t33.5 15q23 0 35.5 -14t12.5 -35v-1699zM696 -472q0 20 6 30t15.5 13.5t21.5 2.5t23 -3h1q19 0 24.5 20.5t5.5 46.5q0 5 -0.5 8.5t-0.5 7.5v42
q0 32 8.5 53t38.5 21q28 0 37 -12t9 -36v-77q0 -36 -4 -65.5t-16 -50.5t-35 -32.5t-61 -11.5q-5 0 -17 1t-24.5 5.5t-22 13t-9.5 23.5z" />
    <glyph glyph-name="lcommaaccent" unicode="&#x13c;" horiz-adv-x="356" 
d="M23 -226q0 19 6 28.5t15 13t20.5 2.5t22.5 -3h1q19 0 24.5 20.5t5.5 45.5q0 5 -0.5 8.5t-0.5 7.5v41q0 23 3.5 41t17.5 26q-8 7 -10 16.5t-2 22.5v1486q0 20 13 34.5t35 14.5q25 0 34.5 -17t9.5 -36v-1482q0 -13 -6.5 -23.5t-16.5 -16.5q15 -11 15 -40v-76q0 -36 -4 -65
t-16.5 -49.5t-35 -31.5t-58.5 -11q-6 0 -18 1t-24 5.5t-21.5 13t-9.5 23.5z" />
    <glyph glyph-name="Lcaron" unicode="&#x13d;" horiz-adv-x="1554" 
d="M287 -132h1120q17 0 33 -12t16 -32q0 -27 -11 -38t-38 -11h-1147q-20 0 -33.5 2.5t-21.5 9.5t-11 20t-3 34v1726q0 19 14.5 34t33.5 15q23 0 35.5 -14t12.5 -35v-1699zM670 1608q15 0 27 -12.5t17 -21.5q-2 -18 -14 -48t-29.5 -65.5t-37.5 -71.5t-36 -65q-3 -5 -7.5 -12
t-6.5 -12l-14 -25l1 1q-5 -13 -17.5 -20.5t-27.5 -7.5q-24 0 -32.5 13t-10.5 32q5 18 18 46.5t29 60.5t33.5 64.5t32.5 59.5l12 22q4 8 8.5 16.5t9.5 18.5q7 11 19.5 19t25.5 8z" />
    <glyph glyph-name="lcaron" unicode="&#x13e;" horiz-adv-x="365" 
d="M131 1530q0 20 13 34.5t34 14.5q26 0 35.5 -17t9.5 -36v-1482q0 -20 -14.5 -34t-34.5 -14q-26 0 -34.5 13.5t-8.5 34.5v1486zM432 1588q14 0 26.5 -12.5t17.5 -21.5q-2 -17 -14.5 -46.5t-29.5 -64t-37 -70t-36 -63.5v1l-14 -25l-12 -24q-15 -26 -44 -26q-23 0 -32 12.5
t-11 31.5q5 18 18 45.5t29 58.5t33 63t32 58l-1 -1l18 36l13 22l-1 -1q5 12 17.5 19.5t27.5 7.5z" />
    <glyph glyph-name="Ldot" unicode="&#x13f;" horiz-adv-x="1554" 
d="M287 -132h1120q17 0 33 -12t16 -32q0 -27 -11 -38t-38 -11h-1147q-20 0 -33.5 2.5t-21.5 9.5t-11 20t-3 34v1726q0 19 14.5 34t33.5 15q23 0 35.5 -14t12.5 -35v-1699zM587 642q31 0 53.5 -22t22.5 -54t-22.5 -54t-53.5 -22q-14 0 -27.5 6.5t-24.5 17.5t-18 24.5t-7 27.5
q0 15 6.5 28.5t17 24t24.5 17t29 6.5z" />
    <glyph glyph-name="ldot" unicode="&#x140;" horiz-adv-x="444" 
d="M130 1530q0 20 13 34.5t35 14.5q25 0 34.5 -17t9.5 -36v-1482q0 -20 -14.5 -34t-33.5 -14q-28 0 -36 13.5t-8 34.5v1486zM314 515q30 0 52 -22t22 -53t-22 -53t-52 -22q-14 0 -27.5 6.5t-24.5 17.5t-17.5 24t-6.5 27q0 15 6.5 28.5t17 24t24 16.5t28.5 6z" />
    <glyph glyph-name="Lslash" unicode="&#x141;" horiz-adv-x="1575" 
d="M207 541q-24 -18 -52 -38.5t-54 -38.5t-46.5 -30t-28.5 -12q-20 0 -31 15t-11 30q0 12 21.5 33.5t53 45.5t65.5 48t60 42l11 7l12 10v914q0 21 14 35t35 14q26 0 36.5 -13.5t10.5 -35.5v-844l9 6q38 28 88 64.5t102.5 74.5t104.5 74.5t93.5 65t69 46t31.5 17.5
q17 0 31 -11.5t14 -31.5q0 -8 -29 -33.5t-75 -62t-103.5 -79t-115 -84.5t-109 -78.5t-85.5 -60.5l-26 -18v-744h1121q16 0 32.5 -10.5t16.5 -33.5q0 -29 -10.5 -39t-38.5 -10h-1148q-37 0 -53 11.5t-16 52.5v702z" />
    <glyph glyph-name="lslash" unicode="&#x142;" horiz-adv-x="383" 
d="M139 692q-15 -13 -32 -25.5t-32.5 -23t-29.5 -18t-24 -9.5q-19 2 -32 15.5t-13 30.5q0 9 18 26t43 37.5t52.5 40t47.5 33.5l2 -4l7 -13q-1 5 -2 11.5t0 9.5l-5 -8v735q0 22 13.5 35.5t34.5 13.5q28 0 36 -17t8 -36v-656q16 13 34.5 26.5t35.5 24.5t31 18t21 7
q17 0 30.5 -10t13.5 -31q0 -11 -19.5 -30.5t-46.5 -40.5t-55 -40.5t-45 -29.5v-720q0 -48 -49 -48q-24 0 -33.5 14t-9.5 34v648zM163 713h1l3 3z" />
    <glyph glyph-name="Nacute" unicode="&#x143;" horiz-adv-x="1911" 
d="M289 1435v-1619q0 -22 -13.5 -36t-36.5 -14q-26 0 -35 15t-9 35v1749q0 9 1 18.5t5.5 17t13.5 12.5t24 5q6 0 15.5 -2.5t20.5 -10.5l14 -20v1l1300 -1637v1618q0 15 11 33t34 18q27 0 38.5 -13t11.5 -38v-1747q0 -9 -1.5 -19t-6.5 -17.5t-14.5 -12.5t-24.5 -5
q-17 0 -26.5 8t-18.5 19l-6 8l1 -2zM1137 1899q14 0 28.5 -11.5t14.5 -30.5q0 -11 -25 -41.5t-60 -68t-72 -74t-60 -59.5l-12 -12l-3 -4q-3 -3 -15 -9t-19 -6q-18 0 -31 13t-13 31q0 12 21.5 40t52 61t64 67t58.5 58l33 32q8 8 18 11t20 3z" />
    <glyph glyph-name="nacute" unicode="&#x144;" horiz-adv-x="797" 
d="M164 -4q-27 0 -36 12.5t-9 35.5v519q0 23 14 36t35 13q14 0 23 -8t14.5 -21t7.5 -30.5t2 -35.5v-5q53 42 113 71t131 29q59 0 98 -19t62 -52t32 -77.5t9 -95.5v-324q0 -21 -13 -34.5t-34 -13.5q-47 0 -47 48v333q0 31 -5.5 57.5t-18.5 45.5t-35 29.5t-55 10.5t-65.5 -12
t-63.5 -30.5t-59 -42t-52 -46.5v-345q0 -21 -13.5 -34.5t-34.5 -13.5zM542 922q14 0 28.5 -11.5t14.5 -29.5q0 -7 -12 -23.5t-31.5 -38.5t-43.5 -47.5t-47.5 -49.5t-45 -45t-34.5 -34q-6 -5 -10 -10t-6 -8q-2 -2 -13.5 -7t-18.5 -5q-17 0 -29.5 12.5t-12.5 30.5
q0 12 20.5 38.5t50 58.5t62.5 65.5t58 57.5l33 32q8 8 17.5 11t19.5 3z" />
    <glyph glyph-name="Ncommaaccent" unicode="&#x145;" horiz-adv-x="1911" 
d="M289 1435v-1619q0 -22 -13.5 -36t-36.5 -14q-26 0 -35 15t-9 35v1749q0 9 1 18.5t5.5 17t13.5 12.5t24 5q6 0 15.5 -2.5t20.5 -10.5l14 -20v1l1300 -1637v1618q0 15 11 33t34 18q27 0 38.5 -13t11.5 -38v-1747q0 -9 -1.5 -19t-6.5 -17.5t-14.5 -12.5t-24.5 -5
q-17 0 -26.5 8t-18.5 19l-6 8l1 -2zM840 -359q0 19 6 29t15 13.5t20 2.5l22 -2h4q19 0 24.5 20.5t5.5 46.5q0 5 -0.5 8.5t-0.5 7.5v42q0 32 8.5 53t39.5 21q28 0 37.5 -12.5t9.5 -36.5v-77q0 -36 -4 -65.5t-16.5 -50.5t-35.5 -32.5t-60 -11.5q-6 0 -18 1t-25 5.5t-22.5 13.5
t-9.5 24z" />
    <glyph glyph-name="ncommaaccent" unicode="&#x146;" horiz-adv-x="797" 
d="M164 -4q-27 0 -36 12.5t-9 35.5v519q0 23 14 36t35 13q14 0 23 -8t14.5 -21t7.5 -30.5t2 -35.5v-5q53 42 113 71t131 29q59 0 98 -19t62 -52t32 -77.5t9 -95.5v-324q0 -21 -13 -34.5t-34 -13.5q-47 0 -47 48v333q0 31 -5.5 57.5t-18.5 45.5t-35 29.5t-55 10.5t-65.5 -12
t-63.5 -30.5t-59 -42t-52 -46.5v-345q0 -21 -13.5 -34.5t-34.5 -13.5zM294 -226q0 19 6 28.5t15 13t20.5 2.5t22.5 -3h1q19 0 24.5 20.5t5.5 45.5q0 5 -0.5 8.5t-0.5 7.5v41q0 32 8.5 53t38.5 21q27 0 36.5 -12.5t9.5 -35.5v-76q0 -36 -4 -65t-16.5 -49.5t-35 -31.5
t-58.5 -11q-6 0 -18 1t-24 5.5t-21.5 13t-9.5 23.5z" />
    <glyph glyph-name="Ncaron" unicode="&#x147;" horiz-adv-x="1911" 
d="M289 1435v-1619q0 -22 -13.5 -36t-36.5 -14q-26 0 -35 15t-9 35v1749q0 9 1 18.5t5.5 17t13.5 12.5t24 5q6 0 15.5 -2.5t20.5 -10.5l14 -20v1l1300 -1637v1618q0 15 11 33t34 18q27 0 38.5 -13t11.5 -38v-1747q0 -9 -1.5 -19t-6.5 -17.5t-14.5 -12.5t-24.5 -5
q-17 0 -26.5 8t-18.5 19l-6 8l1 -2zM698 1883q0 20 14 30t30 10q12 0 36 -20.5t52.5 -50t56.5 -62.5t49 -57l2 2v-1q19 24 47.5 56.5t57 62t53.5 50t38 20.5q14 0 29 -10t15 -30t-14 -35l-182 -201q-8 -8 -21 -13.5t-24 -5.5q-13 0 -24.5 5t-19.5 12q-5 5 -13 14.5t-19 20.5
l-17 17q-23 23 -48.5 50.5t-47 54t-36 48t-14.5 33.5z" />
    <glyph glyph-name="ncaron" unicode="&#x148;" horiz-adv-x="797" 
d="M164 -4q-27 0 -36 12.5t-9 35.5v519q0 23 14 36t35 13q14 0 23 -8t14.5 -21t7.5 -30.5t2 -35.5v-5q53 42 113 71t131 29q59 0 98 -19t62 -52t32 -77.5t9 -95.5v-324q0 -21 -13 -34.5t-34 -13.5q-47 0 -47 48v333q0 31 -5.5 57.5t-18.5 45.5t-35 29.5t-55 10.5t-65.5 -12
t-63.5 -30.5t-59 -42t-52 -46.5v-345q0 -21 -13.5 -34.5t-34.5 -13.5zM152 871q0 21 15 30.5t29 9.5q11 0 34.5 -20t51.5 -49t56 -61t48 -56l1 1q19 23 47 55t56.5 61t53 49t36.5 20q14 0 29 -9.5t15 -30.5q0 -19 -14 -34l-180 -196l1 1q-7 -8 -19 -14t-25 -6t-24.5 4.5
t-17.5 10.5q-5 8 -14 17l-20 20l-17 18h1q-22 23 -47 49.5t-46.5 52t-35.5 46t-14 31.5z" />
    <glyph glyph-name="napostrophe" unicode="&#x149;" horiz-adv-x="797" 
d="M162 -4q-27 0 -35.5 12.5t-8.5 35.5v519q0 23 13.5 36t34.5 13q14 0 23 -8t14.5 -21t7.5 -30.5t2 -35.5v-5q54 42 114 71t132 29q58 0 97 -19t61.5 -52t32 -77.5t9.5 -95.5v-324q0 -21 -13.5 -34.5t-34.5 -13.5q-46 0 -46 48v333q0 31 -5.5 57.5t-18.5 45.5t-35 29.5
t-55 10.5t-66 -12t-63.5 -30.5t-59 -42t-52.5 -46.5v-345q0 -21 -12.5 -34.5t-35.5 -13.5zM29 703q0 19 6 29t15.5 13.5t21.5 2.5t24 -3q20 1 24 21t4 45q0 5 -0.5 8.5t-0.5 7.5v41q0 32 8.5 52.5t38.5 20.5q27 0 36.5 -12t9.5 -35v-76q0 -36 -4 -65t-16 -49.5t-34.5 -31.5
t-59.5 -11q-5 0 -17 1t-24.5 5.5t-22 12.5t-9.5 23z" />
    <glyph glyph-name="Eng" unicode="&#x14a;" horiz-adv-x="1911" 
d="M1397 -527q55 0 92 22t59.5 58t31.5 83t9 97v64l-1300 1638v-1619q0 -22 -13.5 -36t-36.5 -14q-26 0 -35 15t-9 35v1749q0 9 1 18.5t5.5 17t13.5 12.5t24 5q6 0 15.5 -2.5t20.5 -10.5l14 -20v1l1300 -1637v1618q0 15 11 33t34 18q27 0 38.5 -13t11.5 -38v-1747v-10.5
t-1 -8.5v-81q0 -66 -15.5 -128t-49.5 -110t-87.5 -76.5t-129.5 -28.5q-9 0 -20.5 1.5t-21 6.5t-16 14.5t-6.5 24.5q0 18 5.5 28t14 14.5t19 5.5t21.5 1z" />
    <glyph glyph-name="eng" unicode="&#x14b;" horiz-adv-x="797" 
d="M658 -14q0 -65 -15 -125.5t-48 -107.5t-85.5 -75t-127.5 -28q-9 0 -20 1.5t-20.5 6.5t-16 14.5t-6.5 24.5q0 18 5.5 27.5t13.5 14t18.5 5t21.5 0.5q54 0 90 21.5t58 57.5t31 82t9 94v378q0 31 -5.5 57.5t-18.5 45.5t-35 29.5t-55 10.5t-65.5 -12t-63.5 -30.5t-59 -42
t-52 -46.5v-345q0 -21 -13.5 -34.5t-34.5 -13.5q-27 0 -36 12.5t-9 35.5v519q0 23 14 36t35 13q14 0 23 -8t14.5 -21t7.5 -30.5t2 -35.5v-5q53 42 113 71t131 29q59 0 98 -19t62 -52t32 -77.5t9 -95.5v-324q0 -4 -2 -12v-46z" />
    <glyph glyph-name="Omacron" unicode="&#x14c;" horiz-adv-x="2066" 
d="M180 696q0 -114 30 -220t85 -199t131.5 -169.5t169.5 -131.5t199 -85t221 -30t222 30t199.5 84t168.5 130.5t130 169t83.5 199.5t29.5 222q0 117 -29 224.5t-82.5 200.5t-129 169.5t-168 130.5t-200 83.5t-224.5 29.5q-116 0 -223 -30t-199.5 -85t-169 -131.5
t-130.5 -169.5t-84 -200t-30 -222zM86 696q0 129 33 248.5t93.5 222.5t145 188t188 145t222.5 93t248 33q130 0 249 -33t222 -93t187.5 -144.5t144.5 -188t92.5 -223t32.5 -248.5q0 -128 -33 -246.5t-93.5 -222t-145.5 -188.5t-188 -145.5t-221.5 -94t-246.5 -33.5
q-127 0 -245.5 33.5t-222 95t-188.5 146.5t-146 188.5t-94.5 221.5t-33.5 245zM1204 1802q17 0 32.5 -12.5t15.5 -33.5q0 -29 -16 -37t-36 -8h-376q-17 0 -32.5 12.5t-15.5 32.5q0 23 15.5 34.5t32.5 11.5h380z" />
    <glyph glyph-name="omacron" unicode="&#x14d;" horiz-adv-x="743" 
d="M363 520q-46 0 -86.5 -17t-70.5 -47t-47 -70.5t-17 -86.5q0 -45 17.5 -85t47.5 -70t70.5 -47.5t85.5 -17.5q46 0 86 17t69 47t46 70t17 86q0 47 -17 87.5t-46 70t-69 46.5t-86 17zM363 612q66 0 123 -24t99 -66.5t66.5 -99.5t24.5 -123q0 -65 -24.5 -121.5t-67 -99.5
t-99.5 -67.5t-122 -24.5q-64 0 -121 25t-99.5 67.5t-67.5 99.5t-25 121q0 65 24.5 122t67 99.5t99.5 67t122 24.5zM547 792q17 0 32.5 -12t15.5 -32q0 -29 -16 -37t-36 -8h-368q-16 0 -31.5 12.5t-15.5 32.5q0 22 15.5 33t31.5 11h372z" />
    <glyph glyph-name="Obreve" unicode="&#x14e;" horiz-adv-x="2066" 
d="M180 696q0 -114 30 -220t85 -199t131.5 -169.5t169.5 -131.5t199 -85t221 -30t222 30t199.5 84t168.5 130.5t130 169t83.5 199.5t29.5 222q0 117 -29 224.5t-82.5 200.5t-129 169.5t-168 130.5t-200 83.5t-224.5 29.5q-116 0 -223 -30t-199.5 -85t-169 -131.5
t-130.5 -169.5t-84 -200t-30 -222zM86 696q0 129 33 248.5t93.5 222.5t145 188t188 145t222.5 93t248 33q130 0 249 -33t222 -93t187.5 -144.5t144.5 -188t92.5 -223t32.5 -248.5q0 -128 -33 -246.5t-93.5 -222t-145.5 -188.5t-188 -145.5t-221.5 -94t-246.5 -33.5
q-127 0 -245.5 33.5t-222 95t-188.5 146.5t-146 188.5t-94.5 221.5t-33.5 245zM793 1917q13 0 21.5 -7t13 -17t6.5 -22.5t3 -22.5q0 -2 0.5 -3t0.5 -3q1 -4 2 -8.5t0 -3.5q9 -25 28 -42.5t43.5 -28t52.5 -15.5t54 -5q63 0 114 31q18 13 35 32.5t22 40.5q0 5 2 9q0 2 0.5 4
t0.5 3q2 9 4.5 19.5t7.5 19t13.5 14t22.5 5.5t23 -5t14 -13t7 -17.5t2 -17.5q0 -52 -26.5 -92t-66.5 -67t-88 -41t-91 -14q-48 0 -96.5 13t-87 39.5t-63 67.5t-24.5 97q0 26 11 38t39 12z" />
    <glyph glyph-name="obreve" unicode="&#x14f;" horiz-adv-x="743" 
d="M363 520q-46 0 -86.5 -17t-70.5 -47t-47 -70.5t-17 -86.5q0 -45 17.5 -85t47.5 -70t70.5 -47.5t85.5 -17.5q46 0 86 17t69 47t46 70t17 86q0 47 -17 87.5t-46 70t-69 46.5t-86 17zM363 612q66 0 123 -24t99 -66.5t66.5 -99.5t24.5 -123q0 -65 -24.5 -121.5t-67 -99.5
t-99.5 -67.5t-122 -24.5q-64 0 -121 25t-99.5 67.5t-67.5 99.5t-25 121q0 65 24.5 122t67 99.5t99.5 67t122 24.5zM144 906q14 0 22.5 -6.5t13 -17t6 -22.5t2.5 -23q0 -1 0.5 -2t0.5 -5q8 -25 27 -43.5t43.5 -31t52.5 -18.5t53 -6q31 0 59 7t52 24q18 11 34.5 30.5
t22.5 40.5q0 4 2 8q0 2 0.5 4t0.5 4q2 9 4.5 19t7.5 18.5t13 14t22 5.5q13 0 21.5 -5.5t13.5 -13t7 -17t2 -16.5q0 -51 -25.5 -90t-65 -66t-86.5 -40.5t-89 -13.5q-47 0 -94.5 12.5t-85.5 39t-61.5 66.5t-23.5 95q0 24 11 36.5t37 12.5z" />
    <glyph glyph-name="Ohungarumlaut" unicode="&#x150;" horiz-adv-x="2066" 
d="M180 696q0 -114 30 -220t85 -199t131.5 -169.5t169.5 -131.5t199 -85t221 -30t222 30t199.5 84t168.5 130.5t130 169t83.5 199.5t29.5 222q0 117 -29 224.5t-82.5 200.5t-129 169.5t-168 130.5t-200 83.5t-224.5 29.5q-116 0 -223 -30t-199.5 -85t-169 -131.5
t-130.5 -169.5t-84 -200t-30 -222zM86 696q0 129 33 248.5t93.5 222.5t145 188t188 145t222.5 93t248 33q130 0 249 -33t222 -93t187.5 -144.5t144.5 -188t92.5 -223t32.5 -248.5q0 -128 -33 -246.5t-93.5 -222t-145.5 -188.5t-188 -145.5t-221.5 -94t-246.5 -33.5
q-127 0 -245.5 33.5t-222 95t-188.5 146.5t-146 188.5t-94.5 221.5t-33.5 245zM1268 1947q18 0 30.5 -14.5t12.5 -30.5q0 -8 -16.5 -36t-40 -63t-49 -71l-42.5 -60v1l-19 -28q-7 -9 -16.5 -15t-21.5 -6q-14 0 -30.5 11t-16.5 32q0 1 13.5 22t34.5 52t46 67t48.5 67
t41.5 51.5t25 20.5zM1053 1947q17 0 30.5 -14.5t13.5 -30.5q0 -6 -8.5 -22t-22.5 -38.5t-31.5 -48.5t-34.5 -50.5t-32.5 -46.5t-25.5 -36l1 1q-3 -5 -6 -9t-6 -7q-14 -21 -38 -21q-14 0 -30 11t-16 32q0 5 14 28t35.5 54t47.5 66t48.5 64t39.5 48.5t21 19.5z" />
    <glyph glyph-name="ohungarumlaut" unicode="&#x151;" horiz-adv-x="743" 
d="M363 520q-46 0 -86.5 -17t-70.5 -47t-47 -70.5t-17 -86.5q0 -45 17.5 -85t47.5 -70t70.5 -47.5t85.5 -17.5q46 0 86 17t69 47t46 70t17 86q0 47 -17 87.5t-46 70t-69 46.5t-86 17zM363 612q66 0 123 -24t99 -66.5t66.5 -99.5t24.5 -123q0 -65 -24.5 -121.5t-67 -99.5
t-99.5 -67.5t-122 -24.5q-64 0 -121 25t-99.5 67.5t-67.5 99.5t-25 121q0 65 24.5 122t67 99.5t99.5 67t122 24.5zM604 941q17 0 30 -14t13 -30q0 -5 -7.5 -19.5t-20 -34.5t-28 -43.5t-32 -47t-31.5 -45t-26 -36.5v1l-19 -26l1 1q-13 -22 -39 -22q-13 0 -29 10.5t-16 30.5
q0 1 13 21.5t33.5 51t45 66t47.5 66t40.5 50.5t24.5 20zM394 941q15 0 29.5 -14t14.5 -30q0 -9 -18.5 -39t-43 -67.5t-50.5 -73.5t-41 -57q-2 -4 -4 -7t-4 -5q-7 -13 -18 -18t-23 -5q-13 0 -29 10.5t-16 30.5q0 5 14 28t35 53.5t46.5 64.5t48 62.5t39 47.5t20.5 19z" />
    <glyph glyph-name="OE" unicode="&#x152;" horiz-adv-x="2830" 
d="M1514 -90q-58 -36 -115.5 -63t-118 -45t-124.5 -27t-134 -9q-128 0 -246 33.5t-221.5 94.5t-188.5 146.5t-146 188.5t-94.5 221.5t-33.5 245.5q0 128 33 247t93.5 222.5t145 188.5t188 145.5t222.5 93.5t248 33q138 0 257.5 -35t234.5 -106v72q0 16 7 26.5t17.5 15.5
t22 7t20.5 2h1012q20 0 35 -14.5t15 -34.5q0 -27 -15 -36t-35 -9h-985v-1109h1017q20 0 34.5 -13t14.5 -35q0 -25 -16 -35t-33 -10h-1017v-444h985q15 0 32.5 -10.5t17.5 -33.5q0 -29 -11.5 -39t-38.5 -10h-1012q-20 0 -33 2t-20.5 9t-10.5 19.5t-3 33.5v71zM1514 312h-156
q-23 0 -36 13.5t-13 34.5q0 15 9.5 24.5t26 15t38 7.5t44.5 2q18 0 35.5 -0.5t32.5 -1.5q4 0 9 -0.5t9 -0.5h1v968q-114 79 -232.5 119.5t-259.5 40.5q-115 0 -222 -30t-200 -84.5t-169 -131t-130.5 -170t-84.5 -200.5t-30 -222q0 -114 30 -220t85 -199t131.5 -169.5
t169.5 -131.5t199.5 -85t220.5 -30q137 0 258 42t234 117v292z" />
    <glyph glyph-name="oe" unicode="&#x153;" horiz-adv-x="1294" 
d="M1104 358q-10 37 -30 67.5t-48.5 52t-64.5 33t-77 11.5q-36 0 -69 -12.5t-59.5 -34t-45 -51.5t-26.5 -65zM150 299q0 -45 17.5 -85t47.5 -70t70 -47.5t86 -17.5t86 17t69 47t46 70t17 86q0 47 -17 87.5t-46 70t-69 46.5t-86 17t-86.5 -17t-70.5 -47t-47 -70.5t-17 -86.5z
M681 267q10 -90 69.5 -139t153.5 -49q36 0 64.5 7.5t50.5 18t38 22.5t27 22l1 1q5 5 11.5 9.5t10.5 8.5q5 5 14.5 10t19.5 5q20 0 32 -12t12 -32q0 -11 -5 -22t-12 -19q-26 -29 -57 -50t-66 -35t-72.5 -20.5t-74.5 -6.5q-85 0 -156 36.5t-111 106.5q-22 -30 -51 -56.5
t-62.5 -45.5t-70.5 -30t-76 -11q-64 0 -121 25t-99.5 67.5t-67.5 99.5t-25 121t24.5 121t67 100t99.5 67.5t122 24.5q81 0 150 -40.5t113 -107.5q42 74 111.5 112t156.5 38q60 0 114.5 -23t96 -63t66 -93.5t24.5 -113.5q0 -32 -15 -43t-41 -11h-466z" />
    <glyph glyph-name="Racute" unicode="&#x154;" horiz-adv-x="1694" 
d="M803 450q-11 0 -18 -0.5t-12 -0.5l52 -36q52 -35 116.5 -77.5t134 -89.5t141.5 -95t139 -93.5t126.5 -86.5t104 -73t71.5 -52.5t29 -25.5q0 -22 -16.5 -39t-36.5 -17q-2 0 -29.5 18t-74 48.5t-108.5 72t-132.5 88.5t-146 97.5t-149.5 100t-142.5 95.5t-125.5 84l-143 95
q-12 8 -20 16.5t-8 28.5q0 27 28 36t65 9q14 0 30.5 -1t30.5 -2q5 0 10 -0.5t9 -0.5q7 -1 10.5 -1h5.5q30 0 64 1t69 2.5t69.5 4.5t64.5 8h-1q92 18 166 57.5t126 99t80 138t28 173.5q0 82 -24.5 157t-70 135.5t-110.5 104t-146 63.5q-59 13 -121 16.5t-119 3.5h-530v-1696
q0 -22 -13.5 -36t-35.5 -14q-23 0 -35 15t-12 35v1741q0 16 7.5 26.5t18 15.5t22.5 7t21 2h582q139 0 259.5 -33t209 -103t139.5 -179t51 -261q0 -109 -26.5 -194t-74 -149.5t-113 -110t-143.5 -74t-165 -41.5t-178 -13zM944 1942q16 0 30 -11.5t14 -30.5q0 -11 -25 -41.5
t-60 -68t-72 -74t-60 -59.5l-11 -12l-3 -3q-3 -3 -16 -9.5t-20 -6.5q-17 0 -30 13t-13 31q0 12 18 36t45 53.5t58 61t57 57.5l18 18l34 32q8 8 17.5 11t18.5 3z" />
    <glyph glyph-name="racute" unicode="&#x155;" horiz-adv-x="741" 
d="M176 520q-12 0 -25 -4.5t-26.5 -12t-26 -16t-22.5 -16.5q-17 -12 -30.5 -19t-22.5 -7q-15 0 -26.5 10t-16.5 21q0 21 24.5 44.5t58.5 44t67.5 34t51.5 13.5q37 0 60 -12t36.5 -31.5t19 -45t7.5 -51.5q26 24 55.5 49t61.5 45.5t65.5 33t68.5 12.5q74 0 117.5 -45.5
t43.5 -118.5q0 -25 -10 -56t-28.5 -58.5t-44 -46t-56.5 -18.5q-20 0 -30 12.5t-10 29.5t7 23t18 13l10 7l-1 -1q8 5 17.5 12t18 17t14 24t5.5 32q0 38 -20 60t-58 22q-26 0 -59.5 -18.5t-67 -45.5t-64.5 -56t-52 -50v-306q0 -21 -14.5 -34.5t-33.5 -13.5q-30 0 -37 13.5
t-7 34.5v388q0 14 -0.5 29.5t-4 28.5t-11.5 21.5t-22 8.5zM468 930q16 0 29.5 -11.5t13.5 -29.5q0 -10 -24 -39.5t-57.5 -65.5t-70 -72.5l-60.5 -60.5l-11 -12l-3 -4q-3 -3 -15 -9t-19 -6q-17 0 -30 13t-13 30q0 12 20.5 39t50 59t62.5 65.5t58 57.5l33 32q8 8 18 11t18 3z
" />
    <glyph glyph-name="Rcommaaccent" unicode="&#x156;" horiz-adv-x="1694" 
d="M803 450q-11 0 -18 -0.5t-12 -0.5l52 -36q52 -35 116.5 -77.5t134 -89.5t141.5 -95t139 -93.5t126.5 -86.5t104 -73t71.5 -52.5t29 -25.5q0 -22 -16.5 -39t-36.5 -17q-2 0 -29.5 18t-74 48.5t-108.5 72t-132.5 88.5t-146 97.5t-149.5 100t-142.5 95.5t-125.5 84l-143 95
q-12 8 -20 16.5t-8 28.5q0 27 28 36t65 9q14 0 30.5 -1t30.5 -2q5 0 10 -0.5t9 -0.5q7 -1 10.5 -1h5.5q30 0 64 1t69 2.5t69.5 4.5t64.5 8h-1q92 18 166 57.5t126 99t80 138t28 173.5q0 82 -24.5 157t-70 135.5t-110.5 104t-146 63.5q-59 13 -121 16.5t-119 3.5h-530v-1696
q0 -22 -13.5 -36t-35.5 -14q-23 0 -35 15t-12 35v1741q0 16 7.5 26.5t18 15.5t22.5 7t21 2h582q139 0 259.5 -33t209 -103t139.5 -179t51 -261q0 -109 -26.5 -194t-74 -149.5t-113 -110t-143.5 -74t-165 -41.5t-178 -13zM738 -364q0 19 6 29t15.5 14t21.5 3t23 -3h1
q19 0 24.5 20.5t5.5 46.5q0 5 -0.5 8.5t-0.5 7.5v42q0 32 8.5 53t38.5 21q29 0 38.5 -12t9.5 -37v-76q0 -36 -4 -65.5t-16.5 -50.5t-35.5 -32.5t-60 -11.5q-6 0 -18 1t-25 5t-22.5 13t-9.5 24z" />
    <glyph glyph-name="rcommaaccent" unicode="&#x157;" horiz-adv-x="741" 
d="M118 -226q0 19 6 28.5t15.5 13t21 2.5t22.5 -3h1q19 0 24.5 20.5t5.5 45.5q0 5 -0.5 8.5t-0.5 7.5v41q0 22 2.5 38.5t13.5 25.5q-10 6 -12.5 17t-2.5 25v388q0 14 -0.5 29.5t-4 28.5t-11.5 21.5t-22 8.5q-12 0 -25 -4.5t-26.5 -12t-26 -16t-22.5 -16.5q-17 -12 -30.5 -19
t-22.5 -7q-15 0 -26.5 10t-16.5 21q0 21 24.5 44.5t58.5 44t67.5 34t51.5 13.5q37 0 60 -12t36.5 -31.5t19 -45t7.5 -51.5q26 24 55.5 49t61.5 45.5t65.5 33t68.5 12.5q74 0 117.5 -45.5t43.5 -118.5q0 -25 -10 -56t-28.5 -58.5t-44 -46t-56.5 -18.5q-20 0 -30 12.5
t-10 29.5t7 23t18 13l10 7l-1 -1q8 5 17.5 12t18 17t14 24t5.5 32q0 38 -20 60t-58 22q-26 0 -59.5 -18.5t-67 -45.5t-64.5 -56t-52 -50v-306q0 -12 -5.5 -21.5t-13.5 -16.5q11 -5 14.5 -15.5t3.5 -26.5v-76q0 -36 -4 -65t-16 -49.5t-34.5 -31.5t-58.5 -11q-6 0 -18 1
t-24.5 5.5t-22 13t-9.5 23.5z" />
    <glyph glyph-name="Rcaron" unicode="&#x158;" horiz-adv-x="1694" 
d="M803 450q-11 0 -18 -0.5t-12 -0.5l52 -36q52 -35 116.5 -77.5t134 -89.5t141.5 -95t139 -93.5t126.5 -86.5t104 -73t71.5 -52.5t29 -25.5q0 -22 -16.5 -39t-36.5 -17q-2 0 -29.5 18t-74 48.5t-108.5 72t-132.5 88.5t-146 97.5t-149.5 100t-142.5 95.5t-125.5 84l-143 95
q-12 8 -20 16.5t-8 28.5q0 27 28 36t65 9q14 0 30.5 -1t30.5 -2q5 0 10 -0.5t9 -0.5q7 -1 10.5 -1h5.5q30 0 64 1t69 2.5t69.5 4.5t64.5 8h-1q92 18 166 57.5t126 99t80 138t28 173.5q0 82 -24.5 157t-70 135.5t-110.5 104t-146 63.5q-59 13 -121 16.5t-119 3.5h-530v-1696
q0 -22 -13.5 -36t-35.5 -14q-23 0 -35 15t-12 35v1741q0 16 7.5 26.5t18 15.5t22.5 7t21 2h582q139 0 259.5 -33t209 -103t139.5 -179t51 -261q0 -109 -26.5 -194t-74 -149.5t-113 -110t-143.5 -74t-165 -41.5t-178 -13zM594 1883q0 20 14 30t30 10q11 0 35 -20.5t52.5 -50
t57 -62.5t49.5 -57l2 2v-1q19 24 47.5 56.5t57 62t53.5 50t38 20.5q14 0 29 -10t15 -30t-14 -35l-182 -201q-8 -8 -21 -13.5t-24 -5.5q-13 0 -24.5 5t-19.5 12l-32 35l-17 17q-23 23 -48.5 50.5t-47 54t-36 48t-14.5 33.5z" />
    <glyph glyph-name="rcaron" unicode="&#x159;" horiz-adv-x="741" 
d="M176 520q-12 0 -25 -4.5t-26.5 -12t-26 -16t-22.5 -16.5q-17 -12 -30.5 -19t-22.5 -7q-15 0 -26.5 10t-16.5 21q0 21 24.5 44.5t58.5 44t67.5 34t51.5 13.5q37 0 60 -12t36.5 -31.5t19 -45t7.5 -51.5q26 24 55.5 49t61.5 45.5t65.5 33t68.5 12.5q74 0 117.5 -45.5
t43.5 -118.5q0 -25 -10 -56t-28.5 -58.5t-44 -46t-56.5 -18.5q-20 0 -30 12.5t-10 29.5t7 23t18 13l10 7l-1 -1q8 5 17.5 12t18 17t14 24t5.5 32q0 38 -20 60t-58 22q-26 0 -59.5 -18.5t-67 -45.5t-64.5 -56t-52 -50v-306q0 -21 -14.5 -34.5t-33.5 -13.5q-30 0 -37 13.5
t-7 34.5v388q0 14 -0.5 29.5t-4 28.5t-11.5 21.5t-22 8.5zM125 871q0 21 14.5 30.5t28.5 9.5q12 0 36 -20t51.5 -49t55.5 -60.5t49 -55.5v1l1 -1q19 23 47 54.5t55.5 60.5t52 49.5t36.5 20.5q14 0 29 -9.5t15 -30.5q0 -19 -14 -34l-179 -196q-8 -8 -20.5 -13.5t-21.5 -5.5
q-14 0 -25 5t-19 13l-14 14l-20 20l-17 18h1q-22 23 -47 49.5t-46 52t-35 46t-14 31.5z" />
    <glyph glyph-name="Sacute" unicode="&#x15a;" horiz-adv-x="1679" 
d="M1569 1276q0 -19 -16.5 -33.5t-39.5 -14.5q-17 8 -24 14t-13 14q-56 69 -134.5 120t-167.5 85t-183 50.5t-180 16.5q-67 0 -138 -10t-139.5 -31t-129.5 -54.5t-107 -81t-73 -109.5t-27 -141q0 -64 20.5 -114t55.5 -89t82 -68t100.5 -50t110 -35t110.5 -23
q24 -4 50.5 -7.5t52.5 -6.5h-1l34 -4q72 -8 148.5 -19.5t150 -31t139.5 -50t115.5 -78t78.5 -114.5t29 -158q0 -85 -26 -154.5t-71.5 -124t-107 -94.5t-131.5 -66t-145 -39t-148 -13q-149 0 -282 39.5t-253 128.5l1 -1l-18 13.5t-29 24.5t-27 30t-12 30q0 20 13.5 32.5
t32.5 12.5q18 0 28 -6.5t18 -14.5h-1q52 -51 114 -88t130 -61t140 -35.5t143 -11.5q60 0 123.5 10t123 31t112 53t92 76t62.5 100.5t23 126.5q0 73 -25.5 126.5t-69 91t-101.5 61.5t-122 39.5t-131 24.5t-129 16l-116 14q-69 10 -138.5 25.5t-134 40t-121 59.5t-98 84.5
t-65.5 115t-24 150.5q0 99 31.5 176t85.5 135t126 98.5t153 65.5t166.5 36t166.5 11q87 0 173 -13t168 -40.5t157.5 -70t141.5 -100.5l8 -7h-1q26 -22 50.5 -46.5t38.5 -57.5zM935 1942q16 0 30.5 -11.5t14.5 -30.5q0 -11 -25 -41.5t-60 -68t-72 -74t-60 -59.5l-15 -15
q-2 -2 -6.5 -4.5t-9.5 -5t-10 -4.5t-8 -2q-18 0 -31.5 13t-13.5 31q0 12 18 36t45 53.5t58 61t57 57.5l18 18l34 32q8 8 18 11t18 3z" />
    <glyph glyph-name="sacute" unicode="&#x15b;" horiz-adv-x="569" 
d="M193 94q19 -7 38 -11t39 -4q16 0 31 3t27 10.5t19.5 18.5t7.5 28q0 16 -8.5 27.5t-22.5 20.5t-32.5 16.5t-38.5 14.5q-30 11 -59.5 24t-53 31.5t-37.5 46t-14 67.5q0 55 22 97.5t58 70.5t82.5 42.5t96.5 14.5q11 0 37.5 -4t54.5 -13.5t49 -24.5t21 -37q0 -20 -12.5 -32
t-32.5 -12q-5 0 -16 3t-20 7h1q-18 8 -43 15.5t-48 7.5q-30 0 -59 -8.5t-51.5 -25.5t-36 -41.5t-13.5 -55.5q0 -20 9.5 -34t25.5 -24.5t36.5 -19t41.5 -15.5q29 -11 57.5 -22t50.5 -28t35.5 -41.5t13.5 -61.5q0 -39 -15 -69t-40.5 -50t-58 -30t-67.5 -10q-11 0 -36.5 4
t-52 12.5t-46.5 22t-20 33.5q0 17 5 26.5t13.5 14t18.5 5t20 0.5q2 0 9.5 -2.5t10.5 -5.5zM477 924q15 0 28.5 -11.5t13.5 -29.5q0 -7 -11 -22.5t-29 -37t-41 -46t-46.5 -48.5t-45.5 -46l-38 -38l-15 -15q-3 -3 -15 -9.5t-19 -6.5q-17 0 -30 13t-13 31q0 12 20.5 38.5
t50.5 58.5t63 65.5t58 57.5l33 32q7 8 17 11t19 3z" />
    <glyph glyph-name="Scircumflex" unicode="&#x15c;" horiz-adv-x="1679" 
d="M1569 1276q0 -19 -16.5 -33.5t-39.5 -14.5q-17 8 -24 14t-13 14q-56 69 -134.5 120t-167.5 85t-183 50.5t-180 16.5q-67 0 -138 -10t-139.5 -31t-129.5 -54.5t-107 -81t-73 -109.5t-27 -141q0 -64 20.5 -114t55.5 -89t82 -68t100.5 -50t110 -35t110.5 -23
q24 -4 50.5 -7.5t52.5 -6.5h-1l34 -4q72 -8 148.5 -19.5t150 -31t139.5 -50t115.5 -78t78.5 -114.5t29 -158q0 -85 -26 -154.5t-71.5 -124t-107 -94.5t-131.5 -66t-145 -39t-148 -13q-149 0 -282 39.5t-253 128.5l1 -1l-18 13.5t-29 24.5t-27 30t-12 30q0 20 13.5 32.5
t32.5 12.5q18 0 28 -6.5t18 -14.5h-1q52 -51 114 -88t130 -61t140 -35.5t143 -11.5q60 0 123.5 10t123 31t112 53t92 76t62.5 100.5t23 126.5q0 73 -25.5 126.5t-69 91t-101.5 61.5t-122 39.5t-131 24.5t-129 16l-116 14q-69 10 -138.5 25.5t-134 40t-121 59.5t-98 84.5
t-65.5 115t-24 150.5q0 99 31.5 176t85.5 135t126 98.5t153 65.5t166.5 36t166.5 11q87 0 173 -13t168 -40.5t157.5 -70t141.5 -100.5l8 -7h-1q26 -22 50.5 -46.5t38.5 -57.5zM1064 1672q0 -16 -14 -30t-30 -14q-10 0 -34 20.5t-52.5 50t-57 61.5t-49.5 56v-1l-3 4
q-21 -24 -50 -57t-58 -62.5t-53.5 -50.5t-34.5 -21q-17 0 -30.5 13t-13.5 31q0 13 18 38t44 55t55 59.5t50 51.5v-1l28 30q7 7 20 13.5t25 6.5q11 0 25.5 -6.5t20.5 -13.5q5 -5 13 -14t21 -22q22 -23 50 -52t52.5 -57.5t41 -52t16.5 -35.5z" />
    <glyph glyph-name="scircumflex" unicode="&#x15d;" horiz-adv-x="569" 
d="M192 94q20 -7 39 -11t37 -4q16 0 31.5 3t27.5 10.5t19.5 18.5t7.5 28q0 16 -8.5 27.5t-22.5 20.5t-32.5 16.5t-37.5 14.5q-30 11 -60 24t-53 31.5t-37.5 46t-14.5 67.5q0 55 22 97.5t58 70.5t83 42.5t97 14.5q11 0 37.5 -4t53.5 -13.5t48 -24.5t21 -37q0 -20 -12 -32
t-32 -12q-6 0 -16.5 3t-19.5 7q-18 8 -43 15.5t-47 7.5q-30 0 -59 -8.5t-51.5 -25.5t-36 -41.5t-13.5 -55.5q0 -20 9.5 -34t25.5 -24.5t36.5 -19t42.5 -15.5q28 -11 56 -22.5t50.5 -28.5t36 -41.5t13.5 -60.5q0 -39 -15 -69t-40.5 -50t-58 -30t-68.5 -10q-11 0 -36 4
t-51.5 12.5t-46.5 22t-20 33.5q0 17 5 26.5t13.5 14t18.5 5t19 0.5q3 0 11 -2.5t11 -5.5zM512 645q0 -15 -14 -29t-30 -14q-9 0 -32 20t-51 48.5t-56 60.5t-48 55v-1q-2 2 -2.5 2t-1.5 2l-2 -2v1q-20 -23 -48 -55t-56 -61t-51.5 -49.5t-33.5 -20.5q-18 0 -31 13t-13 30
q0 12 17.5 37t43 54.5t53.5 58.5t49 50l28 28v-1q7 8 19 15t25 7q11 0 25 -7t20 -15v1l34 -35q21 -22 48 -50.5t51 -56t40.5 -51t16.5 -35.5z" />
    <glyph glyph-name="Scedilla" unicode="&#x15e;" horiz-adv-x="1679" 
d="M1569 1276q0 -19 -16.5 -33.5t-39.5 -14.5q-17 8 -24 14t-13 14q-56 69 -134.5 120t-168 85t-183 50.5t-179.5 16.5q-67 0 -138 -10t-139.5 -31t-129.5 -54.5t-107 -81t-73 -110t-27 -140.5q0 -64 20.5 -114t55.5 -89t82 -68t100.5 -50t110 -35t110.5 -23
q24 -4 50.5 -7.5t52.5 -6.5h-1l34 -4q72 -8 148.5 -19.5t150 -31t139.5 -50t115.5 -78t78.5 -114.5t29 -158q0 -83 -24.5 -150.5t-68 -121.5t-101.5 -93.5t-124.5 -66.5t-139 -41.5t-143.5 -16.5v-31q3 0 6 0.5t5 0.5q39 0 74.5 -9.5t62.5 -29.5t43 -51.5t16 -75.5
q0 -49 -18 -82.5t-48 -54.5t-69 -30t-81 -9q-8 0 -28 1t-45 4t-52.5 8t-50 12.5t-37 19t-14.5 26.5q0 17 13.5 29.5t31.5 12.5l13 -3q2 -1 4.5 -1.5t7.5 -0.5q42 -9 82.5 -14t80.5 -5q23 0 45 4t39 13.5t27.5 26t10.5 41.5q0 28 -11 44t-28 24t-39.5 10t-44.5 2h-43
q-26 0 -35 25t-9 57v19.5t1 17.5q-128 8 -248 50.5t-226 115.5q-6 4 -20 15t-28 24.5t-25 28.5t-11 29q0 20 13.5 32.5t32.5 12.5q18 0 28 -6.5t18 -14.5h-1q52 -51 114 -88t130 -61t140 -35.5t143 -11.5q60 0 123.5 10t123 31t112 53t92 76t62.5 100.5t23 126.5
q0 73 -25.5 126.5t-69 91t-101 61.5t-121.5 39.5t-131 24.5t-129 16l-117 14q-69 10 -138.5 26t-134 40.5t-121 59.5t-98 84t-65.5 114.5t-24 150.5q0 99 31.5 176t85.5 135t126 98.5t153 65.5t166.5 36t166.5 11q87 0 173 -13t168 -40.5t157.5 -70t141.5 -100.5l8 -7h-1
q26 -22 50.5 -46.5t38.5 -57.5z" />
    <glyph glyph-name="scedilla" unicode="&#x15f;" horiz-adv-x="569" 
d="M193 94q19 -7 38 -11t39 -4q15 0 30 3t27 10.5t19.5 18.5t7.5 28q0 16 -8.5 27.5t-22.5 20.5t-32.5 16.5t-37.5 14.5q-30 11 -59.5 24t-53 31.5t-37.5 46t-14 67.5q0 55 22 97.5t58 70.5t82.5 42.5t96.5 14.5q11 0 37.5 -4t54.5 -13.5t49 -24.5t21 -37q0 -20 -12.5 -32
t-32.5 -12q-6 0 -15 2.5t-17 5.5l1 -1l-2 2q-19 8 -44.5 16t-48.5 8q-30 0 -59 -8.5t-51.5 -25t-36 -41t-13.5 -56.5q0 -19 10 -33.5t26 -25t36 -19t41 -15.5q28 -10 56.5 -22t50.5 -29.5t36 -42t14 -59.5q0 -58 -31 -94.5t-79 -52.5q21 -3 40 -10.5t33.5 -21t22.5 -34
t8 -49.5q0 -36 -13.5 -59.5t-35 -38t-49.5 -20t-56 -5.5q-9 0 -35 2.5t-53.5 9.5t-49.5 19.5t-22 32.5q4 11 15 22.5t26 11.5q17 0 34.5 -2.5t31.5 -5.5t30.5 -5t27.5 -2q24 0 44.5 8.5t20.5 31.5q0 24 -18.5 29.5t-41.5 5.5h-33q-26 0 -34.5 19t-8.5 43v10q-16 3 -35.5 8.5
t-36 13.5t-27.5 19.5t-11 26.5q0 17 5 26.5t13 14t18 5t20 0.5q2 0 10 -2.5t11 -5.5z" />
    <glyph glyph-name="Scaron" unicode="&#x160;" horiz-adv-x="1679" 
d="M1569 1276q0 -19 -16.5 -33.5t-39.5 -14.5q-17 8 -24 14t-13 14q-56 69 -134.5 120t-167.5 85t-183 50.5t-180 16.5q-67 0 -138 -10t-139.5 -31t-129.5 -54.5t-107 -81t-73 -109.5t-27 -141q0 -64 20.5 -114t55.5 -89t82 -68t100.5 -50t110 -35t110.5 -23
q24 -4 50.5 -7.5t52.5 -6.5h-1l34 -4q72 -8 148.5 -19.5t150 -31t139.5 -50t115.5 -78t78.5 -114.5t29 -158q0 -85 -26 -154.5t-71.5 -124t-107 -94.5t-131.5 -66t-145 -39t-148 -13q-149 0 -282 39.5t-253 128.5l1 -1l-18 13.5t-29 24.5t-27 30t-12 30q0 20 13.5 32.5
t32.5 12.5q18 0 28 -6.5t18 -14.5h-1q52 -51 114 -88t130 -61t140 -35.5t143 -11.5q60 0 123.5 10t123 31t112 53t92 76t62.5 100.5t23 126.5q0 73 -25.5 126.5t-69 91t-101.5 61.5t-122 39.5t-131 24.5t-129 16l-116 14q-69 10 -138.5 25.5t-134 40t-121 59.5t-98 84.5
t-65.5 115t-24 150.5q0 99 31.5 176t85.5 135t126 98.5t153 65.5t166.5 36t166.5 11q87 0 173 -13t168 -40.5t157.5 -70t141.5 -100.5l8 -7h-1q26 -22 50.5 -46.5t38.5 -57.5zM585 1893q0 20 14.5 30t29.5 10q12 0 36.5 -20.5t53 -50.5t56.5 -62.5t49 -56.5l2 2v-1
q20 23 48 55.5t56.5 62t53.5 50.5t37 21q16 0 30 -10t14 -30q0 -9 -3 -18t-11 -17l-182 -201q-8 -9 -20.5 -14t-23.5 -5q-14 0 -25.5 4.5t-19.5 12.5l-33 36q-2 2 -8 7.5t-8 7.5q-23 24 -48.5 51.5t-47 53.5t-36 48t-14.5 34z" />
    <glyph glyph-name="scaron" unicode="&#x161;" horiz-adv-x="569" 
d="M192 94q20 -7 39 -11t37 -4q16 0 31.5 3t27.5 10.5t19.5 18.5t7.5 28q0 16 -8.5 27.5t-22.5 20.5t-32.5 16.5t-37.5 14.5q-30 11 -60 24t-53 31.5t-37.5 46t-14.5 67.5q0 55 22 97.5t58 70.5t83 42.5t97 14.5q11 0 37.5 -4t53.5 -13.5t48 -24.5t21 -37q0 -20 -12 -32
t-32 -12q-6 0 -16.5 3t-19.5 7q-18 8 -43 15.5t-47 7.5q-30 0 -59 -8.5t-51.5 -25.5t-36 -41.5t-13.5 -55.5q0 -20 9.5 -34t25.5 -24.5t36.5 -19t42.5 -15.5q28 -11 56 -22.5t50.5 -28.5t36 -41.5t13.5 -60.5q0 -39 -15 -69t-40.5 -50t-58 -30t-68.5 -10q-11 0 -36 4
t-51.5 12.5t-46.5 22t-20 33.5q0 17 5 26.5t13.5 14t18.5 5t19 0.5q3 0 11 -2.5t11 -5.5zM42 871q0 21 14 30.5t30 9.5q11 0 35 -20t51.5 -49t55.5 -60.5t48 -55.5v1l1 -1q19 23 47 55t56 61t52 49t36 20q16 0 30 -9.5t14 -30.5q0 -16 -12 -32l-180 -198q-8 -8 -20 -13.5
t-23 -5.5q-14 0 -25 5t-19 12l-49 53h1q-22 23 -47 49.5t-46.5 52t-35.5 46t-14 31.5z" />
    <glyph glyph-name="Tcommaaccent" unicode="&#x162;" horiz-adv-x="1421" 
d="M697 -234q-29 0 -38 14t-9 36v1698h-562q-23 0 -36 13.5t-13 35.5q0 27 13 36t36 9h1222q27 0 37.5 -11.5t10.5 -37.5q0 -20 -15.5 -32.5t-32.5 -12.5h-565v-1698q0 -22 -13.5 -36t-34.5 -14zM550 -493q0 19 6 29t16 13.5t21.5 2.5t22.5 -3h1q20 0 25.5 21t5.5 47
q0 4 -0.5 7.5t-0.5 7.5v42q0 16 1.5 30t6.5 24t14.5 15.5t25.5 5.5q27 0 36.5 -12t9.5 -36v-78q0 -36 -4 -65.5t-16.5 -50.5t-35.5 -32.5t-60 -11.5q-6 0 -18 1t-25 5.5t-22.5 13.5t-9.5 24z" />
    <glyph glyph-name="tcommaaccent" unicode="&#x163;" horiz-adv-x="692" 
d="M242 -226q0 19 6 28.5t15.5 13t21 2.5t22.5 -3h1q19 0 24 20.5t5 45.5q0 5 -0.5 8.5t-0.5 7.5v41q0 16 1 29t6 23q-48 7 -79 27t-49 51.5t-24.5 73.5t-5.5 93l5 272h-147q-21 0 -34 13t-13 35q0 29 13 36t34 7h149l13 412q1 17 13.5 33t31.5 16q26 0 36 -13.5t10 -35.5
l-10 -412h230q20 0 33.5 -14t13.5 -33q0 -26 -13.5 -35t-33.5 -9h-233v-15t-1 -15q0 -8 -0.5 -21t-0.5 -21q-2 -51 -3 -100t-1 -100q0 -35 4 -64t17 -50t35.5 -32.5t60.5 -11.5q25 0 46.5 7.5t39.5 19t31.5 24t22.5 23.5q11 11 22.5 20.5t22.5 9.5q17 0 31.5 -12t14.5 -32
q0 -8 -4.5 -18.5t-12.5 -18.5l1 2q-32 -48 -80 -77t-104 -37q3 -9 3 -24v-76q0 -36 -4 -65t-16 -49.5t-34.5 -31.5t-59.5 -11q-5 0 -17 1t-24 5.5t-21.5 13t-9.5 23.5z" />
    <glyph glyph-name="Tcaron" unicode="&#x164;" horiz-adv-x="1421" 
d="M697 -234q-29 0 -38 14t-9 36v1698h-562q-23 0 -36 13.5t-13 35.5q0 27 13 36t36 9h1222q27 0 37.5 -11.5t10.5 -37.5q0 -20 -15.5 -32.5t-32.5 -12.5h-565v-1698q0 -22 -13.5 -36t-34.5 -14zM457 1883q0 20 14.5 30t29.5 10q13 0 37.5 -20.5t53 -49.5t57 -62t48.5 -57v1
l1 -1q20 24 48 56.5t56.5 62t53 50t37.5 20.5q16 0 30 -10t14 -30t-14 -35l-182 -201q-8 -8 -20.5 -13.5t-22.5 -5.5q-14 0 -26 5t-20 12q-4 5 -12 14.5t-20 20.5l-17 17q-23 23 -48.5 50.5t-47 54t-36 48t-14.5 33.5z" />
    <glyph glyph-name="tcaron" unicode="&#x165;" horiz-adv-x="707" 
d="M277 235q0 -35 4 -64t17 -50t35.5 -32.5t60.5 -11.5q25 0 46.5 7.5t39.5 19t31.5 24t22.5 23.5q11 11 22.5 20.5t22.5 9.5q17 0 31.5 -12t14.5 -32q0 -8 -4.5 -18.5t-12.5 -18.5l1 2q-37 -54 -93 -85t-122 -31q-64 0 -105 17.5t-64.5 50t-32 78.5t-7.5 103l5 272h-147
q-21 0 -34 13t-13 35q0 29 13 36t34 7h149l13 412q1 17 13.5 33t31.5 16q26 0 36 -13.5t10 -35.5l-10 -412h230q20 0 33.5 -14t13.5 -33q0 -26 -13.5 -35t-33.5 -9h-233v-15t-1 -15q0 -8 -0.5 -21t-0.5 -21q-2 -51 -3 -100t-1 -100zM546 1041q14 0 26 -13t16 -22
q-2 -17 -13.5 -46t-28.5 -63.5t-36.5 -70t-35.5 -63.5l-11 -20l-15 -28q-6 -12 -18.5 -19.5t-25.5 -7.5q-23 0 -32.5 13t-11.5 31q6 17 18.5 44.5t28.5 59t33 64t32 58.5q2 4 5.5 10t4.5 9l19 36q7 14 19 21t26 7z" />
    <glyph glyph-name="Tbar" unicode="&#x166;" horiz-adv-x="1421" 
d="M697 -234q-29 0 -38 14t-9 36v1323h-170q-18 0 -35 14t-17 36q0 25 17 35.5t35 10.5h170v279h-562q-23 0 -36 13.5t-13 35.5q0 27 13 36t36 9h1222q27 0 37.5 -11.5t10.5 -37.5q0 -20 -15.5 -32.5t-32.5 -12.5h-565v-279h174q17 0 34.5 -13t17.5 -33q0 -16 -5 -26
t-13.5 -15t-18.5 -7t-20 -2h-169v-1323q0 -22 -13.5 -36t-34.5 -14z" />
    <glyph glyph-name="tbar" unicode="&#x167;" horiz-adv-x="692" 
d="M451 792q17 0 32.5 -12t15.5 -32q0 -29 -16 -37t-35 -8h-159q-1 -28 -2 -51.5t-2 -53.5h231q20 0 33.5 -14t13.5 -33q0 -26 -13.5 -35t-33.5 -9h-233v-15t-1 -15q0 -8 -0.5 -21t-0.5 -21q-2 -51 -3 -100t-1 -100q0 -35 4 -64t17 -50t35.5 -32.5t60.5 -11.5q25 0 46.5 7.5
t39.5 19t31.5 24t22.5 23.5q11 11 22.5 20.5t22.5 9.5q17 0 31.5 -12t14.5 -32q0 -8 -4.5 -18.5t-12.5 -18.5l1 2q-37 -54 -93 -85t-122 -31q-64 0 -105 17.5t-64.5 50t-32 78.5t-7.5 103l5 272h-147q-21 0 -34 13t-13 35q0 29 13 36t34 7h148q0 11 0.5 21t1.5 20
q1 17 1.5 30t0.5 34h-116q-16 0 -31.5 12.5t-15.5 32.5q0 22 15.5 33t31.5 11h118l4 110t4 109q1 17 13.5 32.5t31.5 15.5q26 0 36 -13.5t10 -35.5l-6 -218h161z" />
    <glyph glyph-name="Utilde" unicode="&#x168;" horiz-adv-x="1878" 
d="M1677 520q0 -69 -8.5 -144.5t-30.5 -143.5q-26 -71 -69 -133.5t-98.5 -114.5t-121.5 -93.5t-137 -70t-145 -43.5t-146 -15q-111 0 -222 32.5t-208 93.5t-172.5 148t-113.5 196q-23 69 -31.5 143.5t-8.5 144.5v1047q0 21 13.5 35t36.5 14q27 0 36.5 -14t9.5 -35v-1041
q0 -65 8 -135.5t26 -133.5v1q33 -95 98.5 -170t150.5 -126.5t182 -79t195 -27.5q97 0 195.5 26.5t183.5 77.5t150.5 126t97.5 172q21 64 28 132.5t7 136.5v1041q0 21 13 35t35 14q29 0 37.5 -13.5t8.5 -35.5v-1047zM808 1780q-27 0 -35.5 -11.5t-13.5 -28.5q-4 -11 -9 -23
t-16 -27q-3 -5 -10 -9.5t-14 -4.5q-47 0 -47 49q0 29 11 55.5t30.5 46.5t45.5 31.5t56 11.5q35 0 65 -13.5t59 -31.5h-1q26 -14 50 -25.5t47 -11.5q24 0 44 13.5t20 36.5q0 9 1 18t5.5 16.5t13.5 12.5t25 5q25 0 35.5 -16.5t10.5 -33.5q0 -32 -13 -58t-34 -44.5t-48.5 -29
t-56.5 -10.5q-39 0 -70 14.5t-60 31.5h1q-24 14 -47 25t-45 11z" />
    <glyph glyph-name="utilde" unicode="&#x169;" horiz-adv-x="782" 
d="M109 563q0 23 14 36t35 13q14 0 23 -5t13.5 -13t6 -17t1.5 -16v-265q0 -47 9 -86.5t29.5 -68.5t54.5 -45.5t85 -16.5t85 16.5t54 45.5t28.5 68.5t8.5 86.5v267q0 23 16.5 36t34.5 13q14 0 23 -5t13.5 -13t6 -17t1.5 -16v-281q0 -66 -16.5 -120t-50 -92.5t-84.5 -60
t-120 -21.5t-120 21.5t-84.5 60t-50 92.5t-16.5 120v283zM268 771q-26 0 -34.5 -11.5t-13.5 -27.5q-4 -12 -9 -24t-15 -26v1q-3 -5 -9.5 -9.5t-12.5 -4.5q-47 0 -47 48q0 29 10.5 55t29.5 45.5t44.5 31t54.5 11.5q34 0 63.5 -14t58.5 -31l-3 1q2 -1 4.5 -2.5t4.5 -2.5
q23 -11 45 -22t43 -11q23 0 43 13t20 36q0 19 6.5 35t36.5 16q24 0 34.5 -15.5t10.5 -33.5q0 -30 -12.5 -55.5t-33 -44t-47.5 -29t-56 -10.5q-37 0 -67.5 14t-59.5 31l3 -1q-2 1 -4.5 2.5t-4.5 2.5q-22 12 -42.5 22t-40.5 10z" />
    <glyph glyph-name="Umacron" unicode="&#x16a;" horiz-adv-x="1878" 
d="M1677 520q0 -69 -8.5 -144.5t-30.5 -143.5q-26 -71 -69 -133.5t-98.5 -114.5t-121.5 -93.5t-137 -70t-145 -43.5t-146 -15q-111 0 -222 32.5t-208 93.5t-172.5 148t-113.5 196q-23 69 -31.5 143.5t-8.5 144.5v1047q0 21 13.5 35t36.5 14q27 0 36.5 -14t9.5 -35v-1041
q0 -65 8 -135.5t26 -133.5v1q33 -95 98.5 -170t150.5 -126.5t182 -79t195 -27.5q97 0 195.5 26.5t183.5 77.5t150.5 126t97.5 172q21 64 28 132.5t7 136.5v1041q0 21 13 35t35 14q29 0 37.5 -13.5t8.5 -35.5v-1047zM1112 1802q17 0 32.5 -12.5t15.5 -33.5q0 -29 -16 -37
t-36 -8h-376q-17 0 -32.5 12.5t-15.5 32.5q0 23 15.5 34.5t32.5 11.5h380z" />
    <glyph glyph-name="umacron" unicode="&#x16b;" horiz-adv-x="782" 
d="M109 563q0 23 14 36t35 13q14 0 23 -5t13.5 -13t6 -17t1.5 -16v-265q0 -47 9 -86.5t29.5 -68.5t54.5 -45.5t85 -16.5t85 16.5t54 45.5t28.5 68.5t8.5 86.5v267q0 23 16.5 36t34.5 13q14 0 23 -5t13.5 -13t6 -17t1.5 -16v-281q0 -66 -16.5 -120t-50 -92.5t-84.5 -60
t-120 -21.5t-120 21.5t-84.5 60t-50 92.5t-16.5 120v283zM566 792q16 0 32 -12t16 -32q0 -29 -17 -37t-35 -8h-368q-17 0 -32.5 12.5t-15.5 32.5q0 22 15.5 33t32.5 11h372z" />
    <glyph glyph-name="Ubreve" unicode="&#x16c;" horiz-adv-x="1878" 
d="M1677 520q0 -69 -8.5 -144.5t-30.5 -143.5q-26 -71 -69 -133.5t-98.5 -114.5t-121.5 -93.5t-137 -70t-145 -43.5t-146 -15q-111 0 -222 32.5t-208 93.5t-172.5 148t-113.5 196q-23 69 -31.5 143.5t-8.5 144.5v1047q0 21 13.5 35t36.5 14q27 0 36.5 -14t9.5 -35v-1041
q0 -65 8 -135.5t26 -133.5v1q33 -95 98.5 -170t150.5 -126.5t182 -79t195 -27.5q97 0 195.5 26.5t183.5 77.5t150.5 126t97.5 172q21 64 28 132.5t7 136.5v1041q0 21 13 35t35 14q29 0 37.5 -13.5t8.5 -35.5v-1047zM701 1917q13 0 21.5 -7t13 -17t6.5 -22.5t3 -22.5
q0 -2 0.5 -3t0.5 -3q1 -4 2 -8.5t0 -3.5q9 -25 28 -42.5t43.5 -28t51.5 -15.5t53 -5q65 0 115 31q19 13 35.5 32.5t22.5 40.5q0 5 2 9q0 2 0.5 4t0.5 3q2 9 4.5 19.5t7.5 19t13.5 14t22.5 5.5t22.5 -5t13.5 -13t7 -17.5t2 -17.5q0 -52 -26.5 -92t-67 -67t-88 -41t-90.5 -14
q-48 0 -96 13t-86.5 39.5t-63 67.5t-24.5 97q0 26 11 38t39 12z" />
    <glyph glyph-name="ubreve" unicode="&#x16d;" horiz-adv-x="782" 
d="M109 563q0 23 14 36t35 13q14 0 23 -5t13.5 -13t6 -17t1.5 -16v-265q0 -47 9 -86.5t29.5 -68.5t54.5 -45.5t85 -16.5t85 16.5t54 45.5t28.5 68.5t8.5 86.5v267q0 23 16.5 36t34.5 13q14 0 23 -5t13.5 -13t6 -17t1.5 -16v-281q0 -66 -16.5 -120t-50 -92.5t-84.5 -60
t-120 -21.5t-120 21.5t-84.5 60t-50 92.5t-16.5 120v283zM163 906q13 0 21.5 -6.5t13 -17t6.5 -22.5t3 -23q0 -1 0.5 -2t0.5 -5q7 -26 25.5 -44.5t43 -30.5t52 -18t53.5 -6q32 0 60.5 7t52.5 24q17 11 34 30.5t22 40.5q0 4 2 8q0 2 0.5 4t0.5 4q2 9 4.5 19t8 18.5t13.5 14
t22 5.5q13 0 21.5 -5.5t13.5 -13t7 -17t2 -16.5q0 -51 -26 -90t-65.5 -66t-86.5 -40.5t-89 -13.5q-47 0 -94 12.5t-85 39t-62 66.5t-24 95q0 24 11.5 36.5t37.5 12.5z" />
    <glyph glyph-name="Uring" unicode="&#x16e;" horiz-adv-x="1878" 
d="M1677 520q0 -69 -8.5 -144.5t-30.5 -143.5q-26 -71 -69 -133.5t-98.5 -114.5t-121.5 -93.5t-137 -70t-145 -43.5t-146 -15q-111 0 -222 32.5t-208 93.5t-172.5 148t-113.5 196q-23 69 -31.5 143.5t-8.5 144.5v1047q0 21 13.5 35t36.5 14q27 0 36.5 -14t9.5 -35v-1041
q0 -65 8 -135.5t26 -133.5v1q33 -95 98.5 -170t150.5 -126.5t182 -79t195 -27.5q97 0 195.5 26.5t183.5 77.5t150.5 126t97.5 172q21 64 28 132.5t7 136.5v1041q0 21 13 35t35 14q29 0 37.5 -13.5t8.5 -35.5v-1047zM922 1936q-48 0 -79 -32.5t-31 -80.5t31.5 -78.5
t78.5 -30.5q23 0 43.5 8.5t35.5 23t24 34.5t9 43q0 24 -8.5 44.5t-23.5 36t-35.5 24t-44.5 8.5zM922 2026q41 0 77.5 -16.5t64 -44t43.5 -64.5t16 -78q0 -42 -16 -78.5t-43.5 -63.5t-64 -43t-77.5 -16q-42 0 -78.5 16t-63.5 43t-43 63.5t-16 78.5t15.5 78.5t43 64.5t64 44
t78.5 16z" />
    <glyph glyph-name="uring" unicode="&#x16f;" horiz-adv-x="782" 
d="M109 563q0 23 14 36t35 13q14 0 23 -5t13.5 -13t6 -17t1.5 -16v-265q0 -47 9 -86.5t29.5 -68.5t54.5 -45.5t85 -16.5t85 16.5t54 45.5t28.5 68.5t8.5 86.5v267q0 23 16.5 36t34.5 13q14 0 23 -5t13.5 -13t6 -17t1.5 -16v-281q0 -66 -16.5 -120t-50 -92.5t-84.5 -60
t-120 -21.5t-120 21.5t-84.5 60t-50 92.5t-16.5 120v283zM380 924q-48 0 -78 -31.5t-30 -79.5q0 -46 30.5 -76t77.5 -30q22 0 42 8t35 22.5t24 33.5t9 42q0 47 -31 79t-79 32zM380 1012q40 0 76 -16t63 -43t42.5 -63.5t15.5 -76.5q0 -41 -15.5 -77t-42.5 -62.5t-63 -42
t-76 -15.5q-41 0 -77 15.5t-62.5 42t-42 62.5t-15.5 77t15.5 77t42 63t62.5 43t77 16z" />
    <glyph glyph-name="Uhungarumlaut" unicode="&#x170;" horiz-adv-x="1878" 
d="M1677 520q0 -69 -8.5 -144.5t-30.5 -143.5q-26 -71 -69 -133.5t-98.5 -114.5t-121.5 -93.5t-137 -70t-145 -43.5t-146 -15q-111 0 -222 32.5t-208 93.5t-172.5 148t-113.5 196q-23 69 -31.5 143.5t-8.5 144.5v1047q0 21 13.5 35t36.5 14q27 0 36.5 -14t9.5 -35v-1041
q0 -65 8 -135.5t26 -133.5v1q33 -95 98.5 -170t150.5 -126.5t182 -79t195 -27.5q97 0 195.5 26.5t183.5 77.5t150.5 126t97.5 172q21 64 28 132.5t7 136.5v1041q0 21 13 35t35 14q29 0 37.5 -13.5t8.5 -35.5v-1047zM1111 1954q18 0 30.5 -14.5t12.5 -30.5q0 -8 -16.5 -36
t-40 -63.5t-49 -71.5l-42.5 -60v1l-19 -27l1 1q-6 -10 -16.5 -16t-22.5 -6q-14 0 -30 10.5t-16 32.5q0 1 13.5 22t34.5 52t46 67t48 67t41 51.5t25 20.5zM896 1954q17 0 30.5 -14.5t13.5 -30.5q0 -6 -8.5 -22t-22.5 -38t-31 -48t-34.5 -51t-33 -47t-25.5 -36l1 1
q-3 -5 -6 -9t-6 -7q-14 -21 -38 -21q-14 0 -30 10.5t-16 32.5q0 5 14 28t35.5 54t47.5 66t48.5 64t39.5 48.5t21 19.5z" />
    <glyph glyph-name="uhungarumlaut" unicode="&#x171;" horiz-adv-x="782" 
d="M111 563q0 23 13 36t35 13q14 0 23 -5t13.5 -13t6 -17t1.5 -16v-265q0 -47 9 -86.5t29.5 -68.5t54.5 -45.5t85 -16.5t84.5 16.5t54 45.5t29 68.5t8.5 86.5v267q0 23 16.5 36t33.5 13q14 0 23 -5t13.5 -13t6 -17t1.5 -16v-281q0 -66 -16 -120t-49.5 -92.5t-84.5 -60
t-120 -21.5q-70 0 -121 21.5t-84 60t-49 92.5t-16 120v283zM660 941q17 0 30 -14t13 -30q0 -5 -7.5 -19.5t-20 -34.5t-28 -43.5t-32 -47t-31.5 -45t-26 -36.5v1l-19 -26l1 1q-13 -22 -39 -22q-13 0 -29 10.5t-16 30.5q0 1 13 21.5t33.5 51t45 66t47.5 66t40.5 50.5t24.5 20z
M450 941q15 0 29.5 -14t14.5 -30q0 -9 -18.5 -39t-43 -67.5t-50.5 -73.5t-41 -57v1l-8 -10l1 1l-3 -7q-6 -11 -16.5 -15.5t-22.5 -4.5q-13 0 -29 10.5t-16 30.5q0 5 14 28t35 53.5t46.5 64.5t48 62.5t39 47.5t20.5 19z" />
    <glyph glyph-name="Uogonek" unicode="&#x172;" horiz-adv-x="1878" 
d="M1677 520q0 -70 -8 -144.5t-31 -143.5q-18 -50 -45.5 -98t-62 -91t-74.5 -80.5t-83 -65.5q-29 -28 -51 -61t-22 -68q0 -28 13.5 -44t34.5 -23.5t47 -9t51 -1.5q8 0 17.5 -0.5t18 -5t14.5 -13.5t6 -25q0 -15 -5.5 -24t-13.5 -14t-17.5 -6.5t-17.5 -1.5h-60q-36 0 -68 12
t-56.5 34t-38.5 53t-14 69q0 25 7 49q-143 -55 -297 -55q-111 0 -222 32.5t-208 93.5t-172.5 148t-113.5 196q-23 69 -31.5 143.5t-8.5 144.5v1047q0 21 13.5 35t36.5 14q27 0 36.5 -14t9.5 -35v-1041q0 -65 8 -135.5t26 -133.5v1q33 -95 98.5 -170t150.5 -126.5t182 -79
t195 -27.5q97 0 195.5 26.5t183.5 77.5t150.5 126t97.5 172q21 64 28 132.5t7 136.5v1041q0 21 13 35t35 14q29 0 37.5 -13.5t8.5 -35.5v-1047z" />
    <glyph glyph-name="uogonek" unicode="&#x173;" horiz-adv-x="782" 
d="M109 563q0 23 14 36t35 13q14 0 23 -5t13.5 -13t6 -17t1.5 -16v-265q0 -47 9 -86.5t29.5 -68.5t54.5 -45.5t85 -16.5t85 16.5t54 45.5t28.5 68.5t8.5 86.5v267q0 23 16.5 36t34.5 13q14 0 23 -5t13.5 -13t6 -17t1.5 -16v-281q0 -94 -35 -164t-105 -104l3 3
q-18 -16 -36 -34t-32.5 -37t-23 -39t-8.5 -41q0 -28 13 -43.5t33.5 -23t45.5 -9t49 -1.5q9 0 18.5 -0.5t18 -4.5t14 -13t5.5 -25q0 -14 -5 -22.5t-13 -13.5t-17.5 -7t-18.5 -2h-58q-35 0 -66.5 12t-55 33.5t-37.5 52t-14 67.5q0 32 12 63.5t29 58.5q-66 2 -114.5 24.5
t-80.5 61t-47.5 91.5t-15.5 117v283z" />
    <glyph glyph-name="Wcircumflex" unicode="&#x174;" horiz-adv-x="2370" 
d="M899 -238q-20 0 -31.5 11.5t-17.5 27.5v-2q-9 18 -38.5 79t-73 151t-98.5 203.5t-115 238.5t-122.5 254t-120.5 250.5t-109.5 228.5t-90 188t-60.5 128.5t-22 50.5q0 20 13.5 33.5t33.5 13.5q4 0 10.5 -3.5t13.5 -8.5t12.5 -10t7.5 -8l806 -1672l214 443q-14 28 -46 94.5
t-75 156.5t-94 195.5t-102 211.5t-98.5 205t-84 176t-58.5 124t-22 49q0 20 14.5 33.5t35.5 13.5q1 -1 2 -1h5q8 -3 19 -12.5t18 -20.5l539 -1120q78 159 156 316t156 315l243 496q1 3 6.5 7.5t11.5 9t12.5 7.5t10.5 3q9 0 17 -4.5t15 -11t11 -15t4 -16.5q0 -2 -14.5 -33.5
t-40 -85t-60 -124.5t-73.5 -151.5t-81.5 -167.5t-84.5 -172t-81 -164t-71 -144l-85 -171q29 -63 56.5 -119t55.5 -113q28 -56 50.5 -105.5t50.5 -106.5q137 280 272 555t271 555l280 572q5 5 17.5 13.5t19.5 8.5q23 0 36.5 -14t13.5 -35q0 -2 -16 -35t-43.5 -91t-66 -136.5
t-84 -171t-95.5 -195.5t-102 -209t-103.5 -211.5t-99.5 -203.5q-49 -99 -91.5 -186.5t-75.5 -155.5t-54.5 -113t-28.5 -60q-6 -13 -15.5 -26t-33.5 -13q-20 0 -32.5 12t-19.5 26l-212 449l-220 -449l1 1q-5 -13 -14.5 -26t-33.5 -13zM1404 1672q0 -16 -15 -30t-29 -14
q-10 0 -34 20.5t-52.5 50t-57 61.5t-49.5 56v-1l-5 4q-1 -1 -1 -2t-1 -1q-20 -24 -49 -56t-57.5 -61.5t-52 -50t-33.5 -20.5q-18 0 -31 13t-13 31q0 12 16 35t40 51t51 56.5t49 50.5l10 11l29 30q7 7 19.5 13t24.5 6t26.5 -6.5t20.5 -13.5q4 -5 12.5 -14t21.5 -22
q22 -23 50 -52t52.5 -57.5t41 -52t16.5 -35.5z" />
    <glyph glyph-name="wcircumflex" unicode="&#x175;" horiz-adv-x="977" 
d="M469 170l-78 -150q-6 -9 -17 -20.5t-28 -11.5q-21 0 -29.5 11t-14.5 22l-32 61q-19 35 -45 83t-53.5 100t-54.5 103.5t-48.5 94t-34.5 71.5t-13 35q0 18 13.5 30.5t30.5 12.5q3 0 9 -2.5t12 -6t11 -7.5t8 -7l241 -460l32 59q11 21 21 38t22 40q-7 14 -14.5 26.5
t-14.5 26.5q-17 32 -37.5 70.5t-38.5 74t-31 63t-16 37.5q0 18 14 33t30 15q13 0 26 -6.5t18 -19.5l-1 1q11 -23 22 -44l22 -42l71 -135q27 54 58.5 115t58.5 115q2 2 8 5.5t14 6.5q8 4 20 4q14 -2 27 -12.5t13 -30.5q0 -8 -15 -41.5t-36.5 -76t-45 -87t-40.5 -74.5l-8 -16
v1l-3 -6l73 -141l239 459q5 9 16 17t23 8q14 0 29.5 -12.5t15.5 -30.5q0 -8 -11.5 -34t-30.5 -64.5t-43 -85t-50 -95t-51.5 -95.5t-46.5 -85l-48 -89l1 1q-5 -11 -17 -22.5t-32 -11.5q-14 6 -29 24t-30 42.5t-29.5 52.5t-26.5 52zM710 665q0 -15 -14 -29t-30 -14
q-10 0 -33 20t-51 48.5t-56 60.5t-47 55v-1l-4 4q-2 -2 -3 -2l-1 -1q-20 -23 -48 -54.5t-55.5 -60.5t-50.5 -49t-33 -20q-18 0 -31 13t-13 30q0 13 17.5 38t43 54t53.5 58t49 51l28 28v-1q7 8 19 14t25 6q11 0 24 -6t21 -14q6 -8 14.5 -17t18.5 -17q21 -22 48.5 -50.5
t51.5 -56.5t40.5 -51.5t16.5 -35.5z" />
    </font>
</defs>
</svg>
